{"glyphs":{"0":{"ha":926,"x_min":57,"x_max":869,"o":"m 57 501 q 159 898 57 785 q 470 1011 261 1011 q 635 986 570 1011 q 740 922 699 962 q 804 839 781 882 q 842 736 827 795 q 869 505 869 625 q 778 109 869 234 q 463 -17 686 -17 q 260 23 337 -17 q 133 140 182 63 q 77 291 97 195 q 57 501 57 386 m 331 500 q 365 241 331 311 q 462 172 398 172 q 535 201 504 172 q 580 294 566 231 q 595 493 595 358 q 561 759 595 691 q 460 827 528 827 q 361 758 392 827 q 331 500 331 688 z "},"1":{"ha":926,"x_min":113,"x_max":683,"o":"m 683 1011 l 683 0 l 404 0 l 404 663 q 272 579 336 611 q 113 518 209 547 l 113 745 q 332 854 254 790 q 454 1011 410 918 l 683 1011 z "},"2":{"ha":926,"x_min":37,"x_max":865,"o":"m 865 0 l 37 0 q 123 231 51 123 q 394 486 195 339 q 549 623 515 576 q 583 712 583 670 q 550 790 583 758 q 465 822 516 822 q 379 789 412 822 q 334 671 345 755 l 57 694 q 117 876 73 810 q 239 976 160 941 q 458 1011 318 1011 q 685 978 604 1011 q 812 876 766 945 q 859 722 859 807 q 805 548 859 631 q 612 366 752 465 q 500 286 528 309 q 434 225 472 262 l 865 225 l 865 0 z "},"3":{"ha":926,"x_min":49,"x_max":870,"o":"m 325 707 l 64 753 q 189 945 96 878 q 451 1011 281 1011 q 732 939 646 1011 q 819 756 819 866 q 784 640 819 692 q 677 548 749 587 q 766 515 735 534 q 843 434 815 484 q 870 315 870 385 q 825 149 870 229 q 694 26 779 69 q 469 -17 608 -17 q 255 15 334 -17 q 126 108 177 47 q 49 262 76 170 l 325 299 q 375 183 341 216 q 463 151 410 151 q 555 192 518 151 q 592 300 592 233 q 556 408 592 370 q 460 446 521 446 q 370 429 427 446 l 385 627 q 420 623 408 623 q 511 658 475 623 q 547 740 547 692 q 520 812 547 785 q 446 840 493 840 q 366 810 397 840 q 325 707 336 781 z "},"4":{"ha":926,"x_min":28,"x_max":897,"o":"m 532 186 l 28 186 l 28 413 l 532 1011 l 772 1011 l 772 400 l 897 400 l 897 186 l 772 186 l 772 0 l 532 0 l 532 186 m 532 400 l 532 713 l 266 400 l 532 400 z "},"5":{"ha":926,"x_min":45,"x_max":872,"o":"m 169 994 l 825 994 l 825 774 l 380 774 l 357 625 q 448 657 403 646 q 537 668 493 668 q 779 578 686 668 q 872 351 872 488 q 824 165 872 254 q 689 30 777 77 q 464 -17 601 -17 q 295 2 366 -17 q 176 57 225 20 q 96 141 127 94 q 45 258 66 188 l 325 288 q 372 186 335 221 q 461 151 410 151 q 556 195 519 151 q 594 326 594 239 q 556 456 594 414 q 455 497 518 497 q 378 477 415 497 q 317 426 350 463 l 81 460 l 169 994 z "},"6":{"ha":926,"x_min":58,"x_max":878,"o":"m 857 770 l 582 736 q 546 818 571 794 q 483 842 520 842 q 378 774 416 842 q 338 565 351 725 q 440 639 388 615 q 561 663 492 663 q 786 568 694 663 q 878 328 878 473 q 831 148 878 229 q 702 25 785 66 q 496 -17 620 -17 q 256 34 347 -17 q 112 196 166 85 q 58 492 58 308 q 172 886 58 761 q 486 1011 285 1011 q 673 984 604 1011 q 787 903 742 956 q 857 770 833 850 m 348 328 q 389 201 348 247 q 488 155 429 155 q 579 197 543 155 q 616 320 616 238 q 578 448 616 404 q 484 492 540 492 q 387 450 426 492 q 348 328 348 407 z "},"7":{"ha":926,"x_min":62,"x_max":868,"o":"m 62 994 l 868 994 l 868 808 q 692 602 763 713 q 557 303 607 468 q 505 0 518 175 l 229 0 q 332 408 262 243 q 553 761 401 573 l 62 761 l 62 994 z "},"8":{"ha":926,"x_min":57,"x_max":869,"o":"m 223 534 q 128 612 158 569 q 87 746 87 670 q 205 950 87 871 q 447 1011 296 1011 q 742 935 646 1011 q 837 744 837 859 q 799 618 837 677 q 709 534 770 575 q 830 432 790 496 q 869 291 869 368 q 835 152 869 216 q 751 52 801 87 q 627 0 701 16 q 469 -17 553 -17 q 227 20 311 -17 q 100 130 144 58 q 57 292 57 203 q 98 440 57 380 q 223 534 138 501 m 347 730 q 379 647 347 678 q 465 615 412 615 q 543 646 513 615 q 574 727 574 677 q 542 811 574 779 q 460 843 510 843 q 379 811 410 843 q 347 730 347 780 m 332 302 q 372 194 332 236 q 464 153 412 153 q 553 195 513 153 q 592 302 592 237 q 552 410 592 368 q 460 452 513 452 q 371 412 409 452 q 332 302 332 371 z "},"9":{"ha":926,"x_min":48,"x_max":867,"o":"m 69 223 l 344 258 q 380 176 355 200 q 444 153 406 153 q 547 220 510 153 q 588 429 574 269 q 486 355 538 378 q 366 331 434 331 q 140 426 232 331 q 48 666 48 521 q 95 846 48 765 q 224 969 142 928 q 430 1011 306 1011 q 669 960 579 1011 q 813 797 760 909 q 867 503 867 686 q 754 108 867 233 q 440 -17 641 -17 q 253 11 321 -17 q 139 91 184 38 q 69 223 94 144 m 578 667 q 537 793 578 747 q 438 839 496 839 q 347 798 383 839 q 311 673 311 756 q 348 546 311 590 q 442 502 386 502 q 539 545 500 502 q 578 667 578 587 z "}," ":{"ha":463,"x_min":0,"x_max":0,"o":""},"!":{"ha":463,"x_min":84,"x_max":379,"o":"m 84 994 l 379 994 l 379 768 l 322 313 l 140 313 l 84 768 l 84 994 m 94 243 l 370 243 l 370 0 l 94 0 l 94 243 z "},"\"":{"ha":694,"x_min":33,"x_max":661,"o":"m 33 994 l 308 994 l 308 830 l 264 629 l 77 629 l 33 830 l 33 994 m 386 994 l 661 994 l 661 830 l 618 629 l 431 629 l 386 830 l 386 994 z "},"#":{"ha":917,"x_min":41,"x_max":871,"o":"m 172 410 l 207 581 l 41 581 l 41 768 l 244 768 l 292 1011 l 486 1011 l 436 768 l 585 768 l 633 1011 l 826 1011 l 779 768 l 871 768 l 871 581 l 741 581 l 706 410 l 871 410 l 871 222 l 669 222 l 621 -16 l 427 -16 l 475 222 l 327 222 l 278 -16 l 86 -16 l 136 222 l 41 222 l 41 410 l 172 410 m 364 410 l 513 410 l 548 581 l 400 581 l 364 410 z "},"$":{"ha":926,"x_min":37,"x_max":878,"o":"m 848 760 l 595 720 q 561 787 576 768 q 511 825 546 806 l 511 629 q 786 513 717 574 q 878 304 878 431 q 845 169 878 231 q 761 66 812 107 q 652 6 709 24 q 511 -16 594 -13 l 511 -144 l 412 -144 l 412 -16 q 250 16 312 -7 q 143 81 188 39 q 73 170 98 122 q 37 286 49 218 l 311 317 q 343 220 323 250 q 412 168 364 191 l 412 407 q 217 473 275 445 q 118 562 160 500 q 76 711 76 623 q 160 913 76 832 q 412 1003 245 994 l 412 1070 l 511 1070 l 511 1003 q 743 931 663 994 q 848 760 823 869 m 412 828 q 351 793 368 814 q 334 743 334 772 q 352 691 334 713 q 412 654 369 669 l 412 828 m 511 161 q 595 203 568 174 q 622 269 622 233 q 599 328 622 301 q 511 378 576 355 l 511 161 z "},"%":{"ha":1389,"x_min":67,"x_max":1322,"o":"m 911 1011 l 1055 1011 l 480 -51 l 338 -51 l 911 1011 m 67 750 q 97 882 67 819 q 190 978 127 944 q 336 1011 252 1011 q 533 940 461 1011 q 605 750 605 869 q 533 559 605 631 q 336 488 461 488 q 190 522 252 488 q 97 618 127 555 q 67 750 67 680 m 258 749 q 285 627 258 665 q 336 602 302 602 q 387 627 370 602 q 414 749 414 665 q 387 871 414 832 q 336 895 370 895 q 285 871 302 895 q 258 749 258 833 m 784 212 q 814 344 784 282 q 906 440 844 406 q 1053 474 968 474 q 1250 402 1178 474 q 1322 212 1322 331 q 1250 22 1322 94 q 1053 -50 1178 -50 q 906 -16 968 -50 q 814 80 844 18 q 784 212 784 142 m 975 211 q 1002 89 975 127 q 1053 64 1019 64 q 1104 89 1086 64 q 1131 211 1131 127 q 1104 334 1131 295 q 1053 358 1086 358 q 1002 333 1019 358 q 975 211 975 295 z "},"&":{"ha":1235,"x_min":104,"x_max":1178,"o":"m 886 484 l 1102 435 q 1069 340 1085 376 q 1025 255 1054 304 l 1129 184 q 1178 155 1148 172 l 1029 -16 q 945 34 989 5 q 867 83 901 62 q 723 14 795 35 q 496 -16 623 -16 q 201 66 298 -16 q 104 267 104 149 q 161 428 104 352 q 347 555 218 503 q 273 670 293 621 q 252 768 252 718 q 333 943 252 874 q 578 1011 414 1011 q 824 946 745 1011 q 903 790 903 881 q 879 692 903 739 q 821 616 854 646 q 699 530 787 587 q 850 395 772 457 q 886 484 871 437 m 569 658 q 652 721 623 687 q 681 786 681 755 q 656 840 681 818 q 589 862 632 862 q 521 838 547 862 q 494 780 494 813 q 569 658 494 738 m 471 416 q 395 348 414 376 q 376 288 376 319 q 419 199 376 238 q 530 161 462 161 q 696 218 604 161 q 471 416 608 286 z "},"'":{"ha":386,"x_min":58,"x_max":333,"o":"m 58 994 l 333 994 l 333 830 l 290 629 l 102 629 l 58 830 l 58 994 z "},"(":{"ha":541,"x_min":76,"x_max":486,"o":"m 314 1011 l 486 1011 q 358 648 397 814 q 325 345 325 506 q 486 -292 325 35 l 314 -292 q 129 45 182 -106 q 76 361 76 196 q 132 688 76 533 q 314 1011 188 842 z "},")":{"ha":541,"x_min":54,"x_max":465,"o":"m 227 1011 l 54 1011 q 182 648 143 814 q 216 345 216 506 q 54 -292 216 35 l 227 -292 q 411 45 358 -106 q 465 361 465 196 q 409 688 465 533 q 227 1011 353 842 z "},"*":{"ha":772,"x_min":120,"x_max":646,"o":"m 307 1011 l 457 1011 l 445 909 q 428 824 441 871 q 462 842 454 837 q 505 864 490 857 l 600 909 l 646 766 l 542 744 q 457 736 513 739 q 517 682 495 707 l 588 606 l 466 514 l 416 606 q 380 682 405 625 q 345 606 354 620 l 294 514 l 169 606 l 245 682 q 307 736 277 714 q 225 749 276 739 l 120 766 l 169 909 l 263 866 q 337 824 278 859 q 321 909 324 881 l 307 1011 z "},"+":{"ha":917,"x_min":86,"x_max":826,"o":"m 86 606 l 346 606 l 346 867 l 565 867 l 565 606 l 826 606 l 826 387 l 565 387 l 565 127 l 346 127 l 346 387 l 86 387 l 86 606 z "},",":{"ha":463,"x_min":84,"x_max":379,"o":"m 84 274 l 379 274 l 379 47 q 327 -151 379 -79 q 149 -279 275 -224 l 84 -159 q 192 -86 163 -122 q 225 0 222 -50 l 84 0 l 84 274 z "},"-":{"ha":463,"x_min":31,"x_max":432,"o":"m 31 469 l 432 469 l 432 256 l 31 256 l 31 469 z "},"­":{"ha":463,"x_min":31,"x_max":432,"o":"m 31 469 l 432 469 l 432 256 l 31 256 l 31 469 z "},".":{"ha":463,"x_min":84,"x_max":379,"o":"m 84 277 l 379 277 l 379 0 l 84 0 l 84 277 z "},"/":{"ha":386,"x_min":1,"x_max":390,"o":"m 249 1011 l 390 1011 l 140 -16 l 1 -16 l 249 1011 z "},":":{"ha":463,"x_min":84,"x_max":379,"o":"m 84 720 l 379 720 l 379 444 l 84 444 l 84 720 m 84 277 l 379 277 l 379 0 l 84 0 l 84 277 z "},";":{"ha":463,"x_min":84,"x_max":379,"o":"m 84 720 l 379 720 l 379 444 l 84 444 l 84 720 m 84 274 l 379 274 l 379 47 q 327 -151 379 -79 q 149 -279 275 -224 l 84 -159 q 192 -86 163 -122 q 225 0 222 -50 l 84 0 l 84 274 z "},";":{"ha":463,"x_min":84,"x_max":379,"o":"m 84 720 l 379 720 l 379 444 l 84 444 l 84 720 m 84 274 l 379 274 l 379 47 q 327 -151 379 -79 q 149 -279 275 -224 l 84 -159 q 192 -86 163 -122 q 225 0 222 -50 l 84 0 l 84 274 z "},"<":{"ha":917,"x_min":73,"x_max":844,"o":"m 844 76 l 73 397 l 73 597 l 844 918 l 844 677 l 375 496 l 844 315 l 844 76 z "},"=":{"ha":917,"x_min":85,"x_max":826,"o":"m 85 774 l 826 774 l 826 553 l 85 553 l 85 774 m 85 440 l 826 440 l 826 220 l 85 220 l 85 440 z "},">":{"ha":917,"x_min":73,"x_max":844,"o":"m 73 76 l 844 397 l 844 597 l 73 918 l 73 677 l 542 496 l 73 315 l 73 76 z "},"?":{"ha":848,"x_min":50,"x_max":799,"o":"m 532 312 l 275 312 l 275 338 q 290 445 275 404 q 334 519 304 486 q 467 639 363 553 q 522 721 522 684 q 499 779 522 758 q 433 800 477 800 q 353 768 385 800 q 313 656 321 736 l 50 689 q 155 923 63 834 q 437 1011 247 1011 q 675 949 585 1011 q 799 727 799 866 q 767 616 799 669 q 637 485 735 562 q 550 398 568 431 q 532 312 532 365 m 266 243 l 542 243 l 542 0 l 266 0 l 266 243 z "},"@":{"ha":1028,"x_min":-4,"x_max":1030,"o":"m 784 779 l 699 242 q 696 218 696 226 q 703 199 696 206 q 724 193 710 193 q 794 220 755 193 q 890 338 852 261 q 928 524 928 415 q 825 807 928 703 q 549 911 722 911 q 317 850 422 911 q 156 673 212 789 q 99 416 99 557 q 222 70 99 198 q 540 -58 345 -58 q 723 -26 635 -58 q 891 69 810 6 l 1030 69 q 924 -34 975 3 q 753 -123 850 -89 q 543 -158 655 -158 q 261 -85 386 -158 q 66 121 136 -13 q -4 417 -4 256 q 69 725 -4 587 q 262 938 142 864 q 549 1012 383 1012 q 896 876 762 1012 q 1030 526 1030 741 q 978 292 1030 398 q 825 125 926 186 q 678 77 747 77 q 612 96 637 77 q 574 157 586 115 q 491 95 528 113 q 410 77 454 77 q 255 152 320 77 q 190 368 190 227 q 273 668 190 534 q 480 802 357 802 q 565 780 528 802 q 640 702 602 758 l 652 779 l 784 779 m 332 334 q 367 209 332 254 q 433 176 393 176 q 511 213 476 176 q 573 360 547 250 q 600 559 600 471 q 571 659 600 625 q 503 693 543 693 q 425 659 458 693 q 356 515 379 614 q 332 334 332 416 z "},"A":{"ha":1080,"x_min":1,"x_max":1084,"o":"m 713 164 l 363 164 l 315 0 l 1 0 l 375 994 l 710 994 l 1084 0 l 762 0 l 713 164 m 649 379 l 539 736 l 430 379 l 649 379 z "},"B":{"ha":1080,"x_min":102,"x_max":1021,"o":"m 102 994 l 677 994 q 898 923 821 994 q 975 747 975 852 q 920 595 975 659 q 813 529 884 553 q 971 440 920 503 q 1021 283 1021 378 q 985 144 1021 205 q 887 46 949 82 q 770 14 848 24 q 633 0 667 0 l 102 0 l 102 994 m 412 604 l 546 604 q 646 629 618 604 q 674 701 674 654 q 646 768 674 744 q 548 793 618 793 l 412 793 l 412 604 m 412 214 l 569 214 q 681 242 648 214 q 713 317 713 270 q 681 388 713 361 q 568 415 649 415 l 412 415 l 412 214 z "},"C":{"ha":1080,"x_min":66,"x_max":1033,"o":"m 764 406 l 1033 325 q 947 136 1006 212 q 803 21 889 60 q 583 -18 716 -18 q 318 30 420 -18 q 140 195 215 77 q 66 499 66 314 q 197 879 66 746 q 568 1011 328 1011 q 864 935 756 1011 q 1023 702 971 859 l 752 642 q 722 708 738 687 q 659 762 696 743 q 576 781 622 781 q 416 697 471 781 q 374 501 374 635 q 424 274 374 336 q 565 213 474 213 q 698 262 653 213 q 764 406 743 312 z "},"D":{"ha":1080,"x_min":106,"x_max":1021,"o":"m 106 994 l 562 994 q 780 958 697 994 q 918 852 863 921 q 996 693 972 784 q 1021 500 1021 602 q 984 253 1021 341 q 884 106 948 165 q 745 27 819 47 q 562 0 644 0 l 106 0 l 106 994 m 413 769 l 413 226 l 488 226 q 625 247 585 226 q 689 322 666 269 q 712 494 712 375 q 661 711 712 652 q 490 769 609 769 l 413 769 z "},"E":{"ha":1003,"x_min":101,"x_max":939,"o":"m 101 994 l 924 994 l 924 782 l 409 782 l 409 624 l 887 624 l 887 421 l 409 421 l 409 225 l 939 225 l 939 0 l 101 0 l 101 994 z "},"F":{"ha":926,"x_min":103,"x_max":863,"o":"m 103 994 l 863 994 l 863 781 l 412 781 l 412 607 l 797 607 l 797 406 l 412 406 l 412 0 l 103 0 l 103 994 z "},"G":{"ha":1157,"x_min":64,"x_max":1076,"o":"m 602 360 l 602 567 l 1076 567 l 1076 143 q 835 17 940 50 q 587 -17 730 -17 q 298 43 410 -17 q 125 223 186 104 q 64 497 64 342 q 131 780 64 660 q 328 963 198 901 q 600 1011 429 1011 q 846 981 764 1011 q 982 889 928 951 q 1063 730 1036 826 l 766 677 q 704 763 748 733 q 593 793 661 793 q 432 723 492 793 q 372 500 372 652 q 432 270 372 339 q 602 201 493 201 q 700 216 653 201 q 807 267 747 231 l 807 360 l 602 360 z "},"H":{"ha":1157,"x_min":103,"x_max":1055,"o":"m 103 994 l 410 994 l 410 646 l 746 646 l 746 994 l 1055 994 l 1055 0 l 746 0 l 746 402 l 410 402 l 410 0 l 103 0 l 103 994 z "},"I":{"ha":541,"x_min":114,"x_max":422,"o":"m 114 994 l 422 994 l 422 0 l 114 0 l 114 994 z "},"J":{"ha":926,"x_min":24,"x_max":823,"o":"m 515 994 l 823 994 l 823 454 q 793 195 823 283 q 672 44 763 106 q 438 -18 581 -18 q 205 23 288 -18 q 77 142 122 64 q 24 336 32 220 l 317 376 q 329 278 318 310 q 366 227 340 246 q 416 214 383 214 q 491 252 467 214 q 515 381 515 290 l 515 994 z "},"K":{"ha":1157,"x_min":103,"x_max":1157,"o":"m 103 994 l 410 994 l 410 618 l 732 994 l 1141 994 l 779 619 l 1157 0 l 779 0 l 569 409 l 410 243 l 410 0 l 103 0 l 103 994 z "},"L":{"ha":926,"x_min":102,"x_max":888,"o":"m 102 994 l 409 994 l 409 245 l 888 245 l 888 0 l 102 0 l 102 994 z "},"M":{"ha":1311,"x_min":98,"x_max":1217,"o":"m 98 994 l 503 994 l 659 389 l 814 994 l 1217 994 l 1217 0 l 966 0 l 966 758 l 771 0 l 544 0 l 350 758 l 350 0 l 98 0 l 98 994 z "},"N":{"ha":1157,"x_min":104,"x_max":1055,"o":"m 104 994 l 391 994 l 765 444 l 765 994 l 1055 994 l 1055 0 l 765 0 l 393 546 l 393 0 l 104 0 l 104 994 z "},"O":{"ha":1157,"x_min":63,"x_max":1093,"o":"m 63 496 q 199 876 63 740 q 576 1011 334 1011 q 959 878 825 1011 q 1093 505 1093 745 q 1035 219 1093 330 q 865 45 976 107 q 589 -17 754 -17 q 310 37 420 -17 q 132 206 200 90 q 63 496 63 322 m 370 495 q 426 279 370 345 q 578 213 482 213 q 732 277 677 213 q 786 509 786 342 q 729 714 786 649 q 576 779 673 779 q 427 713 483 779 q 370 495 370 647 z "},"P":{"ha":1003,"x_min":100,"x_max":944,"o":"m 100 994 l 611 994 q 861 915 778 994 q 944 689 944 836 q 853 454 944 538 q 577 369 763 369 l 409 369 l 409 0 l 100 0 l 100 994 m 409 570 l 484 570 q 609 601 573 570 q 645 680 645 632 q 614 760 645 727 q 496 792 583 792 l 409 792 l 409 570 z "},"Q":{"ha":1157,"x_min":63,"x_max":1131,"o":"m 985 145 q 1060 95 1042 105 q 1131 60 1086 80 l 1046 -112 q 918 -38 981 -81 q 830 27 855 5 q 575 -17 728 -17 q 218 101 349 -17 q 63 494 63 241 q 198 875 63 739 q 576 1011 334 1011 q 959 878 824 1011 q 1093 498 1093 745 q 985 145 1093 277 m 749 302 q 786 499 786 368 q 730 714 786 650 q 576 779 674 779 q 427 713 484 779 q 370 507 370 647 q 426 279 370 345 q 578 213 481 213 q 637 219 610 213 q 515 290 599 256 l 564 400 q 627 382 604 393 q 715 325 650 371 q 749 302 731 314 z "},"R":{"ha":1080,"x_min":106,"x_max":1084,"o":"m 106 0 l 106 994 l 618 994 q 836 970 760 994 q 957 879 911 945 q 1003 718 1003 813 q 968 575 1003 635 q 871 478 932 515 q 763 439 831 454 q 843 402 818 420 q 892 350 860 390 q 935 288 924 310 l 1084 0 l 736 0 l 572 304 q 517 380 541 363 q 441 404 484 404 l 414 404 l 414 0 l 106 0 m 414 591 l 544 591 q 625 605 565 591 q 675 636 656 611 q 694 694 694 661 q 664 768 694 742 q 549 793 633 793 l 414 793 l 414 591 z "},"S":{"ha":1003,"x_min":48,"x_max":950,"o":"m 48 329 l 340 347 q 379 239 350 276 q 515 178 427 178 q 616 209 581 178 q 652 281 652 240 q 618 350 652 319 q 460 408 584 380 q 172 528 258 453 q 85 720 85 604 q 130 865 85 797 q 263 972 174 933 q 508 1011 353 1011 q 799 940 699 1011 q 918 715 899 869 l 628 698 q 579 795 616 765 q 477 826 543 826 q 397 803 424 826 q 370 748 370 781 q 392 705 370 724 q 495 669 414 686 q 784 581 696 625 q 910 471 871 536 q 950 323 950 405 q 897 147 950 228 q 749 25 844 66 q 510 -17 654 -17 q 159 81 256 -17 q 48 329 61 178 z "},"T":{"ha":1003,"x_min":32,"x_max":966,"o":"m 32 994 l 966 994 l 966 749 l 652 749 l 652 0 l 345 0 l 345 749 l 32 749 l 32 994 z "},"U":{"ha":1157,"x_min":102,"x_max":1055,"o":"m 749 994 l 1055 994 l 1055 401 q 1028 235 1055 313 q 942 98 1000 157 q 819 16 883 39 q 604 -18 729 -18 q 445 -7 531 -18 q 302 33 359 3 q 196 119 244 63 q 131 233 149 174 q 102 401 102 328 l 102 994 l 409 994 l 409 387 q 454 260 409 306 q 579 214 499 214 q 704 259 659 214 q 749 387 749 304 l 749 994 z "},"V":{"ha":1080,"x_min":3,"x_max":1081,"o":"m 3 994 l 325 994 l 549 279 l 769 994 l 1081 994 l 712 0 l 379 0 l 3 994 z "},"W":{"ha":1389,"x_min":-1,"x_max":1390,"o":"m -1 994 l 291 994 l 396 439 l 549 994 l 840 994 l 994 439 l 1099 994 l 1390 994 l 1171 0 l 869 0 l 695 626 l 522 0 l 220 0 l -1 994 z "},"X":{"ha":1080,"x_min":2,"x_max":1083,"o":"m 33 994 l 372 994 l 548 688 l 719 994 l 1054 994 l 745 513 l 1083 0 l 738 0 l 542 319 l 345 0 l 2 0 l 345 518 l 33 994 z "},"Y":{"ha":1080,"x_min":1,"x_max":1083,"o":"m 1 994 l 342 994 l 543 659 l 744 994 l 1083 994 l 696 416 l 696 0 l 389 0 l 389 416 l 1 994 z "},"Z":{"ha":1003,"x_min":23,"x_max":966,"o":"m 77 994 l 946 994 l 946 795 l 389 214 l 966 214 l 966 0 l 23 0 l 23 206 l 574 782 l 77 782 l 77 994 z "},"[":{"ha":541,"x_min":92,"x_max":509,"o":"m 92 994 l 509 994 l 509 780 l 344 780 l 344 -62 l 509 -62 l 509 -276 l 92 -276 l 92 994 z "},"\\":{"ha":386,"x_min":-4,"x_max":385,"o":"m 137 1011 l -4 1011 l 245 -16 l 385 -16 l 137 1011 z "},"]":{"ha":541,"x_min":32,"x_max":449,"o":"m 449 994 l 32 994 l 32 780 l 197 780 l 197 -62 l 32 -62 l 32 -276 l 449 -276 l 449 994 z "},"^":{"ha":917,"x_min":85,"x_max":827,"o":"m 361 1011 l 551 1011 l 827 460 l 588 460 l 457 793 l 325 460 l 85 460 l 361 1011 z "},"_":{"ha":694,"x_min":-8,"x_max":703,"o":"m -8 -104 l 703 -104 l 703 -174 l -8 -174 l -8 -104 z "},"`":{"ha":463,"x_min":1,"x_max":347,"o":"m 1 1011 l 236 1011 l 347 809 l 217 809 l 1 1011 z "},"a":{"ha":926,"x_min":50,"x_max":879,"o":"m 335 487 l 71 515 q 114 624 86 584 q 195 692 142 663 q 300 725 233 713 q 444 736 366 736 q 643 723 568 736 q 768 665 718 709 q 824 578 804 634 q 844 471 844 522 l 844 153 q 851 74 844 102 q 879 0 857 45 l 620 0 q 600 42 604 28 q 590 88 595 57 q 482 14 536 36 q 312 -16 409 -16 q 116 43 183 -16 q 50 191 50 103 q 98 326 50 273 q 275 404 146 378 q 477 448 431 435 q 574 481 523 460 q 553 552 574 532 q 479 572 532 572 q 378 551 412 572 q 335 487 351 534 m 574 342 q 456 306 517 321 q 349 262 372 283 q 326 211 326 239 q 349 158 326 178 q 416 137 372 137 q 502 159 462 137 q 558 214 541 182 q 574 298 574 246 l 574 342 z "},"b":{"ha":926,"x_min":85,"x_max":878,"o":"m 85 994 l 363 994 l 363 650 q 457 715 405 693 q 574 736 510 736 q 791 642 705 736 q 878 370 878 547 q 838 162 878 252 q 729 28 799 73 q 575 -16 660 -16 q 442 15 503 -16 q 343 106 397 39 l 343 0 l 85 0 l 85 994 m 361 362 q 396 228 361 269 q 485 186 431 186 q 568 227 534 186 q 602 365 602 268 q 569 490 602 450 q 489 530 536 530 q 397 489 433 530 q 361 362 361 447 z "},"c":{"ha":926,"x_min":50,"x_max":883,"o":"m 621 281 l 883 252 q 812 110 861 170 q 685 16 762 50 q 490 -17 608 -17 q 299 4 375 -17 q 168 74 222 26 q 81 186 113 121 q 50 357 50 250 q 88 542 50 468 q 164 639 116 596 q 263 703 212 682 q 470 736 344 736 q 739 673 646 736 q 869 489 831 610 l 609 454 q 565 524 597 500 q 478 547 532 547 q 367 498 410 547 q 325 349 325 449 q 367 214 325 260 q 474 168 409 168 q 565 196 528 168 q 621 281 602 224 z "},"d":{"ha":926,"x_min":49,"x_max":842,"o":"m 842 994 l 842 0 l 583 0 l 583 106 q 484 15 529 39 q 351 -16 425 -16 q 126 96 204 -16 q 49 368 49 208 q 135 642 49 547 q 353 736 220 736 q 470 715 417 736 q 563 650 522 693 l 563 994 l 842 994 m 565 362 q 529 489 565 447 q 438 530 493 530 q 357 490 390 530 q 325 356 325 450 q 358 227 325 268 q 441 186 392 186 q 530 227 494 186 q 565 362 565 269 z "},"e":{"ha":926,"x_min":49,"x_max":883,"o":"m 883 292 l 330 292 q 366 193 337 225 q 470 146 406 146 q 547 166 511 146 q 595 212 570 179 l 867 186 q 717 31 805 78 q 464 -16 629 -16 q 239 24 321 -16 q 103 152 157 64 q 49 359 49 240 q 157 632 49 528 q 456 736 265 736 q 700 690 610 736 q 836 554 789 643 q 883 323 883 465 l 883 292 m 602 424 q 559 538 594 504 q 467 573 524 573 q 362 521 401 573 q 330 424 337 488 l 602 424 z "},"f":{"ha":541,"x_min":11,"x_max":581,"o":"m 391 720 l 522 720 l 522 518 l 391 518 l 391 0 l 114 0 l 114 518 l 11 518 l 11 720 l 114 720 l 114 753 q 123 850 114 797 q 159 936 133 903 q 232 990 185 970 q 370 1011 279 1011 q 581 994 443 1011 l 551 827 q 471 836 501 836 q 417 823 433 836 q 394 783 401 810 q 391 720 391 768 z "},"g":{"ha":926,"x_min":50,"x_max":844,"o":"m 585 720 l 843 720 l 843 40 l 844 8 q 815 -121 844 -60 q 738 -220 786 -182 q 617 -275 690 -258 q 448 -292 543 -292 q 150 -227 231 -292 q 69 -53 69 -162 q 71 -16 69 -39 l 338 -47 q 370 -98 349 -84 q 446 -119 400 -119 q 535 -87 506 -119 q 565 24 565 -56 l 565 133 q 484 63 524 85 q 346 29 420 29 q 113 155 201 29 q 50 392 50 245 q 131 648 50 560 q 344 736 212 736 q 483 708 428 736 q 585 614 537 680 l 585 720 m 325 371 q 358 255 325 293 q 446 218 391 218 q 532 257 497 218 q 567 374 567 296 q 530 495 567 453 q 441 536 494 536 q 356 498 388 536 q 325 371 325 460 z "},"h":{"ha":926,"x_min":83,"x_max":845,"o":"m 83 994 l 359 994 l 359 628 q 471 711 416 686 q 603 736 527 736 q 780 668 715 736 q 845 458 845 600 l 845 0 l 568 0 l 568 396 q 543 492 568 464 q 472 520 517 520 q 391 482 422 520 q 359 346 359 444 l 359 0 l 83 0 l 83 994 z "},"i":{"ha":463,"x_min":94,"x_max":370,"o":"m 94 994 l 370 994 l 370 806 l 94 806 l 94 994 m 94 720 l 370 720 l 370 0 l 94 0 l 94 720 z "},"j":{"ha":463,"x_min":-68,"x_max":371,"o":"m 94 994 l 371 994 l 371 804 l 94 804 l 94 994 m 94 720 l 371 720 l 371 22 q 352 -168 371 -112 q 280 -258 332 -223 q 131 -292 228 -292 q -68 -269 51 -292 l -26 -68 q 22 -75 7 -75 q 76 -51 58 -75 q 94 45 94 -26 l 94 720 z "},"k":{"ha":926,"x_min":83,"x_max":926,"o":"m 83 994 l 366 994 l 366 481 l 572 720 l 911 720 l 653 468 l 926 0 l 615 0 l 469 289 l 366 187 l 366 0 l 83 0 l 83 994 z "},"l":{"ha":463,"x_min":93,"x_max":370,"o":"m 93 994 l 370 994 l 370 0 l 93 0 l 93 994 z "},"m":{"ha":1389,"x_min":85,"x_max":1308,"o":"m 85 720 l 343 720 l 343 615 q 455 709 399 681 q 592 736 512 736 q 728 706 678 736 q 810 615 779 675 q 929 711 876 686 q 1061 736 983 736 q 1242 668 1177 736 q 1308 452 1308 599 l 1308 0 l 1031 0 l 1031 410 q 1012 483 1031 459 q 943 520 984 520 q 864 485 894 520 q 834 372 834 450 l 834 0 l 557 0 l 557 397 q 552 461 557 444 q 522 505 543 488 q 471 522 500 522 q 393 486 423 522 q 362 368 362 450 l 362 0 l 85 0 l 85 720 z "},"n":{"ha":926,"x_min":83,"x_max":845,"o":"m 83 720 l 340 720 l 340 603 q 457 706 398 675 q 601 736 516 736 q 780 668 715 736 q 845 458 845 600 l 845 0 l 568 0 l 568 396 q 543 492 568 464 q 472 520 517 520 q 391 482 422 520 q 359 346 359 444 l 359 0 l 83 0 l 83 720 z "},"o":{"ha":926,"x_min":50,"x_max":877,"o":"m 50 358 q 161 630 50 523 q 461 736 272 736 q 788 611 677 736 q 877 362 877 510 q 767 90 877 196 q 462 -16 656 -16 q 181 72 288 -16 q 50 358 50 181 m 326 359 q 365 216 326 262 q 463 170 404 170 q 561 216 523 170 q 600 361 600 261 q 561 501 600 455 q 465 547 522 547 q 366 500 405 547 q 326 359 326 454 z "},"p":{"ha":926,"x_min":85,"x_max":878,"o":"m 85 -274 l 85 720 l 343 720 l 343 614 q 441 705 397 681 q 575 736 502 736 q 799 626 720 736 q 878 353 878 515 q 791 78 878 173 q 574 -16 705 -16 q 457 5 510 -16 q 363 70 405 27 l 363 -274 l 85 -274 m 361 358 q 397 231 361 273 q 488 190 433 190 q 569 230 536 190 q 602 364 602 269 q 568 493 602 452 q 485 534 534 534 q 397 492 432 534 q 361 358 361 451 z "},"q":{"ha":926,"x_min":49,"x_max":842,"o":"m 842 -274 l 563 -274 l 563 70 q 470 5 522 27 q 353 -16 417 -16 q 135 78 221 -16 q 49 349 49 173 q 88 557 49 467 q 197 692 127 648 q 351 736 267 736 q 485 705 424 736 q 583 614 530 681 l 583 720 l 842 720 l 842 -274 m 565 358 q 530 492 565 451 q 441 534 495 534 q 358 493 392 534 q 325 355 325 452 q 358 230 325 269 q 438 190 391 190 q 529 231 494 190 q 565 358 565 273 z "},"r":{"ha":616,"x_min":86,"x_max":653,"o":"m 86 720 l 345 720 l 345 602 q 421 708 382 679 q 519 736 461 736 q 653 699 581 736 l 568 502 q 490 522 519 522 q 406 477 436 522 q 363 241 363 414 l 363 0 l 86 0 l 86 720 z "},"s":{"ha":848,"x_min":35,"x_max":800,"o":"m 35 199 l 309 225 q 356 155 326 176 q 437 134 387 134 q 524 158 493 134 q 547 202 547 176 q 516 248 547 232 q 397 277 494 260 q 198 323 254 302 q 103 395 142 345 q 65 511 65 446 q 106 634 65 583 q 220 711 148 686 q 415 736 293 736 q 605 717 544 736 q 708 656 667 697 q 776 544 749 614 l 514 518 q 480 569 504 553 q 401 591 448 591 q 333 574 355 591 q 312 534 312 557 q 339 494 312 507 q 457 469 366 480 q 662 426 595 454 q 765 347 729 398 q 800 233 800 295 q 763 112 800 171 q 644 18 725 53 q 423 -17 563 -17 q 142 39 226 -17 q 35 199 58 96 z "},"t":{"ha":616,"x_min":38,"x_max":578,"o":"m 416 994 l 416 720 l 568 720 l 568 519 l 416 519 l 416 263 q 425 202 416 217 q 473 179 439 179 q 558 197 503 179 l 578 6 q 387 -16 476 -16 q 235 10 284 -16 q 163 91 186 37 q 140 265 140 144 l 140 519 l 38 519 l 38 720 l 140 720 l 140 852 l 416 994 z "},"u":{"ha":926,"x_min":81,"x_max":842,"o":"m 842 0 l 585 0 l 585 117 q 468 14 527 45 q 324 -16 410 -16 q 145 52 210 -16 q 81 262 81 120 l 81 720 l 358 720 l 358 324 q 383 228 358 256 q 454 199 408 199 q 535 237 503 199 q 566 374 566 275 l 566 720 l 842 720 l 842 0 z "},"v":{"ha":848,"x_min":1,"x_max":852,"o":"m 1 720 l 289 720 l 429 264 l 573 720 l 852 720 l 546 0 l 301 0 l 1 720 z "},"w":{"ha":1311,"x_min":2,"x_max":1314,"o":"m 2 720 l 269 720 l 385 267 l 532 720 l 781 720 l 932 267 l 1048 720 l 1314 720 l 1048 0 l 803 0 l 657 433 l 516 0 l 269 0 l 2 720 z "},"x":{"ha":926,"x_min":7,"x_max":918,"o":"m 21 720 l 349 720 l 463 519 l 596 720 l 901 720 l 655 377 l 918 0 l 596 0 l 463 232 l 307 0 l 7 0 l 269 377 l 21 720 z "},"y":{"ha":848,"x_min":3,"x_max":853,"o":"m 3 720 l 295 720 l 444 241 l 581 720 l 853 720 l 568 -50 q 468 -227 519 -181 q 249 -292 396 -292 q 64 -276 189 -292 l 43 -83 q 176 -102 102 -102 q 255 -80 224 -102 q 306 0 285 -58 l 3 720 z "},"z":{"ha":772,"x_min":25,"x_max":743,"o":"m 52 720 l 720 720 l 720 559 l 357 189 l 743 189 l 743 0 l 25 0 l 25 179 l 370 532 l 52 532 l 52 720 z "},"{":{"ha":541,"x_min":18,"x_max":525,"o":"m 525 1011 l 525 789 l 494 789 q 430 771 452 789 q 400 715 409 753 q 395 604 395 695 q 376 460 394 513 q 337 396 362 420 q 275 359 318 378 q 342 315 320 338 q 380 246 364 292 q 395 98 395 199 q 405 -22 395 6 q 436 -61 414 -50 q 525 -73 458 -73 l 525 -292 l 439 -292 q 252 -263 307 -292 q 172 -179 196 -235 q 149 -14 149 -124 q 150 35 149 11 q 151 66 151 50 q 136 178 151 144 q 95 226 122 211 q 18 242 68 241 l 18 475 q 96 491 70 475 q 136 541 122 507 q 149 654 149 574 l 149 677 q 149 709 149 693 q 169 882 149 829 q 224 964 189 936 q 296 997 250 986 q 433 1011 356 1011 l 525 1011 z "},"|":{"ha":386,"x_min":109,"x_max":281,"o":"m 109 994 l 281 994 l 281 -274 l 109 -274 l 109 994 z "},"}":{"ha":541,"x_min":16,"x_max":523,"o":"m 16 1011 l 16 789 l 46 789 q 110 771 89 789 q 140 715 132 753 q 146 604 145 695 q 165 460 146 513 q 203 396 178 420 q 266 359 222 378 q 198 315 220 338 q 161 246 176 292 q 145 98 145 199 q 136 -22 145 6 q 104 -61 126 -50 q 16 -73 82 -73 l 16 -292 l 101 -292 q 289 -263 233 -292 q 368 -179 345 -235 q 392 -14 392 -124 q 391 35 392 11 q 390 66 390 50 q 404 178 390 144 q 445 226 418 211 q 523 242 472 241 l 523 475 q 445 491 471 475 q 405 541 418 507 q 391 654 391 574 l 391 677 q 392 709 392 693 q 372 882 392 829 q 317 964 352 936 q 245 997 290 986 q 107 1011 184 1011 l 16 1011 z "},"~":{"ha":917,"x_min":67,"x_max":845,"o":"m 845 659 l 845 438 q 719 355 767 376 q 619 334 671 334 q 540 345 580 334 q 416 399 500 357 q 283 442 332 442 q 67 334 178 442 l 67 557 q 185 637 130 613 q 305 661 240 661 q 375 650 338 661 q 483 605 412 640 q 583 562 553 570 q 640 553 613 553 q 845 659 730 553 z "},"Ä":{"ha":1080,"x_min":1,"x_max":1084,"o":"m 713 164 l 363 164 l 315 0 l 1 0 l 375 994 l 710 994 l 1084 0 l 762 0 l 713 164 m 649 379 l 539 736 l 430 379 l 649 379 m 308 1227 l 484 1227 l 484 1057 l 308 1057 l 308 1227 m 595 1227 l 774 1227 l 774 1057 l 595 1057 l 595 1227 z "},"Å":{"ha":1080,"x_min":1,"x_max":1084,"o":"m 398 994 q 376 1076 376 1032 q 424 1192 376 1143 q 539 1240 472 1240 q 655 1192 607 1240 q 703 1076 703 1144 q 680 994 703 1032 l 710 994 l 1084 0 l 762 0 l 710 164 l 367 164 l 315 0 l 1 0 l 375 994 l 398 994 m 469 1077 q 490 1027 469 1047 q 539 1006 510 1006 q 588 1027 568 1006 q 608 1076 608 1047 q 588 1126 608 1105 q 539 1146 568 1146 q 490 1126 510 1146 q 469 1077 469 1105 m 641 391 l 539 720 l 438 391 l 641 391 z "},"Ç":{"ha":1080,"x_min":66,"x_max":1033,"o":"m 764 406 l 1033 325 q 947 136 1006 212 q 803 21 889 60 q 583 -18 716 -18 q 318 30 420 -18 q 140 195 215 77 q 66 499 66 314 q 197 879 66 746 q 568 1011 328 1011 q 864 935 756 1011 q 1023 702 971 859 l 752 642 q 722 708 738 687 q 659 762 696 743 q 576 781 622 781 q 416 697 471 781 q 374 501 374 635 q 424 274 374 336 q 565 213 474 213 q 698 262 653 213 q 764 406 743 312 m 388 -112 l 408 -32 q 528 -16 472 -16 q 688 -56 644 -16 q 732 -149 732 -95 q 712 -216 732 -181 q 640 -271 692 -250 q 503 -292 589 -292 q 321 -275 426 -292 l 321 -191 q 471 -205 392 -205 q 550 -189 530 -205 q 571 -149 571 -174 q 554 -115 571 -129 q 501 -100 537 -100 q 388 -112 453 -100 z "},"É":{"ha":1003,"x_min":101,"x_max":939,"o":"m 101 994 l 924 994 l 924 782 l 409 782 l 409 624 l 887 624 l 887 421 l 409 421 l 409 225 l 939 225 l 939 0 l 101 0 l 101 994 m 495 1257 l 732 1257 l 513 1055 l 381 1055 l 495 1257 z "},"Ñ":{"ha":1157,"x_min":104,"x_max":1055,"o":"m 104 994 l 391 994 l 765 444 l 765 994 l 1055 994 l 1055 0 l 765 0 l 393 546 l 393 0 l 104 0 l 104 994 m 715 1240 l 823 1240 q 823 1210 823 1223 q 785 1093 823 1135 q 688 1052 747 1052 q 556 1088 644 1052 q 482 1109 503 1109 q 452 1097 463 1109 q 440 1054 441 1085 l 334 1054 q 334 1082 334 1070 q 374 1198 334 1155 q 469 1240 414 1240 q 513 1235 492 1240 q 591 1206 534 1230 q 673 1182 648 1182 q 703 1195 692 1182 q 715 1240 714 1207 z "},"Ö":{"ha":1157,"x_min":63,"x_max":1093,"o":"m 63 496 q 199 876 63 740 q 576 1011 334 1011 q 959 878 825 1011 q 1093 505 1093 745 q 1035 219 1093 330 q 865 45 976 107 q 589 -17 754 -17 q 310 37 420 -17 q 132 206 200 90 q 63 496 63 322 m 370 495 q 426 279 370 345 q 578 213 482 213 q 732 277 677 213 q 786 509 786 342 q 729 714 786 649 q 576 779 673 779 q 427 713 483 779 q 370 495 370 647 m 346 1227 l 522 1227 l 522 1057 l 346 1057 l 346 1227 m 633 1227 l 812 1227 l 812 1057 l 633 1057 l 633 1227 z "},"Ü":{"ha":1157,"x_min":102,"x_max":1055,"o":"m 749 994 l 1055 994 l 1055 401 q 1028 235 1055 313 q 942 98 1000 157 q 819 16 883 39 q 604 -18 729 -18 q 445 -7 531 -18 q 302 33 359 3 q 196 119 244 63 q 131 233 149 174 q 102 401 102 328 l 102 994 l 409 994 l 409 387 q 454 260 409 306 q 579 214 499 214 q 704 259 659 214 q 749 387 749 304 l 749 994 m 346 1227 l 522 1227 l 522 1057 l 346 1057 l 346 1227 m 633 1227 l 812 1227 l 812 1057 l 633 1057 l 633 1227 z "},"á":{"ha":926,"x_min":50,"x_max":879,"o":"m 335 487 l 71 515 q 114 624 86 584 q 195 692 142 663 q 300 725 233 713 q 444 736 366 736 q 643 723 568 736 q 768 665 718 709 q 824 578 804 634 q 844 471 844 522 l 844 153 q 851 74 844 102 q 879 0 857 45 l 620 0 q 600 42 604 28 q 590 88 595 57 q 482 14 536 36 q 312 -16 409 -16 q 116 43 183 -16 q 50 191 50 103 q 98 326 50 273 q 275 404 146 378 q 477 448 431 435 q 574 481 523 460 q 553 552 574 532 q 479 572 532 572 q 378 551 412 572 q 335 487 351 534 m 574 342 q 456 306 517 321 q 349 262 372 283 q 326 211 326 239 q 349 158 326 178 q 416 137 372 137 q 502 159 462 137 q 558 214 541 182 q 574 298 574 246 l 574 342 m 456 1011 l 694 1011 l 475 808 l 342 808 l 456 1011 z "},"à":{"ha":926,"x_min":50,"x_max":879,"o":"m 335 487 l 71 515 q 114 624 86 584 q 195 692 142 663 q 300 725 233 713 q 444 736 366 736 q 643 723 568 736 q 768 665 718 709 q 824 578 804 634 q 844 471 844 522 l 844 153 q 851 74 844 102 q 879 0 857 45 l 620 0 q 600 42 604 28 q 590 88 595 57 q 482 14 536 36 q 312 -16 409 -16 q 116 43 183 -16 q 50 191 50 103 q 98 326 50 273 q 275 404 146 378 q 477 448 431 435 q 574 481 523 460 q 553 552 574 532 q 479 572 532 572 q 378 551 412 572 q 335 487 351 534 m 574 342 q 456 306 517 321 q 349 262 372 283 q 326 211 326 239 q 349 158 326 178 q 416 137 372 137 q 502 159 462 137 q 558 214 541 182 q 574 298 574 246 l 574 342 m 233 1011 l 468 1011 l 579 809 l 449 809 l 233 1011 z "},"â":{"ha":926,"x_min":50,"x_max":879,"o":"m 335 487 l 71 515 q 114 624 86 584 q 195 692 142 663 q 300 725 233 713 q 444 736 366 736 q 643 723 568 736 q 768 665 718 709 q 824 578 804 634 q 844 471 844 522 l 844 153 q 851 74 844 102 q 879 0 857 45 l 620 0 q 600 42 604 28 q 590 88 595 57 q 482 14 536 36 q 312 -16 409 -16 q 116 43 183 -16 q 50 191 50 103 q 98 326 50 273 q 275 404 146 378 q 477 448 431 435 q 574 481 523 460 q 553 552 574 532 q 479 572 532 572 q 378 551 412 572 q 335 487 351 534 m 574 342 q 456 306 517 321 q 349 262 372 283 q 326 211 326 239 q 349 158 326 178 q 416 137 372 137 q 502 159 462 137 q 558 214 541 182 q 574 298 574 246 l 574 342 m 368 1002 l 564 1002 l 715 808 l 547 808 l 464 912 l 381 808 l 213 808 l 368 1002 z "},"ä":{"ha":926,"x_min":50,"x_max":879,"o":"m 335 487 l 71 515 q 114 624 86 584 q 195 692 142 663 q 300 725 233 713 q 444 736 366 736 q 643 723 568 736 q 768 665 718 709 q 824 578 804 634 q 844 471 844 522 l 844 153 q 851 74 844 102 q 879 0 857 45 l 620 0 q 600 42 604 28 q 590 88 595 57 q 482 14 536 36 q 312 -16 409 -16 q 116 43 183 -16 q 50 191 50 103 q 98 326 50 273 q 275 404 146 378 q 477 448 431 435 q 574 481 523 460 q 553 552 574 532 q 479 572 532 572 q 378 551 412 572 q 335 487 351 534 m 574 342 q 456 306 517 321 q 349 262 372 283 q 326 211 326 239 q 349 158 326 178 q 416 137 372 137 q 502 159 462 137 q 558 214 541 182 q 574 298 574 246 l 574 342 m 231 981 l 407 981 l 407 811 l 231 811 l 231 981 m 518 981 l 696 981 l 696 811 l 518 811 l 518 981 z "},"ã":{"ha":926,"x_min":50,"x_max":879,"o":"m 335 487 l 71 515 q 114 624 86 584 q 195 692 142 663 q 300 725 233 713 q 444 736 366 736 q 643 723 568 736 q 768 665 718 709 q 824 578 804 634 q 844 471 844 522 l 844 153 q 851 74 844 102 q 879 0 857 45 l 620 0 q 600 42 604 28 q 590 88 595 57 q 482 14 536 36 q 312 -16 409 -16 q 116 43 183 -16 q 50 191 50 103 q 98 326 50 273 q 275 404 146 378 q 477 448 431 435 q 574 481 523 460 q 553 552 574 532 q 479 572 532 572 q 378 551 412 572 q 335 487 351 534 m 574 342 q 456 306 517 321 q 349 262 372 283 q 326 211 326 239 q 349 158 326 178 q 416 137 372 137 q 502 159 462 137 q 558 214 541 182 q 574 298 574 246 l 574 342 m 600 994 l 707 994 q 708 964 708 977 q 670 847 708 888 q 572 806 632 806 q 441 842 529 806 q 367 863 387 863 q 336 851 347 863 q 325 808 326 839 l 219 808 q 218 836 218 824 q 258 951 218 909 q 353 994 298 994 q 398 989 377 994 q 476 960 419 983 q 558 936 532 936 q 588 948 576 936 q 600 994 599 961 z "},"å":{"ha":926,"x_min":50,"x_max":879,"o":"m 335 487 l 71 515 q 114 624 86 584 q 195 692 142 663 q 300 725 233 713 q 444 736 366 736 q 643 723 568 736 q 768 665 718 709 q 824 578 804 634 q 844 471 844 522 l 844 153 q 851 74 844 102 q 879 0 857 45 l 620 0 q 600 42 604 28 q 590 88 595 57 q 482 14 536 36 q 312 -16 409 -16 q 116 43 183 -16 q 50 191 50 103 q 98 326 50 273 q 275 404 146 378 q 477 448 431 435 q 574 481 523 460 q 553 552 574 532 q 479 572 532 572 q 378 551 412 572 q 335 487 351 534 m 574 342 q 456 306 517 321 q 349 262 372 283 q 326 211 326 239 q 349 158 326 178 q 416 137 372 137 q 502 159 462 137 q 558 214 541 182 q 574 298 574 246 l 574 342 m 626 951 q 578 836 626 884 q 463 789 530 789 q 348 836 395 789 q 300 951 300 884 q 348 1067 300 1019 q 463 1115 395 1115 q 578 1067 530 1115 q 626 951 626 1019 m 532 952 q 512 1002 532 981 q 463 1022 492 1022 q 413 1002 433 1022 q 393 952 393 981 q 413 903 393 923 q 463 882 433 882 q 512 903 492 882 q 532 952 532 923 z "},"ç":{"ha":926,"x_min":50,"x_max":883,"o":"m 621 281 l 883 252 q 812 110 861 170 q 685 16 762 50 q 490 -17 608 -17 q 299 4 375 -17 q 168 74 222 26 q 81 186 113 121 q 50 357 50 250 q 88 542 50 468 q 164 639 116 596 q 263 703 212 682 q 470 736 344 736 q 739 673 646 736 q 869 489 831 610 l 609 454 q 565 524 597 500 q 478 547 532 547 q 367 498 410 547 q 325 349 325 449 q 367 214 325 260 q 474 168 409 168 q 565 196 528 168 q 621 281 602 224 m 311 -112 l 331 -32 q 450 -16 395 -16 q 610 -56 566 -16 q 654 -149 654 -95 q 634 -216 654 -181 q 563 -271 614 -250 q 426 -292 511 -292 q 244 -275 349 -292 l 244 -191 q 394 -205 315 -205 q 473 -189 452 -205 q 494 -149 494 -174 q 477 -115 494 -129 q 424 -100 460 -100 q 311 -112 376 -100 z "},"é":{"ha":926,"x_min":49,"x_max":883,"o":"m 883 292 l 330 292 q 366 193 337 225 q 470 146 406 146 q 547 166 511 146 q 595 212 570 179 l 867 186 q 717 31 805 78 q 464 -16 629 -16 q 239 24 321 -16 q 103 152 157 64 q 49 359 49 240 q 157 632 49 528 q 456 736 265 736 q 700 690 610 736 q 836 554 789 643 q 883 323 883 465 l 883 292 m 602 424 q 559 538 594 504 q 467 573 524 573 q 362 521 401 573 q 330 424 337 488 l 602 424 m 456 1011 l 694 1011 l 475 808 l 342 808 l 456 1011 z "},"è":{"ha":926,"x_min":49,"x_max":883,"o":"m 883 292 l 330 292 q 366 193 337 225 q 470 146 406 146 q 547 166 511 146 q 595 212 570 179 l 867 186 q 717 31 805 78 q 464 -16 629 -16 q 239 24 321 -16 q 103 152 157 64 q 49 359 49 240 q 157 632 49 528 q 456 736 265 736 q 700 690 610 736 q 836 554 789 643 q 883 323 883 465 l 883 292 m 602 424 q 559 538 594 504 q 467 573 524 573 q 362 521 401 573 q 330 424 337 488 l 602 424 m 233 1011 l 468 1011 l 579 809 l 449 809 l 233 1011 z "},"ê":{"ha":926,"x_min":49,"x_max":883,"o":"m 883 292 l 330 292 q 366 193 337 225 q 470 146 406 146 q 547 166 511 146 q 595 212 570 179 l 867 186 q 717 31 805 78 q 464 -16 629 -16 q 239 24 321 -16 q 103 152 157 64 q 49 359 49 240 q 157 632 49 528 q 456 736 265 736 q 700 690 610 736 q 836 554 789 643 q 883 323 883 465 l 883 292 m 602 424 q 559 538 594 504 q 467 573 524 573 q 362 521 401 573 q 330 424 337 488 l 602 424 m 368 1002 l 564 1002 l 715 808 l 547 808 l 464 912 l 381 808 l 213 808 l 368 1002 z "},"ë":{"ha":926,"x_min":49,"x_max":883,"o":"m 883 292 l 330 292 q 366 193 337 225 q 470 146 406 146 q 547 166 511 146 q 595 212 570 179 l 867 186 q 717 31 805 78 q 464 -16 629 -16 q 239 24 321 -16 q 103 152 157 64 q 49 359 49 240 q 157 632 49 528 q 456 736 265 736 q 700 690 610 736 q 836 554 789 643 q 883 323 883 465 l 883 292 m 602 424 q 559 538 594 504 q 467 573 524 573 q 362 521 401 573 q 330 424 337 488 l 602 424 m 231 981 l 407 981 l 407 811 l 231 811 l 231 981 m 518 981 l 696 981 l 696 811 l 518 811 l 518 981 z "},"í":{"ha":463,"x_min":94,"x_max":462,"o":"m 94 720 l 370 720 l 370 0 l 94 0 l 94 720 m 224 1011 l 462 1011 l 243 808 l 111 808 l 224 1011 z "},"ì":{"ha":463,"x_min":1,"x_max":370,"o":"m 94 720 l 370 720 l 370 0 l 94 0 l 94 720 m 1 1011 l 236 1011 l 347 809 l 217 809 l 1 1011 z "},"î":{"ha":463,"x_min":-19,"x_max":483,"o":"m 94 720 l 370 720 l 370 0 l 94 0 l 94 720 m 136 1002 l 332 1002 l 483 808 l 315 808 l 232 912 l 149 808 l -19 808 l 136 1002 z "},"ï":{"ha":463,"x_min":-1,"x_max":465,"o":"m 94 720 l 370 720 l 370 0 l 94 0 l 94 720 m -1 981 l 175 981 l 175 811 l -1 811 l -1 981 m 286 981 l 465 981 l 465 811 l 286 811 l 286 981 z "},"ñ":{"ha":926,"x_min":83,"x_max":845,"o":"m 83 720 l 340 720 l 340 603 q 457 706 398 675 q 601 736 516 736 q 780 668 715 736 q 845 458 845 600 l 845 0 l 568 0 l 568 396 q 543 492 568 464 q 472 520 517 520 q 391 482 422 520 q 359 346 359 444 l 359 0 l 83 0 l 83 720 m 600 994 l 707 994 q 708 964 708 977 q 670 847 708 888 q 572 806 632 806 q 441 842 529 806 q 367 863 387 863 q 336 851 347 863 q 325 808 326 839 l 219 808 q 218 836 218 824 q 258 951 218 909 q 353 994 298 994 q 398 989 377 994 q 476 960 419 983 q 558 936 532 936 q 588 948 576 936 q 600 994 599 961 z "},"ó":{"ha":926,"x_min":50,"x_max":877,"o":"m 50 358 q 161 630 50 523 q 461 736 272 736 q 788 611 677 736 q 877 362 877 510 q 767 90 877 196 q 462 -16 656 -16 q 181 72 288 -16 q 50 358 50 181 m 326 359 q 365 216 326 262 q 463 170 404 170 q 561 216 523 170 q 600 361 600 261 q 561 501 600 455 q 465 547 522 547 q 366 500 405 547 q 326 359 326 454 m 456 1011 l 694 1011 l 475 808 l 342 808 l 456 1011 z "},"ò":{"ha":926,"x_min":50,"x_max":877,"o":"m 50 358 q 161 630 50 523 q 461 736 272 736 q 788 611 677 736 q 877 362 877 510 q 767 90 877 196 q 462 -16 656 -16 q 181 72 288 -16 q 50 358 50 181 m 326 359 q 365 216 326 262 q 463 170 404 170 q 561 216 523 170 q 600 361 600 261 q 561 501 600 455 q 465 547 522 547 q 366 500 405 547 q 326 359 326 454 m 233 1011 l 468 1011 l 579 809 l 449 809 l 233 1011 z "},"ô":{"ha":926,"x_min":50,"x_max":877,"o":"m 50 358 q 161 630 50 523 q 461 736 272 736 q 788 611 677 736 q 877 362 877 510 q 767 90 877 196 q 462 -16 656 -16 q 181 72 288 -16 q 50 358 50 181 m 326 359 q 365 216 326 262 q 463 170 404 170 q 561 216 523 170 q 600 361 600 261 q 561 501 600 455 q 465 547 522 547 q 366 500 405 547 q 326 359 326 454 m 368 1002 l 564 1002 l 715 808 l 547 808 l 464 912 l 381 808 l 213 808 l 368 1002 z "},"ö":{"ha":926,"x_min":50,"x_max":877,"o":"m 50 358 q 161 630 50 523 q 461 736 272 736 q 788 611 677 736 q 877 362 877 510 q 767 90 877 196 q 462 -16 656 -16 q 181 72 288 -16 q 50 358 50 181 m 326 359 q 365 216 326 262 q 463 170 404 170 q 561 216 523 170 q 600 361 600 261 q 561 501 600 455 q 465 547 522 547 q 366 500 405 547 q 326 359 326 454 m 231 981 l 407 981 l 407 811 l 231 811 l 231 981 m 518 981 l 696 981 l 696 811 l 518 811 l 518 981 z "},"õ":{"ha":926,"x_min":50,"x_max":877,"o":"m 50 358 q 161 630 50 523 q 461 736 272 736 q 788 611 677 736 q 877 362 877 510 q 767 90 877 196 q 462 -16 656 -16 q 181 72 288 -16 q 50 358 50 181 m 326 359 q 365 216 326 262 q 463 170 404 170 q 561 216 523 170 q 600 361 600 261 q 561 501 600 455 q 465 547 522 547 q 366 500 405 547 q 326 359 326 454 m 600 994 l 707 994 q 708 964 708 977 q 670 847 708 888 q 572 806 632 806 q 441 842 529 806 q 367 863 387 863 q 336 851 347 863 q 325 808 326 839 l 219 808 q 218 836 218 824 q 258 951 218 909 q 353 994 298 994 q 398 989 377 994 q 476 960 419 983 q 558 936 532 936 q 588 948 576 936 q 600 994 599 961 z "},"ú":{"ha":926,"x_min":81,"x_max":842,"o":"m 842 0 l 585 0 l 585 117 q 468 14 527 45 q 324 -16 410 -16 q 145 52 210 -16 q 81 262 81 120 l 81 720 l 358 720 l 358 324 q 383 228 358 256 q 454 199 408 199 q 535 237 503 199 q 566 374 566 275 l 566 720 l 842 720 l 842 0 m 456 1011 l 694 1011 l 475 808 l 342 808 l 456 1011 z "},"ù":{"ha":926,"x_min":81,"x_max":842,"o":"m 842 0 l 585 0 l 585 117 q 468 14 527 45 q 324 -16 410 -16 q 145 52 210 -16 q 81 262 81 120 l 81 720 l 358 720 l 358 324 q 383 228 358 256 q 454 199 408 199 q 535 237 503 199 q 566 374 566 275 l 566 720 l 842 720 l 842 0 m 233 1011 l 468 1011 l 579 809 l 449 809 l 233 1011 z "},"û":{"ha":926,"x_min":81,"x_max":842,"o":"m 842 0 l 585 0 l 585 117 q 468 14 527 45 q 324 -16 410 -16 q 145 52 210 -16 q 81 262 81 120 l 81 720 l 358 720 l 358 324 q 383 228 358 256 q 454 199 408 199 q 535 237 503 199 q 566 374 566 275 l 566 720 l 842 720 l 842 0 m 368 1002 l 564 1002 l 715 808 l 547 808 l 464 912 l 381 808 l 213 808 l 368 1002 z "},"ü":{"ha":926,"x_min":81,"x_max":842,"o":"m 842 0 l 585 0 l 585 117 q 468 14 527 45 q 324 -16 410 -16 q 145 52 210 -16 q 81 262 81 120 l 81 720 l 358 720 l 358 324 q 383 228 358 256 q 454 199 408 199 q 535 237 503 199 q 566 374 566 275 l 566 720 l 842 720 l 842 0 m 231 981 l 407 981 l 407 811 l 231 811 l 231 981 m 518 981 l 696 981 l 696 811 l 518 811 l 518 981 z "},"†":{"ha":926,"x_min":96,"x_max":839,"o":"m 347 994 l 585 994 l 585 736 l 839 736 l 839 536 l 585 536 l 585 -276 l 347 -276 l 347 536 l 96 536 l 96 736 l 347 736 l 347 994 z "},"°":{"ha":555,"x_min":81,"x_max":469,"o":"m 469 818 q 412 681 469 738 q 275 624 355 624 q 138 681 195 624 q 81 818 81 738 q 138 955 81 899 q 275 1012 195 1012 q 412 955 355 1012 q 469 818 469 899 m 343 819 q 323 867 343 847 q 275 888 303 888 q 226 867 246 888 q 205 819 205 847 q 226 770 205 790 q 275 750 246 750 q 323 770 303 750 q 343 819 343 790 z "},"¢":{"ha":926,"x_min":50,"x_max":883,"o":"m 632 279 l 883 252 q 842 144 869 184 q 708 25 794 71 q 505 -22 623 -22 q 383 -16 474 -22 l 296 -264 l 207 -233 l 290 5 q 115 131 180 40 q 50 359 50 221 q 159 636 50 531 q 444 742 268 742 q 545 736 470 742 l 632 981 l 720 949 l 638 720 q 751 665 707 699 q 825 587 795 631 q 869 490 847 553 l 623 456 q 604 502 613 488 q 574 534 595 515 l 443 158 q 481 155 467 155 q 574 187 534 155 q 632 279 615 219 m 359 203 l 482 562 q 469 562 473 562 q 361 514 409 562 q 313 343 313 465 q 322 263 313 292 q 359 203 332 234 z "},"£":{"ha":926,"x_min":77,"x_max":920,"o":"m 458 573 l 664 573 l 664 411 l 482 411 q 461 307 479 353 q 414 234 447 272 q 479 243 452 243 q 569 229 513 243 q 690 212 645 212 q 755 218 728 212 q 827 245 783 224 l 920 43 q 802 -4 852 9 q 692 -17 751 -17 q 547 5 629 -17 q 413 40 439 35 q 357 45 387 45 q 164 -17 270 45 l 77 176 q 219 380 219 278 q 218 411 219 386 l 77 411 l 77 573 l 178 573 q 149 677 152 663 q 144 730 144 699 q 190 883 144 815 q 308 981 235 950 q 507 1011 382 1011 q 691 985 623 1011 q 807 898 760 959 q 871 751 854 838 l 612 711 q 567 807 593 783 q 509 831 542 831 q 446 805 470 831 q 421 732 421 779 q 426 683 421 707 q 458 573 431 660 z "},"§":{"ha":926,"x_min":44,"x_max":873,"o":"m 821 786 l 562 756 q 527 811 549 795 q 466 827 504 827 q 399 810 420 827 q 378 765 378 792 q 397 724 378 742 q 556 648 431 693 q 804 520 734 583 q 873 355 873 457 q 847 247 873 296 q 762 146 821 197 q 815 67 798 107 q 832 -24 832 27 q 796 -157 832 -95 q 682 -255 760 -218 q 472 -292 604 -292 q 322 -278 388 -292 q 215 -239 257 -264 q 145 -181 172 -214 q 104 -118 117 -148 q 79 -36 90 -87 l 334 -9 q 390 -82 359 -59 q 467 -105 421 -105 q 537 -83 513 -105 q 560 -30 560 -62 q 532 25 560 -3 q 325 130 494 63 q 100 262 157 197 q 44 402 44 328 q 74 510 44 460 q 178 610 104 559 q 127 685 143 648 q 112 767 112 722 q 139 874 112 825 q 211 951 167 922 q 300 994 255 981 q 459 1011 362 1011 q 653 988 589 1011 q 758 916 717 964 q 821 786 798 867 m 302 518 q 267 443 267 471 q 279 412 267 425 q 372 357 298 391 l 633 239 q 664 313 664 286 q 646 353 664 336 q 489 433 619 379 q 302 518 359 487 z "},"•":{"ha":694,"x_min":122,"x_max":572,"o":"m 572 489 q 507 330 572 396 q 347 264 441 264 q 188 330 254 264 q 122 489 122 396 q 188 648 122 583 q 347 714 254 714 q 507 648 441 714 q 572 489 572 583 z "},"¶":{"ha":1181,"x_min":92,"x_max":1097,"o":"m 1097 994 l 1097 779 l 1008 779 l 1008 -276 l 806 -276 l 806 779 l 693 779 l 693 -276 l 492 -276 l 492 417 l 445 417 q 239 451 308 417 q 131 554 170 484 q 92 712 92 625 q 178 921 92 848 q 437 994 265 994 l 1097 994 z "},"ß":{"ha":926,"x_min":81,"x_max":878,"o":"m 81 0 l 81 690 q 116 853 81 777 q 232 970 151 930 q 448 1011 313 1011 q 685 952 612 1011 q 758 809 758 894 q 718 674 758 753 q 678 570 678 595 q 687 535 678 552 q 726 492 696 519 q 852 334 814 411 q 878 213 878 279 q 810 48 878 113 q 631 -16 743 -16 q 487 12 548 -16 q 397 85 441 34 l 555 179 q 602 149 579 149 q 642 165 626 149 q 657 203 657 180 q 638 252 657 224 q 517 379 620 279 q 443 471 464 431 q 429 529 429 496 q 469 648 429 569 q 509 767 509 727 q 489 818 509 798 q 434 838 468 838 q 370 806 395 838 q 345 695 345 775 l 345 0 l 81 0 z "},"®":{"ha":1111,"x_min":39,"x_max":1075,"o":"m 1075 494 q 1005 235 1075 355 q 816 45 936 115 q 557 -24 696 -24 q 298 45 418 -24 q 109 235 178 115 q 39 494 39 355 q 109 752 39 632 q 298 942 178 873 q 557 1011 418 1011 q 816 942 696 1011 q 1005 752 936 873 q 1075 494 1075 632 m 975 494 q 852 789 975 667 q 557 911 730 911 q 261 789 384 911 q 139 494 139 667 q 261 198 139 321 q 557 76 384 76 q 852 198 730 76 q 975 494 975 321 m 322 770 l 570 770 q 722 728 675 770 q 769 614 769 686 q 733 518 769 559 q 620 459 697 477 q 667 433 652 447 q 711 377 688 414 q 800 217 712 374 l 637 217 q 531 406 558 375 q 477 437 504 437 q 460 435 471 437 l 460 217 l 322 217 l 322 770 m 460 536 l 519 536 q 604 555 579 536 q 628 605 628 574 q 605 655 628 635 q 525 674 581 674 l 460 674 l 460 536 z "},"©":{"ha":1111,"x_min":39,"x_max":1075,"o":"m 1075 494 q 1005 235 1075 355 q 816 45 936 115 q 557 -24 696 -24 q 298 45 418 -24 q 109 235 178 115 q 39 494 39 355 q 109 752 39 632 q 298 942 178 873 q 557 1011 418 1011 q 816 942 696 1011 q 1005 752 936 873 q 1075 494 1075 632 m 975 494 q 852 789 975 667 q 557 911 730 911 q 261 789 384 911 q 139 494 139 667 q 261 198 139 321 q 557 76 384 76 q 852 198 730 76 q 975 494 975 321 m 677 430 l 817 397 q 746 271 791 315 q 560 202 675 202 q 357 282 435 202 q 278 495 278 363 q 359 702 278 621 q 561 784 439 784 q 726 732 659 784 q 811 597 793 680 l 677 576 q 633 658 665 631 q 555 685 601 685 q 466 640 502 685 q 430 498 430 595 q 454 360 430 401 q 556 300 490 300 q 630 331 597 300 q 677 430 663 361 z "},"™":{"ha":1320,"x_min":24,"x_max":1265,"o":"m 24 994 l 568 994 l 568 863 l 374 863 l 374 441 l 215 441 l 215 863 l 24 863 l 24 994 m 631 994 l 873 994 l 949 692 l 1030 994 l 1265 994 l 1265 441 l 1115 441 l 1115 832 l 1011 441 l 886 441 l 783 832 l 783 441 l 631 441 l 631 994 z "},"´":{"ha":463,"x_min":111,"x_max":462,"o":"m 224 1011 l 462 1011 l 243 808 l 111 808 l 224 1011 z "},"¨":{"ha":463,"x_min":-1,"x_max":465,"o":"m -1 981 l 175 981 l 175 811 l -1 811 l -1 981 m 286 981 l 465 981 l 465 811 l 286 811 l 286 981 z "},"≠":{"ha":917,"x_min":66,"x_max":844,"o":"m 66 774 l 470 774 l 607 1123 l 794 1123 l 658 774 l 844 774 l 844 554 l 574 554 l 528 440 l 844 440 l 844 220 l 442 220 l 304 -130 l 115 -130 l 253 220 l 66 220 l 66 440 l 340 440 l 384 554 l 66 554 l 66 774 z "},"Æ":{"ha":1389,"x_min":-52,"x_max":1339,"o":"m 377 994 l 1326 994 l 1326 782 l 907 782 l 907 624 l 1289 624 l 1289 421 l 907 421 l 907 225 l 1339 225 l 1339 0 l 618 0 l 618 178 l 323 178 l 258 0 l -52 0 l 377 994 m 550 793 l 407 405 l 618 405 l 618 793 l 550 793 z "},"Ø":{"ha":1157,"x_min":24,"x_max":1133,"o":"m 913 917 l 1031 1028 l 1133 919 l 1016 808 q 1072 671 1052 753 q 1093 498 1093 589 q 1030 212 1093 324 q 857 41 967 100 q 579 -17 747 -17 q 366 14 460 -17 q 245 78 304 33 l 126 -35 l 24 73 l 143 186 q 62 494 62 312 q 198 875 62 739 q 574 1011 333 1011 q 913 917 787 1011 m 715 729 q 575 779 664 779 q 426 713 482 779 q 370 500 370 648 q 376 408 370 454 l 715 729 m 780 584 l 440 262 q 578 213 490 213 q 731 277 676 213 q 785 498 785 340 q 780 584 785 541 z "},"∞":{"ha":810,"x_min":13,"x_max":799,"o":"m 372 579 q 474 697 422 661 q 591 734 526 734 q 740 670 680 734 q 799 497 799 607 q 740 324 799 387 q 591 260 680 260 q 475 296 527 260 q 372 415 422 332 q 278 328 331 358 q 177 298 225 298 q 61 352 109 298 q 13 497 13 405 q 61 642 13 589 q 177 695 109 695 q 278 665 225 695 q 372 579 331 635 m 435 498 q 498 407 480 429 q 541 373 517 386 q 593 361 565 361 q 672 401 644 361 q 700 500 700 441 q 669 599 700 564 q 595 634 639 634 q 523 608 558 634 q 435 498 488 581 m 313 500 q 184 595 245 595 q 131 570 153 595 q 108 500 108 545 q 130 429 108 454 q 184 403 153 403 q 232 417 211 403 q 313 500 269 441 z "},"±":{"ha":917,"x_min":86,"x_max":826,"o":"m 86 727 l 346 727 l 346 980 l 565 980 l 565 727 l 826 727 l 826 513 l 565 513 l 565 272 l 346 272 l 346 513 l 86 513 l 86 727 m 86 208 l 826 208 l 826 0 l 86 0 l 86 208 z "},"≤":{"ha":917,"x_min":66,"x_max":846,"o":"m 846 185 l 66 504 l 66 703 l 846 1025 l 846 788 l 369 604 l 846 422 l 846 185 m 66 136 l 846 136 l 846 -84 l 66 -84 l 66 136 z "},"≥":{"ha":917,"x_min":71,"x_max":850,"o":"m 71 185 l 850 504 l 850 703 l 71 1025 l 71 788 l 548 604 l 71 422 l 71 185 m 850 136 l 71 136 l 71 -84 l 850 -84 l 850 136 z "},"¥":{"ha":926,"x_min":-1,"x_max":928,"o":"m -1 994 l 309 994 l 464 656 l 617 994 l 928 994 l 691 566 l 892 566 l 892 416 l 607 416 l 607 334 l 892 334 l 892 182 l 607 182 l 607 0 l 325 0 l 325 182 l 35 182 l 35 334 l 325 334 l 325 416 l 35 416 l 35 566 l 242 566 l -1 994 z "},"µ":{"ha":926,"x_min":81,"x_max":844,"o":"m 81 720 l 358 720 l 358 358 q 378 252 358 281 q 465 208 408 208 q 543 248 517 208 q 568 366 568 288 l 568 720 l 844 720 l 844 0 l 585 0 l 585 57 q 541 5 562 19 q 473 -16 508 -16 q 404 3 440 -16 q 358 52 380 16 l 358 -273 l 81 -273 l 81 720 z "},"∂":{"ha":694,"x_min":58,"x_max":663,"o":"m 256 780 l 227 780 q 324 926 262 879 q 463 972 385 972 q 614 903 566 972 q 663 706 663 834 q 591 285 663 462 q 429 37 519 109 q 272 -16 363 -16 q 157 11 206 -16 q 83 91 109 38 q 58 199 58 143 q 99 370 58 287 q 202 513 141 453 q 328 603 263 573 q 456 633 393 633 q 616 532 567 633 q 621 618 621 587 q 543 798 621 734 q 409 837 494 837 q 320 823 354 837 q 256 780 286 810 m 605 469 q 544 569 582 538 q 460 599 507 599 q 368 557 412 599 q 270 380 309 503 q 231 144 231 256 q 252 54 231 78 q 312 30 272 30 q 448 109 379 30 q 605 469 560 241 z "},"∑":{"ha":990,"x_min":29,"x_max":963,"o":"m 920 -292 l 29 -292 l 29 -268 l 483 364 l 29 986 l 29 1011 l 896 1011 l 914 783 l 887 783 q 834 917 876 876 q 718 957 793 957 l 216 957 l 597 422 l 171 -173 l 726 -173 q 829 -154 773 -173 q 893 -109 868 -142 q 936 -5 919 -76 l 963 -11 l 920 -292 z "},"∏":{"ha":1143,"x_min":31,"x_max":1112,"o":"m 841 958 l 302 958 l 302 -162 q 327 -243 302 -218 q 412 -267 352 -267 l 436 -267 l 436 -292 l 31 -292 l 31 -267 l 55 -267 q 140 -243 115 -267 q 165 -162 165 -218 l 165 881 q 140 962 165 937 q 55 986 115 986 l 31 986 l 31 1011 l 1112 1011 l 1112 986 l 1088 986 q 1004 962 1029 986 q 979 881 979 937 l 979 -162 q 1004 -243 979 -218 q 1088 -267 1029 -267 l 1112 -267 l 1112 -292 l 707 -292 l 707 -267 l 731 -267 q 816 -243 791 -267 q 841 -162 841 -218 l 841 958 z "},"∫":{"ha":376,"x_min":-2,"x_max":378,"o":"m 134 643 l 146 1015 q 168 1141 153 1091 q 199 1212 183 1192 q 241 1248 214 1233 q 293 1263 268 1263 q 352 1241 327 1263 q 378 1191 378 1218 q 360 1140 378 1159 q 315 1120 342 1120 q 264 1145 292 1120 q 237 1158 248 1158 q 217 1148 225 1158 q 210 1115 210 1139 q 216 1017 210 1086 q 241 566 241 739 q 231 209 241 520 q 218 35 228 98 q 182 -83 204 -47 q 135 -134 161 -119 q 78 -149 109 -149 q 20 -126 43 -149 q -2 -67 -2 -103 q 15 -18 -2 -37 q 59 0 33 0 q 106 -22 86 0 q 139 -43 125 -43 q 158 -34 151 -43 q 165 -2 165 -24 q 159 79 165 26 q 134 643 134 293 z "},"ª":{"ha":555,"x_min":22,"x_max":516,"o":"m 516 516 l 368 516 q 352 562 358 537 q 291 521 321 532 q 193 505 249 505 q 65 545 109 505 q 22 650 22 585 q 58 746 22 710 q 210 803 94 782 q 339 836 281 815 q 324 889 339 874 q 271 903 309 903 q 218 892 235 903 q 193 850 201 880 l 43 880 q 79 955 56 928 q 141 997 103 983 q 254 1011 179 1011 q 446 973 398 1011 q 492 850 492 935 l 492 622 q 497 561 492 580 q 516 516 501 541 m 339 743 q 256 721 300 730 q 197 698 212 713 q 180 663 180 683 q 198 622 180 638 q 246 606 216 606 q 314 633 289 606 q 339 717 339 660 l 339 743 z "},"º":{"ha":555,"x_min":16,"x_max":534,"o":"m 16 758 q 45 883 16 822 q 135 977 74 943 q 280 1011 196 1011 q 466 941 397 1011 q 534 755 534 871 q 465 574 534 644 q 281 504 395 504 q 130 541 191 504 q 42 639 68 578 q 16 758 16 700 m 184 758 q 213 649 184 684 q 279 622 235 622 q 342 653 317 622 q 368 758 368 684 q 342 864 368 832 q 276 895 317 895 q 209 864 235 895 q 184 758 184 832 z "},"Ω":{"ha":1186,"x_min":98,"x_max":1098,"o":"m 374 140 q 248 216 295 173 q 146 362 180 277 q 113 550 113 448 q 242 890 113 760 q 587 1019 372 1019 q 851 966 745 1019 q 1021 800 958 912 q 1084 551 1084 688 q 1021 307 1084 414 q 825 141 958 199 l 1049 157 l 1098 157 l 1098 0 l 663 0 l 663 165 q 766 236 728 197 q 844 368 818 290 q 870 532 870 446 q 792 785 870 699 q 594 871 715 871 q 401 783 479 871 q 323 535 323 695 q 353 363 323 443 q 437 229 382 284 q 535 165 473 194 l 535 0 l 98 0 l 98 156 l 164 156 l 374 140 z "},"æ":{"ha":1389,"x_min":47,"x_max":1350,"o":"m 1350 292 l 827 292 q 859 195 834 227 q 956 147 896 147 q 1015 162 990 147 q 1063 215 1040 178 l 1333 191 q 1191 36 1278 89 q 958 -16 1103 -16 q 765 16 846 -16 q 648 98 704 41 q 489 10 564 37 q 323 -16 414 -16 q 116 42 185 -16 q 47 193 47 100 q 68 281 47 240 q 123 347 90 323 q 219 397 168 379 q 335 422 243 405 q 454 447 427 440 q 559 479 499 458 q 537 553 558 533 q 462 572 517 572 q 376 552 404 572 q 336 486 347 531 l 71 517 q 117 625 90 589 q 226 706 153 675 q 433 737 300 737 q 610 718 541 737 q 719 666 659 705 q 832 721 781 705 q 954 736 884 736 q 1133 707 1058 736 q 1255 626 1208 677 q 1323 524 1303 574 q 1350 338 1350 456 l 1350 292 m 1074 425 q 1039 533 1069 494 q 954 572 1008 572 q 870 536 905 572 q 825 425 835 501 l 1074 425 m 559 344 l 475 316 q 446 309 458 311 q 352 270 379 296 q 326 216 326 244 q 348 163 326 185 q 407 142 370 142 q 484 161 444 142 q 544 218 523 180 q 559 292 559 246 l 559 344 z "},"ø":{"ha":926,"x_min":50,"x_max":876,"o":"m 782 784 l 852 720 l 768 628 q 846 517 815 589 q 876 361 876 445 q 767 90 876 195 q 470 -16 658 -16 q 335 -3 393 -16 q 234 35 295 5 l 144 -66 l 73 0 l 159 92 q 75 216 101 153 q 50 357 50 278 q 160 630 50 523 q 457 736 271 736 q 593 722 533 736 q 692 683 633 713 l 782 784 m 557 532 q 524 556 538 551 q 465 567 498 567 q 352 514 396 567 q 307 354 307 462 q 319 269 307 318 l 557 532 m 370 183 q 406 160 392 165 q 466 151 433 151 q 575 203 532 151 q 618 368 618 256 q 607 448 618 403 l 370 183 z "},"¿":{"ha":848,"x_min":50,"x_max":799,"o":"m 316 408 l 574 408 l 574 382 q 559 276 574 317 q 514 201 544 235 q 382 81 485 167 q 327 -1 327 37 q 349 -59 327 -38 q 416 -79 371 -79 q 495 -47 464 -79 q 536 64 527 -16 l 799 31 q 693 -202 785 -114 q 412 -291 602 -291 q 173 -229 264 -291 q 50 -7 50 -146 q 81 104 50 51 q 212 235 113 158 q 298 322 280 290 q 316 408 316 355 m 583 477 l 307 477 l 307 720 l 583 720 l 583 477 z "},"¡":{"ha":463,"x_min":84,"x_max":379,"o":"m 84 -274 l 379 -274 l 379 -47 l 322 408 l 140 408 l 84 -47 l 84 -274 m 94 477 l 370 477 l 370 720 l 94 720 l 94 477 z "},"¬":{"ha":917,"x_min":85,"x_max":826,"o":"m 85 768 l 826 768 l 826 214 l 605 214 l 605 548 l 85 548 l 85 768 z "},"√":{"ha":762,"x_min":57,"x_max":762,"o":"m 712 1267 l 762 1267 l 551 -53 l 214 640 l 80 578 l 57 621 l 261 724 l 536 165 l 712 1267 z "},"ƒ":{"ha":926,"x_min":25,"x_max":905,"o":"m 669 677 l 803 677 l 760 481 l 628 481 l 500 -117 q 424 -248 482 -203 q 257 -292 365 -292 q 25 -252 157 -292 l 75 -76 q 179 -100 144 -100 q 220 -86 205 -100 q 247 -16 235 -71 l 353 481 l 223 481 l 263 677 l 395 677 l 426 822 q 465 922 437 880 q 545 988 492 965 q 671 1011 597 1011 q 905 969 784 1011 l 856 791 q 752 818 793 818 q 710 802 726 818 q 680 726 695 786 l 669 677 z "},"≈":{"ha":917,"x_min":67,"x_max":845,"o":"m 845 823 l 845 602 q 719 518 767 539 q 619 498 671 498 q 540 509 580 498 q 416 564 500 521 q 283 606 332 606 q 67 497 178 606 l 67 720 q 185 800 130 777 q 305 824 240 824 q 375 813 338 824 q 483 768 412 803 q 583 725 553 734 q 640 717 613 717 q 845 823 730 717 m 845 496 l 845 275 q 719 191 767 212 q 619 170 671 170 q 540 182 580 170 q 416 236 500 193 q 283 279 332 279 q 67 170 178 279 l 67 393 q 185 473 130 450 q 305 496 240 496 q 375 486 338 496 q 483 441 412 475 q 583 398 553 407 q 640 389 613 389 q 845 496 730 389 z "},"∆":{"ha":850,"x_min":18,"x_max":831,"o":"m 831 0 l 18 0 l 444 941 l 831 0 m 671 56 l 401 711 l 102 56 l 671 56 z "},"«":{"ha":926,"x_min":64,"x_max":844,"o":"m 632 675 l 844 675 l 656 361 l 844 48 l 632 48 l 416 361 l 632 675 m 281 675 l 492 675 l 304 361 l 492 48 l 281 48 l 64 361 l 281 675 z "},"»":{"ha":926,"x_min":82,"x_max":862,"o":"m 294 675 l 82 675 l 270 361 l 82 48 l 294 48 l 510 361 l 294 675 m 646 675 l 434 675 l 622 361 l 434 48 l 646 48 l 862 361 l 646 675 z "},"…":{"ha":1389,"x_min":84,"x_max":1305,"o":"m 84 277 l 379 277 l 379 0 l 84 0 l 84 277 m 547 277 l 842 277 l 842 0 l 547 0 l 547 277 m 1010 277 l 1305 277 l 1305 0 l 1010 0 l 1010 277 z "}," ":{"ha":463,"x_min":0,"x_max":0,"o":""},"À":{"ha":1080,"x_min":1,"x_max":1084,"o":"m 713 164 l 363 164 l 315 0 l 1 0 l 375 994 l 710 994 l 1084 0 l 762 0 l 713 164 m 649 379 l 539 736 l 430 379 l 649 379 m 310 1257 l 545 1257 l 656 1055 l 526 1055 l 310 1257 z "},"Ã":{"ha":1080,"x_min":1,"x_max":1084,"o":"m 713 164 l 363 164 l 315 0 l 1 0 l 375 994 l 710 994 l 1084 0 l 762 0 l 713 164 m 649 379 l 539 736 l 430 379 l 649 379 m 677 1240 l 785 1240 q 785 1210 785 1223 q 747 1093 785 1135 q 650 1052 709 1052 q 518 1088 606 1052 q 444 1109 465 1109 q 414 1097 425 1109 q 402 1054 403 1085 l 296 1054 q 296 1082 296 1070 q 336 1198 296 1155 q 431 1240 376 1240 q 475 1235 454 1240 q 553 1206 496 1230 q 635 1182 610 1182 q 665 1195 654 1182 q 677 1240 676 1207 z "},"Õ":{"ha":1157,"x_min":63,"x_max":1093,"o":"m 63 496 q 199 876 63 740 q 576 1011 334 1011 q 959 878 825 1011 q 1093 505 1093 745 q 1035 219 1093 330 q 865 45 976 107 q 589 -17 754 -17 q 310 37 420 -17 q 132 206 200 90 q 63 496 63 322 m 370 495 q 426 279 370 345 q 578 213 482 213 q 732 277 677 213 q 786 509 786 342 q 729 714 786 649 q 576 779 673 779 q 427 713 483 779 q 370 495 370 647 m 715 1240 l 823 1240 q 823 1210 823 1223 q 785 1093 823 1135 q 688 1052 747 1052 q 556 1088 644 1052 q 482 1109 503 1109 q 452 1097 463 1109 q 440 1054 441 1085 l 334 1054 q 334 1082 334 1070 q 374 1198 334 1155 q 469 1240 414 1240 q 513 1235 492 1240 q 591 1206 534 1230 q 673 1182 648 1182 q 703 1195 692 1182 q 715 1240 714 1207 z "},"Œ":{"ha":1389,"x_min":48,"x_max":1345,"o":"m 687 994 l 1325 994 l 1325 782 l 958 782 l 958 624 l 1287 624 l 1287 421 l 958 421 l 958 225 l 1345 225 l 1345 0 l 687 0 l 687 110 q 593 19 644 47 q 433 -18 527 -18 q 168 96 264 -18 q 48 494 48 237 q 165 893 48 753 q 420 1011 264 1011 q 573 980 511 1011 q 687 889 636 949 l 687 994 m 503 783 q 411 751 452 783 q 354 665 370 719 q 338 479 338 612 q 360 314 338 368 q 422 235 381 261 q 503 208 463 208 q 586 237 544 208 q 647 319 628 266 q 666 507 666 372 q 648 671 666 616 q 590 754 630 725 q 503 783 549 783 z "},"œ":{"ha":1389,"x_min":40,"x_max":1351,"o":"m 1350 296 l 825 296 q 865 182 831 216 q 951 148 898 148 q 1013 163 987 148 q 1063 214 1038 179 l 1329 190 q 1188 36 1283 89 q 962 -16 1093 -16 q 681 64 797 -16 q 558 2 614 20 q 434 -16 502 -16 q 149 92 258 -16 q 40 368 40 200 q 176 661 40 555 q 430 736 273 736 q 564 718 506 736 q 692 653 623 700 q 819 716 755 695 q 962 736 882 736 q 1247 632 1143 736 q 1351 343 1351 528 q 1350 296 1351 328 m 1074 427 q 1034 539 1065 507 q 951 572 1003 572 q 866 538 901 572 q 823 427 832 504 l 1074 427 m 316 368 q 346 227 316 268 q 431 185 375 185 q 519 224 488 185 q 551 377 551 264 q 519 510 551 471 q 441 549 488 549 q 349 510 382 549 q 316 368 316 471 z "},"–":{"ha":694,"x_min":-8,"x_max":703,"o":"m -8 438 l 703 438 l 703 288 l -8 288 l -8 438 z "},"—":{"ha":1389,"x_min":-8,"x_max":1397,"o":"m -8 438 l 1397 438 l 1397 288 l -8 288 l -8 438 z "},"“":{"ha":694,"x_min":37,"x_max":676,"o":"m 332 458 l 37 458 l 37 685 q 90 883 37 810 q 269 1011 142 956 l 332 890 q 224 818 254 854 q 191 732 195 781 l 332 732 l 332 458 m 676 458 l 381 458 l 381 685 q 433 883 381 810 q 612 1011 486 956 l 676 890 q 568 818 598 854 q 535 732 538 781 l 676 732 l 676 458 z "},"”":{"ha":694,"x_min":37,"x_max":676,"o":"m 37 1011 l 332 1011 l 332 784 q 280 586 332 659 q 102 458 228 513 l 37 578 q 145 651 116 615 q 178 737 175 688 l 37 737 l 37 1011 m 381 1011 l 676 1011 l 676 784 q 624 586 676 659 q 446 458 572 513 l 381 578 q 489 651 460 615 q 522 737 519 688 l 381 737 l 381 1011 z "},"‘":{"ha":386,"x_min":47,"x_max":342,"o":"m 342 458 l 47 458 l 47 685 q 100 883 47 810 q 279 1011 152 956 l 342 890 q 235 818 264 854 q 201 732 205 781 l 342 732 l 342 458 z "},"’":{"ha":386,"x_min":47,"x_max":342,"o":"m 47 1011 l 342 1011 l 342 784 q 290 586 342 659 q 112 458 238 513 l 47 578 q 156 651 126 615 q 189 737 185 688 l 47 737 l 47 1011 z "},"÷":{"ha":917,"x_min":86,"x_max":826,"o":"m 319 920 l 591 920 l 591 669 l 319 669 l 319 920 m 86 608 l 826 608 l 826 387 l 86 387 l 86 608 m 319 324 l 591 324 l 591 71 l 319 71 l 319 324 z "},"◊":{"ha":686,"x_min":32,"x_max":656,"o":"m 372 964 l 656 481 l 372 0 l 297 0 l 32 481 l 297 964 l 372 964 m 336 899 l 105 481 l 336 64 l 579 481 l 336 899 z "},"ÿ":{"ha":848,"x_min":3,"x_max":853,"o":"m 3 720 l 295 720 l 444 241 l 581 720 l 853 720 l 568 -50 q 468 -227 519 -181 q 249 -292 396 -292 q 64 -276 189 -292 l 43 -83 q 176 -102 102 -102 q 255 -80 224 -102 q 306 0 285 -58 l 3 720 m 192 981 l 368 981 l 368 811 l 192 811 l 192 981 m 479 981 l 658 981 l 658 811 l 479 811 l 479 981 z "},"Ÿ":{"ha":1080,"x_min":1,"x_max":1083,"o":"m 1 994 l 342 994 l 543 659 l 744 994 l 1083 994 l 696 416 l 696 0 l 389 0 l 389 416 l 1 994 m 308 1227 l 484 1227 l 484 1057 l 308 1057 l 308 1227 m 595 1227 l 774 1227 l 774 1057 l 595 1057 l 595 1227 z "},"⁄":{"ha":232,"x_min":-269,"x_max":500,"o":"m 355 1011 l 500 1011 l -125 -36 l -269 -36 l 355 1011 z "},"∕":{"ha":232,"x_min":-269,"x_max":500,"o":"m 355 1011 l 500 1011 l -125 -36 l -269 -36 l 355 1011 z "},"€":{"ha":926,"x_min":12,"x_max":890,"o":"m 677 464 l 648 340 l 443 340 q 616 214 483 214 q 890 309 763 214 l 890 56 q 635 -17 785 -17 q 277 94 393 -17 q 135 340 161 204 l 12 340 l 45 464 l 119 464 q 118 500 118 474 q 119 539 118 527 l 29 539 l 61 663 l 135 663 q 619 1011 223 1011 q 882 942 749 1011 l 821 696 q 628 781 728 781 q 450 663 496 781 l 694 663 l 665 539 l 427 539 q 425 500 425 526 l 425 464 l 677 464 z "},"‹":{"ha":463,"x_min":16,"x_max":444,"o":"m 232 675 l 444 675 l 256 361 l 444 48 l 232 48 l 16 361 l 232 675 z "},"›":{"ha":463,"x_min":19,"x_max":447,"o":"m 231 675 l 19 675 l 207 361 l 19 48 l 231 48 l 447 361 l 231 675 z "},"ﬁ":{"ha":926,"x_min":14,"x_max":842,"o":"m 354 720 l 477 720 l 477 518 l 354 518 l 354 0 l 103 0 l 103 518 l 14 518 l 14 720 l 103 720 l 103 753 q 112 848 103 793 q 149 938 121 903 q 226 992 177 972 q 345 1011 275 1011 q 536 996 397 1011 l 506 829 q 436 836 457 836 q 373 816 391 836 q 354 736 354 795 l 354 720 m 591 994 l 842 994 l 842 806 l 591 806 l 591 994 m 591 720 l 842 720 l 842 0 l 591 0 l 591 720 z "},"ﬂ":{"ha":926,"x_min":14,"x_max":842,"o":"m 354 720 l 477 720 l 477 518 l 354 518 l 354 0 l 103 0 l 103 518 l 14 518 l 14 720 l 103 720 l 103 753 q 112 848 103 793 q 149 938 121 903 q 226 992 177 972 q 345 1011 275 1011 q 536 996 397 1011 l 506 829 q 436 836 457 836 q 373 816 391 836 q 354 736 354 795 l 354 720 m 591 994 l 842 994 l 842 0 l 591 0 l 591 994 z "},"‡":{"ha":926,"x_min":96,"x_max":839,"o":"m 347 994 l 585 994 l 585 768 l 839 768 l 839 566 l 585 566 l 585 151 l 839 151 l 839 -50 l 585 -50 l 585 -276 l 347 -276 l 347 -50 l 96 -50 l 96 151 l 347 151 l 347 566 l 96 566 l 96 768 l 347 768 l 347 994 z "},"∙":{"ha":463,"x_min":84,"x_max":379,"o":"m 84 635 l 379 635 l 379 359 l 84 359 l 84 635 z "},"‚":{"ha":386,"x_min":47,"x_max":342,"o":"m 47 274 l 342 274 l 342 47 q 290 -151 342 -79 q 112 -279 238 -224 l 47 -159 q 156 -86 126 -122 q 189 0 185 -50 l 47 0 l 47 274 z "},"„":{"ha":694,"x_min":37,"x_max":676,"o":"m 37 274 l 332 274 l 332 47 q 280 -151 332 -79 q 102 -279 228 -224 l 37 -159 q 145 -86 116 -122 q 178 0 175 -50 l 37 0 l 37 274 m 381 274 l 676 274 l 676 47 q 624 -151 676 -79 q 446 -279 572 -224 l 381 -159 q 489 -86 460 -122 q 522 0 519 -50 l 381 0 l 381 274 z "},"‰":{"ha":1389,"x_min":0,"x_max":1389,"o":"m 0 749 q 57 948 0 885 q 205 1011 113 1011 q 355 948 298 1011 q 412 757 412 886 q 355 551 412 614 q 205 488 298 488 q 57 551 113 488 q 0 749 0 614 m 143 749 q 161 622 143 649 q 205 595 178 595 q 250 622 232 595 q 267 749 267 649 q 250 877 267 850 q 205 904 232 904 q 161 877 178 904 q 143 749 143 850 m 593 1011 l 715 1011 l 327 -50 l 206 -50 l 593 1011 m 504 212 q 561 410 504 347 q 709 473 617 473 q 859 410 802 473 q 916 218 916 347 q 859 13 916 77 q 709 -50 802 -50 q 561 13 617 -50 q 504 212 504 77 m 647 211 q 665 83 647 111 q 709 56 682 56 q 753 83 736 56 q 771 211 771 111 q 753 339 771 311 q 709 366 736 366 q 665 339 682 366 q 647 211 647 311 m 978 212 q 1035 410 978 347 q 1183 473 1091 473 q 1332 410 1275 473 q 1389 218 1389 347 q 1333 13 1389 77 q 1183 -50 1276 -50 q 1035 13 1091 -50 q 978 212 978 77 m 1120 211 q 1138 83 1120 111 q 1183 56 1156 56 q 1227 83 1210 56 q 1245 211 1245 111 q 1227 339 1245 311 q 1183 366 1210 366 q 1138 339 1156 366 q 1120 211 1120 311 z "},"Â":{"ha":1080,"x_min":1,"x_max":1084,"o":"m 713 164 l 363 164 l 315 0 l 1 0 l 375 994 l 710 994 l 1084 0 l 762 0 l 713 164 m 649 379 l 539 736 l 430 379 l 649 379 m 446 1249 l 642 1249 l 792 1055 l 624 1055 l 541 1158 l 458 1055 l 290 1055 l 446 1249 z "},"Ê":{"ha":1003,"x_min":101,"x_max":939,"o":"m 101 994 l 924 994 l 924 782 l 409 782 l 409 624 l 887 624 l 887 421 l 409 421 l 409 225 l 939 225 l 939 0 l 101 0 l 101 994 m 407 1249 l 603 1249 l 753 1055 l 585 1055 l 503 1158 l 420 1055 l 252 1055 l 407 1249 z "},"Á":{"ha":1080,"x_min":1,"x_max":1084,"o":"m 713 164 l 363 164 l 315 0 l 1 0 l 375 994 l 710 994 l 1084 0 l 762 0 l 713 164 m 649 379 l 539 736 l 430 379 l 649 379 m 534 1257 l 771 1257 l 552 1055 l 420 1055 l 534 1257 z "},"Ë":{"ha":1003,"x_min":101,"x_max":939,"o":"m 101 994 l 924 994 l 924 782 l 409 782 l 409 624 l 887 624 l 887 421 l 409 421 l 409 225 l 939 225 l 939 0 l 101 0 l 101 994 m 269 1227 l 446 1227 l 446 1057 l 269 1057 l 269 1227 m 557 1227 l 735 1227 l 735 1057 l 557 1057 l 557 1227 z "},"È":{"ha":1003,"x_min":101,"x_max":939,"o":"m 101 994 l 924 994 l 924 782 l 409 782 l 409 624 l 887 624 l 887 421 l 409 421 l 409 225 l 939 225 l 939 0 l 101 0 l 101 994 m 271 1257 l 507 1257 l 618 1055 l 488 1055 l 271 1257 z "},"Í":{"ha":541,"x_min":114,"x_max":501,"o":"m 114 994 l 422 994 l 422 0 l 114 0 l 114 994 m 264 1257 l 501 1257 l 282 1055 l 150 1055 l 264 1257 z "},"Î":{"ha":541,"x_min":20,"x_max":522,"o":"m 114 994 l 422 994 l 422 0 l 114 0 l 114 994 m 176 1249 l 372 1249 l 522 1055 l 354 1055 l 271 1158 l 189 1055 l 20 1055 l 176 1249 z "},"Ï":{"ha":541,"x_min":38,"x_max":504,"o":"m 114 994 l 422 994 l 422 0 l 114 0 l 114 994 m 38 1227 l 214 1227 l 214 1057 l 38 1057 l 38 1227 m 326 1227 l 504 1227 l 504 1057 l 326 1057 l 326 1227 z "},"Ì":{"ha":541,"x_min":40,"x_max":422,"o":"m 114 994 l 422 994 l 422 0 l 114 0 l 114 994 m 40 1257 l 275 1257 l 387 1055 l 256 1055 l 40 1257 z "},"Ó":{"ha":1157,"x_min":63,"x_max":1093,"o":"m 63 496 q 199 876 63 740 q 576 1011 334 1011 q 959 878 825 1011 q 1093 505 1093 745 q 1035 219 1093 330 q 865 45 976 107 q 589 -17 754 -17 q 310 37 420 -17 q 132 206 200 90 q 63 496 63 322 m 370 495 q 426 279 370 345 q 578 213 482 213 q 732 277 677 213 q 786 509 786 342 q 729 714 786 649 q 576 779 673 779 q 427 713 483 779 q 370 495 370 647 m 572 1257 l 809 1257 l 590 1055 l 458 1055 l 572 1257 z "},"Ô":{"ha":1157,"x_min":63,"x_max":1093,"o":"m 63 496 q 199 876 63 740 q 576 1011 334 1011 q 959 878 825 1011 q 1093 505 1093 745 q 1035 219 1093 330 q 865 45 976 107 q 589 -17 754 -17 q 310 37 420 -17 q 132 206 200 90 q 63 496 63 322 m 370 495 q 426 279 370 345 q 578 213 482 213 q 732 277 677 213 q 786 509 786 342 q 729 714 786 649 q 576 779 673 779 q 427 713 483 779 q 370 495 370 647 m 484 1249 l 680 1249 l 830 1055 l 662 1055 l 579 1158 l 496 1055 l 328 1055 l 484 1249 z "},"Ò":{"ha":1157,"x_min":63,"x_max":1093,"o":"m 63 496 q 199 876 63 740 q 576 1011 334 1011 q 959 878 825 1011 q 1093 505 1093 745 q 1035 219 1093 330 q 865 45 976 107 q 589 -17 754 -17 q 310 37 420 -17 q 132 206 200 90 q 63 496 63 322 m 370 495 q 426 279 370 345 q 578 213 482 213 q 732 277 677 213 q 786 509 786 342 q 729 714 786 649 q 576 779 673 779 q 427 713 483 779 q 370 495 370 647 m 348 1257 l 583 1257 l 694 1055 l 564 1055 l 348 1257 z "},"Ú":{"ha":1157,"x_min":102,"x_max":1055,"o":"m 749 994 l 1055 994 l 1055 401 q 1028 235 1055 313 q 942 98 1000 157 q 819 16 883 39 q 604 -18 729 -18 q 445 -7 531 -18 q 302 33 359 3 q 196 119 244 63 q 131 233 149 174 q 102 401 102 328 l 102 994 l 409 994 l 409 387 q 454 260 409 306 q 579 214 499 214 q 704 259 659 214 q 749 387 749 304 l 749 994 m 572 1257 l 809 1257 l 590 1055 l 458 1055 l 572 1257 z "},"Û":{"ha":1157,"x_min":102,"x_max":1055,"o":"m 749 994 l 1055 994 l 1055 401 q 1028 235 1055 313 q 942 98 1000 157 q 819 16 883 39 q 604 -18 729 -18 q 445 -7 531 -18 q 302 33 359 3 q 196 119 244 63 q 131 233 149 174 q 102 401 102 328 l 102 994 l 409 994 l 409 387 q 454 260 409 306 q 579 214 499 214 q 704 259 659 214 q 749 387 749 304 l 749 994 m 484 1249 l 680 1249 l 830 1055 l 662 1055 l 579 1158 l 496 1055 l 328 1055 l 484 1249 z "},"Ù":{"ha":1157,"x_min":102,"x_max":1055,"o":"m 749 994 l 1055 994 l 1055 401 q 1028 235 1055 313 q 942 98 1000 157 q 819 16 883 39 q 604 -18 729 -18 q 445 -7 531 -18 q 302 33 359 3 q 196 119 244 63 q 131 233 149 174 q 102 401 102 328 l 102 994 l 409 994 l 409 387 q 454 260 409 306 q 579 214 499 214 q 704 259 659 214 q 749 387 749 304 l 749 994 m 348 1257 l 583 1257 l 694 1055 l 564 1055 l 348 1257 z "},"ı":{"ha":463,"x_min":94,"x_max":370,"o":"m 94 720 l 370 720 l 370 0 l 94 0 l 94 720 z "},"ˆ":{"ha":463,"x_min":-19,"x_max":483,"o":"m 136 1002 l 332 1002 l 483 808 l 315 808 l 232 912 l 149 808 l -19 808 l 136 1002 z "},"˜":{"ha":463,"x_min":-14,"x_max":476,"o":"m 368 994 l 475 994 q 476 964 476 977 q 438 847 476 888 q 340 806 400 806 q 209 842 297 806 q 135 863 155 863 q 104 851 115 863 q 93 808 94 839 l -13 808 q -14 836 -14 824 q 26 951 -14 909 q 121 994 66 994 q 166 989 145 994 q 244 960 187 983 q 326 936 300 936 q 356 948 345 936 q 368 994 367 961 z "},"ˉ":{"ha":463,"x_min":12,"x_max":451,"o":"m 12 981 l 451 981 l 451 833 l 12 833 l 12 981 z "},"˘":{"ha":463,"x_min":0,"x_max":463,"o":"m 351 1011 l 463 1011 q 433 903 459 947 q 353 833 406 859 q 237 806 299 806 q 72 860 134 806 q 0 1011 10 914 l 117 1011 q 155 955 130 972 q 231 939 180 939 q 315 955 290 939 q 351 1011 340 972 z "},"˙":{"ha":463,"x_min":125,"x_max":338,"o":"m 125 1015 l 338 1015 l 338 811 l 125 811 l 125 1015 z "},"˚":{"ha":463,"x_min":68,"x_max":394,"o":"m 394 951 q 346 836 394 884 q 231 789 298 789 q 116 836 163 789 q 68 951 68 884 q 116 1067 68 1019 q 231 1115 163 1115 q 346 1067 298 1115 q 394 951 394 1019 m 300 952 q 280 1002 300 981 q 231 1022 260 1022 q 181 1002 201 1022 q 161 952 161 981 q 181 903 161 923 q 231 882 201 882 q 280 903 260 882 q 300 952 300 923 z "},"¸":{"ha":463,"x_min":12,"x_max":422,"o":"m 79 -112 l 99 -32 q 218 -16 163 -16 q 378 -56 334 -16 q 422 -149 422 -95 q 402 -216 422 -181 q 331 -271 382 -250 q 194 -292 279 -292 q 12 -275 117 -292 l 12 -191 q 162 -205 83 -205 q 241 -189 220 -205 q 262 -149 262 -174 q 245 -115 262 -129 q 192 -100 228 -100 q 79 -112 144 -100 z "},"˝":{"ha":463,"x_min":31,"x_max":637,"o":"m 145 1011 l 366 1011 l 165 811 l 31 811 l 145 1011 m 414 1011 l 637 1011 l 432 811 l 302 811 l 414 1011 z "},"˛":{"ha":463,"x_min":103,"x_max":418,"o":"m 136 18 l 250 18 q 237 -80 237 -41 q 262 -158 237 -132 q 332 -184 287 -184 q 418 -167 363 -184 l 418 -272 q 275 -303 334 -303 q 148 -260 193 -303 q 103 -144 103 -216 q 136 18 103 -84 z "},"ˇ":{"ha":463,"x_min":-19,"x_max":483,"o":"m 327 808 l 132 808 l -19 1002 l 149 1002 l 231 899 l 314 1002 l 483 1002 l 327 808 z "},"Ł":{"ha":926,"x_min":-1,"x_max":888,"o":"m 102 994 l 409 994 l 409 720 l 625 882 l 625 692 l 409 530 l 409 245 l 888 245 l 888 0 l 102 0 l 102 298 l -1 219 l -1 409 l 102 486 l 102 994 z "},"ł":{"ha":463,"x_min":0,"x_max":463,"o":"m 94 994 l 371 994 l 371 676 l 463 736 l 463 604 l 371 542 l 371 0 l 94 0 l 94 358 l 0 296 l 0 429 l 94 492 l 94 994 z "},"Š":{"ha":1003,"x_min":48,"x_max":950,"o":"m 48 329 l 340 347 q 379 239 350 276 q 515 178 427 178 q 616 209 581 178 q 652 281 652 240 q 618 350 652 319 q 460 408 584 380 q 172 528 258 453 q 85 720 85 604 q 130 865 85 797 q 263 972 174 933 q 508 1011 353 1011 q 799 940 699 1011 q 918 715 899 869 l 628 698 q 579 795 616 765 q 477 826 543 826 q 397 803 424 826 q 370 748 370 781 q 392 705 370 724 q 495 669 414 686 q 784 581 696 625 q 910 471 871 536 q 950 323 950 405 q 897 147 950 228 q 749 25 844 66 q 510 -17 654 -17 q 159 81 256 -17 q 48 329 61 178 m 597 1055 l 402 1055 l 252 1249 l 419 1249 l 502 1145 l 585 1249 l 753 1249 l 597 1055 z "},"š":{"ha":848,"x_min":35,"x_max":800,"o":"m 35 199 l 309 225 q 356 155 326 176 q 437 134 387 134 q 524 158 493 134 q 547 202 547 176 q 516 248 547 232 q 397 277 494 260 q 198 323 254 302 q 103 395 142 345 q 65 511 65 446 q 106 634 65 583 q 220 711 148 686 q 415 736 293 736 q 605 717 544 736 q 708 656 667 697 q 776 544 749 614 l 514 518 q 480 569 504 553 q 401 591 448 591 q 333 574 355 591 q 312 534 312 557 q 339 494 312 507 q 457 469 366 480 q 662 426 595 454 q 765 347 729 398 q 800 233 800 295 q 763 112 800 171 q 644 18 725 53 q 423 -17 563 -17 q 142 39 226 -17 q 35 199 58 96 m 520 808 l 325 808 l 174 1002 l 342 1002 l 425 899 l 507 1002 l 676 1002 l 520 808 z "},"Ž":{"ha":1003,"x_min":23,"x_max":966,"o":"m 77 994 l 946 994 l 946 795 l 389 214 l 966 214 l 966 0 l 23 0 l 23 206 l 574 782 l 77 782 l 77 994 m 597 1055 l 402 1055 l 252 1249 l 419 1249 l 502 1145 l 585 1249 l 753 1249 l 597 1055 z "},"ž":{"ha":772,"x_min":25,"x_max":743,"o":"m 52 720 l 720 720 l 720 559 l 357 189 l 743 189 l 743 0 l 25 0 l 25 179 l 370 532 l 52 532 l 52 720 m 482 808 l 287 808 l 136 1002 l 304 1002 l 387 899 l 469 1002 l 638 1002 l 482 808 z "},"¦":{"ha":386,"x_min":109,"x_max":281,"o":"m 109 994 l 281 994 l 281 468 l 109 468 l 109 994 m 109 253 l 281 253 l 281 -274 l 109 -274 l 109 253 z "},"Ð":{"ha":1080,"x_min":1,"x_max":1020,"o":"m 106 994 l 562 994 q 780 958 697 994 q 918 853 863 921 q 996 694 972 785 q 1020 501 1020 603 q 983 250 1020 338 q 882 104 945 162 q 743 26 818 46 q 562 0 644 0 l 106 0 l 106 422 l 1 422 l 1 572 l 106 572 l 106 994 m 413 769 l 413 572 l 562 572 l 562 422 l 413 422 l 413 226 l 488 226 q 625 247 585 226 q 689 322 666 269 q 712 494 712 375 q 660 711 712 652 q 489 769 608 769 l 413 769 z "},"ð":{"ha":926,"x_min":51,"x_max":875,"o":"m 218 814 l 389 875 q 310 944 345 918 q 230 994 275 970 l 509 994 q 586 945 550 972 l 724 994 l 749 926 l 650 889 q 819 652 762 775 q 875 395 875 528 q 766 93 875 201 q 466 -16 656 -16 q 240 33 336 -16 q 97 173 143 82 q 51 360 51 264 q 96 544 51 459 q 222 674 140 629 q 386 720 303 720 q 465 709 427 720 q 529 677 491 701 q 441 814 483 758 l 243 741 l 218 814 m 328 358 q 367 216 328 261 q 461 170 406 170 q 557 215 513 170 q 602 371 602 259 q 558 508 602 469 q 463 547 515 547 q 367 502 406 547 q 328 358 328 456 z "},"Ý":{"ha":1080,"x_min":1,"x_max":1083,"o":"m 1 994 l 342 994 l 543 659 l 744 994 l 1083 994 l 696 416 l 696 0 l 389 0 l 389 416 l 1 994 m 534 1257 l 771 1257 l 552 1055 l 420 1055 l 534 1257 z "},"ý":{"ha":848,"x_min":3,"x_max":853,"o":"m 3 720 l 295 720 l 444 241 l 581 720 l 853 720 l 568 -50 q 468 -227 519 -181 q 249 -292 396 -292 q 64 -276 189 -292 l 43 -83 q 176 -102 102 -102 q 255 -80 224 -102 q 306 0 285 -58 l 3 720 m 418 1011 l 655 1011 l 436 808 l 304 808 l 418 1011 z "},"Þ":{"ha":1003,"x_min":100,"x_max":944,"o":"m 100 994 l 409 994 l 409 817 l 611 817 q 861 737 778 817 q 944 511 944 658 q 853 277 944 361 q 577 192 763 192 l 409 192 l 409 0 l 100 0 l 100 994 m 409 393 l 484 393 q 609 424 573 393 q 645 503 645 455 q 614 582 645 549 q 496 615 583 615 l 409 615 l 409 393 z "},"þ":{"ha":926,"x_min":85,"x_max":878,"o":"m 85 -274 l 85 994 l 363 994 l 363 650 q 454 716 407 696 q 568 736 502 736 q 797 628 716 736 q 878 353 878 520 q 791 78 878 173 q 574 -16 705 -16 q 457 5 510 -16 q 363 70 405 27 l 363 -274 l 85 -274 m 361 358 q 397 231 361 273 q 488 190 433 190 q 569 230 536 190 q 602 364 602 269 q 568 493 602 452 q 485 534 534 534 q 397 492 432 534 q 361 358 361 451 z "},"−":{"ha":917,"x_min":86,"x_max":826,"o":"m 86 607 l 826 607 l 826 387 l 86 387 l 86 607 z "},"×":{"ha":917,"x_min":85,"x_max":827,"o":"m 241 868 l 456 654 l 670 868 l 827 711 l 612 498 l 827 281 l 670 126 l 456 342 l 241 126 l 85 281 l 300 498 l 85 711 l 241 868 z "},"¹":{"ha":555,"x_min":96,"x_max":425,"o":"m 425 1011 l 425 503 l 249 503 l 249 806 q 180 773 211 784 q 96 751 149 762 l 96 891 q 291 1011 220 922 l 425 1011 z "},"²":{"ha":555,"x_min":15,"x_max":536,"o":"m 536 503 l 15 503 q 70 608 32 564 q 237 739 107 652 q 333 814 313 789 q 353 858 353 838 q 337 891 353 878 q 290 904 322 904 q 235 886 257 904 q 202 827 212 868 l 35 842 q 68 923 47 896 q 154 987 97 963 q 298 1011 211 1011 q 477 966 420 1011 q 534 859 534 922 q 506 773 534 812 q 409 694 477 733 q 300 627 342 654 l 536 627 l 536 503 z "},"³":{"ha":555,"x_min":21,"x_max":534,"o":"m 204 853 l 29 880 q 111 973 62 944 q 285 1011 176 1011 q 469 966 407 1011 q 513 882 513 933 q 489 815 513 846 q 428 773 472 794 q 508 721 482 755 q 534 641 534 686 q 484 540 534 577 q 279 489 417 489 q 80 542 149 489 q 21 633 40 572 l 193 652 q 224 606 204 620 q 276 591 243 591 q 335 610 314 591 q 357 654 357 629 q 319 708 357 689 q 218 720 297 719 l 237 816 q 315 831 295 816 q 336 868 336 846 q 322 898 336 886 q 281 909 308 909 q 231 894 253 909 q 204 853 214 882 z "},"½":{"ha":1389,"x_min":106,"x_max":1350,"o":"m 436 1011 l 436 503 l 260 503 l 260 806 q 191 773 222 784 q 106 751 160 762 l 106 891 q 302 1011 231 922 l 436 1011 m 928 1011 l 1074 1011 l 449 -36 l 304 -36 l 928 1011 m 1350 -20 l 828 -20 q 883 86 845 42 q 1050 217 920 130 q 1146 292 1126 267 q 1166 336 1166 316 q 1151 369 1166 356 q 1103 382 1135 382 q 1048 364 1070 382 q 1015 305 1025 346 l 848 319 q 881 401 861 374 q 967 465 910 441 q 1111 489 1024 489 q 1291 444 1234 489 q 1348 337 1348 399 q 1319 251 1348 290 q 1222 172 1290 211 q 1113 104 1155 132 l 1350 104 l 1350 -20 z "},"¼":{"ha":1389,"x_min":106,"x_max":1337,"o":"m 436 1011 l 436 503 l 260 503 l 260 806 q 191 773 222 784 q 106 751 160 762 l 106 891 q 302 1011 231 922 l 436 1011 m 949 1011 l 1095 1011 l 470 -36 l 326 -36 l 949 1011 m 1118 48 l 841 48 l 841 176 l 1124 489 l 1270 489 l 1270 161 l 1337 161 l 1337 48 l 1270 48 l 1270 -34 l 1118 -34 l 1118 48 m 1118 161 l 1118 309 l 979 161 l 1118 161 z "},"¾":{"ha":1389,"x_min":47,"x_max":1337,"o":"m 231 853 l 56 880 q 138 973 89 944 q 311 1011 203 1011 q 496 966 433 1011 q 540 882 540 933 q 515 815 540 846 q 454 773 498 794 q 534 721 509 755 q 560 641 560 686 q 511 540 560 577 q 305 489 444 489 q 106 542 176 489 q 47 633 66 572 l 220 652 q 250 606 231 620 q 302 591 270 591 q 362 610 340 591 q 383 654 383 629 q 345 708 383 689 q 244 720 323 719 l 263 816 q 342 831 321 816 q 362 868 362 846 q 348 898 362 886 q 307 909 334 909 q 257 894 279 909 q 231 853 241 882 m 966 1011 l 1112 1011 l 487 -36 l 342 -36 l 966 1011 m 1118 48 l 841 48 l 841 176 l 1124 489 l 1270 489 l 1270 161 l 1337 161 l 1337 48 l 1270 48 l 1270 -34 l 1118 -34 l 1118 48 m 1118 161 l 1118 309 l 979 161 l 1118 161 z "},"₣":{"ha":1158,"x_min":105,"x_max":1189,"o":"m 622 607 l 622 656 l 880 656 l 880 538 q 958 644 918 615 q 1056 673 997 673 q 1189 635 1116 673 l 1103 438 q 1026 458 1055 458 q 942 414 972 458 q 899 178 899 351 l 899 0 l 622 0 l 622 406 l 414 406 l 414 0 l 105 0 l 105 994 l 865 994 l 865 781 l 414 781 l 414 607 l 622 607 z "},"Ğ":{"ha":1157,"x_min":64,"x_max":1076,"o":"m 602 360 l 602 567 l 1076 567 l 1076 143 q 835 17 940 50 q 587 -17 730 -17 q 298 43 410 -17 q 125 223 186 104 q 64 497 64 342 q 131 780 64 660 q 328 963 198 901 q 600 1011 429 1011 q 846 981 764 1011 q 982 889 928 951 q 1063 730 1036 826 l 766 677 q 704 763 748 733 q 593 793 661 793 q 432 723 492 793 q 372 500 372 652 q 432 270 372 339 q 602 201 493 201 q 700 216 653 201 q 807 267 747 231 l 807 360 l 602 360 m 699 1257 l 810 1257 q 780 1149 806 1193 q 700 1079 753 1105 q 584 1053 646 1053 q 419 1106 481 1053 q 347 1257 357 1160 l 464 1257 q 503 1201 477 1218 q 578 1185 528 1185 q 662 1201 637 1185 q 699 1257 688 1218 z "},"ğ":{"ha":926,"x_min":50,"x_max":844,"o":"m 585 720 l 843 720 l 843 40 l 844 8 q 815 -121 844 -60 q 738 -220 786 -182 q 617 -275 690 -258 q 448 -292 543 -292 q 150 -227 231 -292 q 69 -53 69 -162 q 71 -16 69 -39 l 338 -47 q 370 -98 349 -84 q 446 -119 400 -119 q 535 -87 506 -119 q 565 24 565 -56 l 565 133 q 484 63 524 85 q 346 29 420 29 q 113 155 201 29 q 50 392 50 245 q 131 648 50 560 q 344 736 212 736 q 483 708 428 736 q 585 614 537 680 l 585 720 m 325 371 q 358 255 325 293 q 446 218 391 218 q 532 257 497 218 q 567 374 567 296 q 530 495 567 453 q 441 536 494 536 q 356 498 388 536 q 325 371 325 460 m 583 1011 l 695 1011 q 665 903 691 947 q 585 833 638 859 q 469 806 531 806 q 304 860 366 806 q 232 1011 242 914 l 349 1011 q 387 955 362 972 q 463 939 412 939 q 547 955 522 939 q 583 1011 572 972 z "},"İ":{"ha":541,"x_min":114,"x_max":422,"o":"m 114 994 l 422 994 l 422 0 l 114 0 l 114 994 m 164 1258 l 377 1258 l 377 1055 l 164 1055 l 164 1258 z "},"Ş":{"ha":1003,"x_min":48,"x_max":950,"o":"m 48 329 l 340 347 q 379 239 350 276 q 515 178 427 178 q 616 209 581 178 q 652 281 652 240 q 618 350 652 319 q 460 408 584 380 q 172 528 258 453 q 85 720 85 604 q 130 865 85 797 q 263 972 174 933 q 508 1011 353 1011 q 799 940 699 1011 q 918 715 899 869 l 628 698 q 579 795 616 765 q 477 826 543 826 q 397 803 424 826 q 370 748 370 781 q 392 705 370 724 q 495 669 414 686 q 784 581 696 625 q 910 471 871 536 q 950 323 950 405 q 897 147 950 228 q 749 25 844 66 q 510 -17 654 -17 q 159 81 256 -17 q 48 329 61 178 m 349 -112 l 370 -32 q 489 -16 433 -16 q 649 -56 605 -16 q 693 -149 693 -95 q 673 -216 693 -181 q 602 -271 653 -250 q 465 -292 550 -292 q 283 -275 387 -292 l 283 -191 q 433 -205 353 -205 q 512 -189 491 -205 q 532 -149 532 -174 q 515 -115 532 -129 q 463 -100 498 -100 q 349 -112 414 -100 z "},"ş":{"ha":848,"x_min":35,"x_max":800,"o":"m 35 199 l 309 225 q 356 155 326 176 q 437 134 387 134 q 524 158 493 134 q 547 202 547 176 q 516 248 547 232 q 397 277 494 260 q 198 323 254 302 q 103 395 142 345 q 65 511 65 446 q 106 634 65 583 q 220 711 148 686 q 415 736 293 736 q 605 717 544 736 q 708 656 667 697 q 776 544 749 614 l 514 518 q 480 569 504 553 q 401 591 448 591 q 333 574 355 591 q 312 534 312 557 q 339 494 312 507 q 457 469 366 480 q 662 426 595 454 q 765 347 729 398 q 800 233 800 295 q 763 112 800 171 q 644 18 725 53 q 423 -17 563 -17 q 142 39 226 -17 q 35 199 58 96 m 272 -112 l 292 -32 q 412 -16 356 -16 q 572 -56 528 -16 q 616 -149 616 -95 q 596 -216 616 -181 q 524 -271 576 -250 q 387 -292 473 -292 q 205 -275 310 -292 l 205 -191 q 355 -205 276 -205 q 434 -189 414 -205 q 455 -149 455 -174 q 438 -115 455 -129 q 385 -100 421 -100 q 272 -112 337 -100 z "},"Ć":{"ha":1080,"x_min":66,"x_max":1033,"o":"m 764 406 l 1033 325 q 947 136 1006 212 q 803 21 889 60 q 583 -18 716 -18 q 318 30 420 -18 q 140 195 215 77 q 66 499 66 314 q 197 879 66 746 q 568 1011 328 1011 q 864 935 756 1011 q 1023 702 971 859 l 752 642 q 722 708 738 687 q 659 762 696 743 q 576 781 622 781 q 416 697 471 781 q 374 501 374 635 q 424 274 374 336 q 565 213 474 213 q 698 262 653 213 q 764 406 743 312 m 564 1257 l 801 1257 l 582 1055 l 450 1055 l 564 1257 z "},"ć":{"ha":926,"x_min":50,"x_max":883,"o":"m 621 281 l 883 252 q 812 110 861 170 q 685 16 762 50 q 490 -17 608 -17 q 299 4 375 -17 q 168 74 222 26 q 81 186 113 121 q 50 357 50 250 q 88 542 50 468 q 164 639 116 596 q 263 703 212 682 q 470 736 344 736 q 739 673 646 736 q 869 489 831 610 l 609 454 q 565 524 597 500 q 478 547 532 547 q 367 498 410 547 q 325 349 325 449 q 367 214 325 260 q 474 168 409 168 q 565 196 528 168 q 621 281 602 224 m 524 1011 l 762 1011 l 543 808 l 410 808 l 524 1011 z "},"Č":{"ha":1080,"x_min":66,"x_max":1033,"o":"m 764 406 l 1033 325 q 947 136 1006 212 q 803 21 889 60 q 583 -18 716 -18 q 318 30 420 -18 q 140 195 215 77 q 66 499 66 314 q 197 879 66 746 q 568 1011 328 1011 q 864 935 756 1011 q 1023 702 971 859 l 752 642 q 722 708 738 687 q 659 762 696 743 q 576 781 622 781 q 416 697 471 781 q 374 501 374 635 q 424 274 374 336 q 565 213 474 213 q 698 262 653 213 q 764 406 743 312 m 666 1055 l 471 1055 l 320 1249 l 488 1249 l 570 1145 l 653 1249 l 822 1249 l 666 1055 z "},"č":{"ha":926,"x_min":50,"x_max":883,"o":"m 621 281 l 883 252 q 812 110 861 170 q 685 16 762 50 q 490 -17 608 -17 q 299 4 375 -17 q 168 74 222 26 q 81 186 113 121 q 50 357 50 250 q 88 542 50 468 q 164 639 116 596 q 263 703 212 682 q 470 736 344 736 q 739 673 646 736 q 869 489 831 610 l 609 454 q 565 524 597 500 q 478 547 532 547 q 367 498 410 547 q 325 349 325 449 q 367 214 325 260 q 474 168 409 168 q 565 196 528 168 q 621 281 602 224 m 572 808 l 377 808 l 227 1002 l 394 1002 l 477 899 l 559 1002 l 728 1002 l 572 808 z "},"đ":{"ha":926,"x_min":49,"x_max":966,"o":"m 842 916 l 966 916 l 966 805 l 842 805 l 842 0 l 583 0 l 583 106 q 484 15 529 39 q 351 -16 425 -16 q 126 96 204 -16 q 49 368 49 208 q 135 642 49 547 q 353 736 220 736 q 470 715 417 736 q 563 650 522 693 l 563 805 l 355 805 l 355 916 l 563 916 l 563 994 l 842 994 l 842 916 m 565 362 q 529 489 565 447 q 438 530 493 530 q 357 490 390 530 q 325 356 325 450 q 358 227 325 268 q 441 186 392 186 q 530 227 494 186 q 565 362 565 269 z "},"¯":{"ha":694,"x_min":-8,"x_max":703,"o":"m -8 1154 l 703 1154 l 703 1084 l -8 1084 l -8 1154 z "},"·":{"ha":463,"x_min":84,"x_max":379,"o":"m 84 635 l 379 635 l 379 359 l 84 359 l 84 635 z "},"⁴":{"ha":550,"x_min":28,"x_max":524,"o":"m 304 570 l 28 570 l 28 699 l 311 1011 l 456 1011 l 456 683 l 524 683 l 524 570 l 456 570 l 456 488 l 304 488 l 304 570 m 304 683 l 304 831 l 166 683 l 304 683 z "},"Ă":{"ha":1080,"x_min":1,"x_max":1084,"o":"m 713 164 l 363 164 l 315 0 l 1 0 l 375 994 l 710 994 l 1084 0 l 762 0 l 713 164 m 649 379 l 539 736 l 430 379 l 649 379 m 659 1263 l 770 1263 q 740 1155 766 1198 q 660 1084 713 1111 q 544 1058 606 1058 q 379 1112 441 1058 q 307 1263 317 1166 l 424 1263 q 463 1207 437 1223 q 538 1190 488 1190 q 622 1207 597 1190 q 659 1263 648 1223 z "},"ă":{"ha":926,"x_min":50,"x_max":879,"o":"m 335 487 l 71 515 q 114 624 86 584 q 195 692 142 663 q 300 725 233 713 q 444 736 366 736 q 643 723 568 736 q 768 665 718 709 q 824 578 804 634 q 844 471 844 522 l 844 153 q 851 74 844 102 q 879 0 857 45 l 620 0 q 600 42 604 28 q 590 88 595 57 q 482 14 536 36 q 312 -16 409 -16 q 116 43 183 -16 q 50 191 50 103 q 98 326 50 273 q 275 404 146 378 q 477 448 431 435 q 574 481 523 460 q 553 552 574 532 q 479 572 532 572 q 378 551 412 572 q 335 487 351 534 m 574 342 q 456 306 517 321 q 349 262 372 283 q 326 211 326 239 q 349 158 326 178 q 416 137 372 137 q 502 159 462 137 q 558 214 541 182 q 574 298 574 246 l 574 342 m 584 1011 l 696 1011 q 665 903 692 947 q 585 833 639 859 q 469 806 532 806 q 304 860 366 806 q 233 1011 243 914 l 349 1011 q 388 955 363 972 q 463 939 413 939 q 548 955 522 939 q 584 1011 573 972 z "},"Ą":{"ha":1080,"x_min":1,"x_max":1112,"o":"m 713 164 l 363 164 l 315 0 l 1 0 l 375 994 l 710 994 l 1084 0 l 762 0 l 713 164 m 649 379 l 539 736 l 430 379 l 649 379 m 829 18 l 944 18 q 930 -80 930 -41 q 956 -158 930 -132 q 1025 -184 981 -184 q 1112 -167 1057 -184 l 1112 -272 q 968 -303 1028 -303 q 842 -260 887 -303 q 797 -144 797 -216 q 829 18 797 -84 z "},"ą":{"ha":926,"x_min":50,"x_max":907,"o":"m 335 487 l 71 515 q 114 624 86 584 q 195 692 142 663 q 300 725 233 713 q 444 736 366 736 q 643 723 568 736 q 768 665 718 709 q 824 578 804 634 q 844 471 844 522 l 844 153 q 851 74 844 102 q 879 0 857 45 l 620 0 q 600 42 604 28 q 590 88 595 57 q 482 14 536 36 q 312 -16 409 -16 q 116 43 183 -16 q 50 191 50 103 q 98 326 50 273 q 275 404 146 378 q 477 448 431 435 q 574 481 523 460 q 553 552 574 532 q 479 572 532 572 q 378 551 412 572 q 335 487 351 534 m 574 342 q 456 306 517 321 q 349 262 372 283 q 326 211 326 239 q 349 158 326 178 q 416 137 372 137 q 502 159 462 137 q 558 214 541 182 q 574 298 574 246 l 574 342 m 624 18 l 739 18 q 725 -80 725 -41 q 750 -158 725 -132 q 820 -184 775 -184 q 907 -167 852 -184 l 907 -272 q 763 -303 823 -303 q 636 -260 682 -303 q 591 -144 591 -216 q 624 18 591 -84 z "},"Ď":{"ha":1080,"x_min":106,"x_max":1021,"o":"m 106 994 l 562 994 q 780 958 697 994 q 918 852 863 921 q 996 693 972 784 q 1021 500 1021 602 q 984 253 1021 341 q 884 106 948 165 q 745 27 819 47 q 562 0 644 0 l 106 0 l 106 994 m 413 769 l 413 226 l 488 226 q 625 247 585 226 q 689 322 666 269 q 712 494 712 375 q 661 711 712 652 q 490 769 609 769 l 413 769 m 621 1059 l 426 1059 l 275 1253 l 443 1253 l 526 1149 l 608 1253 l 777 1253 l 621 1059 z "},"ď":{"ha":1172,"x_min":49,"x_max":1148,"o":"m 842 994 l 842 0 l 583 0 l 583 106 q 484 15 529 39 q 351 -16 425 -16 q 126 96 204 -16 q 49 368 49 208 q 135 642 49 547 q 353 736 220 736 q 470 715 417 736 q 563 650 522 693 l 563 994 l 842 994 m 565 362 q 529 489 565 447 q 438 530 493 530 q 357 490 390 530 q 325 356 325 450 q 358 227 325 268 q 441 186 392 186 q 530 227 494 186 q 565 362 565 269 m 965 994 l 1148 994 l 1148 861 q 1118 746 1148 788 q 1013 671 1088 703 l 965 741 q 1048 834 1047 778 l 965 834 l 965 994 z "},"Đ":{"ha":1080,"x_min":1,"x_max":1020,"o":"m 106 994 l 562 994 q 780 958 697 994 q 918 853 863 921 q 996 694 972 785 q 1020 501 1020 603 q 983 250 1020 338 q 882 104 945 162 q 743 26 818 46 q 562 0 644 0 l 106 0 l 106 422 l 1 422 l 1 572 l 106 572 l 106 994 m 413 769 l 413 572 l 562 572 l 562 422 l 413 422 l 413 226 l 488 226 q 625 247 585 226 q 689 322 666 269 q 712 494 712 375 q 660 711 712 652 q 489 769 608 769 l 413 769 z "},"Ę":{"ha":1003,"x_min":101,"x_max":939,"o":"m 101 994 l 924 994 l 924 782 l 409 782 l 409 624 l 887 624 l 887 421 l 409 421 l 409 225 l 939 225 l 939 0 l 101 0 l 101 994 m 626 18 l 741 18 q 727 -80 727 -41 q 752 -158 727 -132 q 822 -184 777 -184 q 909 -167 854 -184 l 909 -272 q 765 -303 825 -303 q 638 -260 684 -303 q 593 -144 593 -216 q 626 18 593 -84 z "},"ę":{"ha":926,"x_min":49,"x_max":883,"o":"m 883 292 l 330 292 q 366 193 337 225 q 470 146 406 146 q 547 166 511 146 q 595 212 570 179 l 867 186 q 717 31 805 78 q 464 -16 629 -16 q 239 24 321 -16 q 103 152 157 64 q 49 359 49 240 q 157 632 49 528 q 456 736 265 736 q 700 690 610 736 q 836 554 789 643 q 883 323 883 465 l 883 292 m 602 424 q 559 538 594 504 q 467 573 524 573 q 362 521 401 573 q 330 424 337 488 l 602 424 m 422 18 l 536 18 q 523 -80 523 -41 q 548 -158 523 -132 q 618 -184 573 -184 q 705 -167 650 -184 l 705 -272 q 561 -303 621 -303 q 434 -260 479 -303 q 389 -144 389 -216 q 422 18 389 -84 z "},"Ě":{"ha":1003,"x_min":101,"x_max":939,"o":"m 101 994 l 924 994 l 924 782 l 409 782 l 409 624 l 887 624 l 887 421 l 409 421 l 409 225 l 939 225 l 939 0 l 101 0 l 101 994 m 619 1059 l 424 1059 l 273 1253 l 441 1253 l 524 1149 l 606 1253 l 775 1253 l 619 1059 z "},"ě":{"ha":926,"x_min":49,"x_max":883,"o":"m 883 292 l 330 292 q 366 193 337 225 q 470 146 406 146 q 547 166 511 146 q 595 212 570 179 l 867 186 q 717 31 805 78 q 464 -16 629 -16 q 239 24 321 -16 q 103 152 157 64 q 49 359 49 240 q 157 632 49 528 q 456 736 265 736 q 700 690 610 736 q 836 554 789 643 q 883 323 883 465 l 883 292 m 602 424 q 559 538 594 504 q 467 573 524 573 q 362 521 401 573 q 330 424 337 488 l 602 424 m 559 808 l 363 808 l 213 1002 l 380 1002 l 463 899 l 546 1002 l 715 1002 l 559 808 z "},"Ĳ":{"ha":1428,"x_min":117,"x_max":1324,"o":"m 1324 456 q 1313 272 1324 346 q 1262 135 1301 197 q 1161 37 1223 73 q 1045 -8 1099 1 q 939 -17 991 -17 q 630 75 726 -17 q 524 336 534 167 l 817 376 q 917 214 817 214 q 990 249 964 214 q 1017 382 1017 283 l 1017 994 l 1324 994 l 1324 456 m 424 0 l 117 0 l 117 994 l 424 994 l 424 0 z "},"ĳ":{"ha":928,"x_min":93,"x_max":835,"o":"m 835 806 l 558 806 l 558 994 l 835 994 l 835 806 m 370 806 l 93 806 l 93 994 l 370 994 l 370 806 m 835 22 q 823 -140 835 -77 q 759 -247 811 -203 q 595 -292 706 -292 q 396 -268 505 -292 l 437 -68 q 486 -75 475 -75 q 542 -48 526 -75 q 558 46 558 -20 l 558 720 l 835 720 l 835 22 m 370 0 l 93 0 l 93 720 l 370 720 l 370 0 z "},"Ĺ":{"ha":926,"x_min":102,"x_max":888,"o":"m 102 994 l 409 994 l 409 245 l 888 245 l 888 0 l 102 0 l 102 994 m 488 1263 l 726 1263 l 507 1060 l 374 1060 l 488 1263 z "},"ĺ":{"ha":463,"x_min":93,"x_max":473,"o":"m 93 994 l 370 994 l 370 0 l 93 0 l 93 994 m 236 1263 l 473 1263 l 254 1060 l 122 1060 l 236 1263 z "},"Ľ":{"ha":926,"x_min":102,"x_max":888,"o":"m 102 994 l 409 994 l 409 245 l 888 245 l 888 0 l 102 0 l 102 994 m 648 994 l 831 994 l 831 861 q 801 746 831 788 q 696 671 771 703 l 648 741 q 731 834 730 778 l 648 834 l 648 994 z "},"ľ":{"ha":694,"x_min":93,"x_max":669,"o":"m 93 994 l 370 994 l 370 0 l 93 0 l 93 994 m 486 994 l 669 994 l 669 861 q 639 746 669 788 q 534 671 609 703 l 486 741 q 569 834 568 778 l 486 834 l 486 994 z "},"Ŀ":{"ha":926,"x_min":102,"x_max":888,"o":"m 102 994 l 409 994 l 409 245 l 888 245 l 888 0 l 102 0 l 102 994 m 610 724 l 823 724 l 823 521 l 610 521 l 610 724 z "},"ŀ":{"ha":742,"x_min":93,"x_max":685,"o":"m 93 994 l 370 994 l 370 0 l 93 0 l 93 994 m 472 724 l 685 724 l 685 521 l 472 521 l 472 724 z "},"Ń":{"ha":1157,"x_min":104,"x_max":1055,"o":"m 104 994 l 391 994 l 765 444 l 765 994 l 1055 994 l 1055 0 l 765 0 l 393 546 l 393 0 l 104 0 l 104 994 m 571 1263 l 808 1263 l 589 1060 l 457 1060 l 571 1263 z "},"ń":{"ha":926,"x_min":83,"x_max":845,"o":"m 83 720 l 340 720 l 340 603 q 457 706 398 675 q 601 736 516 736 q 780 668 715 736 q 845 458 845 600 l 845 0 l 568 0 l 568 396 q 543 492 568 464 q 472 520 517 520 q 391 482 422 520 q 359 346 359 444 l 359 0 l 83 0 l 83 720 m 459 1011 l 696 1011 l 477 808 l 345 808 l 459 1011 z "},"Ň":{"ha":1157,"x_min":104,"x_max":1055,"o":"m 104 994 l 391 994 l 765 444 l 765 994 l 1055 994 l 1055 0 l 765 0 l 393 546 l 393 0 l 104 0 l 104 994 m 673 1059 l 477 1059 l 327 1253 l 494 1253 l 577 1149 l 660 1253 l 829 1253 l 673 1059 z "},"ň":{"ha":926,"x_min":83,"x_max":845,"o":"m 83 720 l 340 720 l 340 603 q 457 706 398 675 q 601 736 516 736 q 780 668 715 736 q 845 458 845 600 l 845 0 l 568 0 l 568 396 q 543 492 568 464 q 472 520 517 520 q 391 482 422 520 q 359 346 359 444 l 359 0 l 83 0 l 83 720 m 561 808 l 366 808 l 215 1002 l 382 1002 l 465 899 l 548 1002 l 717 1002 l 561 808 z "},"ŉ":{"ha":1192,"x_min":36,"x_max":1111,"o":"m 304 793 q 257 612 304 685 q 102 494 210 540 l 36 582 q 127 644 93 608 q 164 746 162 680 l 36 746 l 36 994 l 304 994 l 304 793 m 1111 0 l 835 0 l 835 396 q 737 521 835 521 q 654 481 684 521 q 625 346 625 441 l 625 0 l 349 0 l 349 720 l 607 720 l 607 603 l 610 603 q 867 736 703 736 q 1049 664 987 736 q 1111 458 1111 593 l 1111 0 z "},"Ő":{"ha":1157,"x_min":63,"x_max":1093,"o":"m 63 496 q 199 876 63 740 q 576 1011 334 1011 q 959 878 825 1011 q 1093 505 1093 745 q 1035 219 1093 330 q 865 45 976 107 q 589 -17 754 -17 q 310 37 420 -17 q 132 206 200 90 q 63 496 63 322 m 370 495 q 426 279 370 345 q 578 213 482 213 q 732 277 677 213 q 786 509 786 342 q 729 714 786 649 q 576 779 673 779 q 427 713 483 779 q 370 495 370 647 m 430 1263 l 650 1263 l 450 1063 l 316 1063 l 430 1263 m 699 1263 l 922 1263 l 717 1063 l 587 1063 l 699 1263 z "},"ő":{"ha":926,"x_min":50,"x_max":877,"o":"m 50 358 q 161 630 50 523 q 461 736 272 736 q 788 611 677 736 q 877 362 877 510 q 767 90 877 196 q 462 -16 656 -16 q 181 72 288 -16 q 50 358 50 181 m 326 359 q 365 216 326 262 q 463 170 404 170 q 561 216 523 170 q 600 361 600 261 q 561 501 600 455 q 465 547 522 547 q 366 500 405 547 q 326 359 326 454 m 313 1011 l 534 1011 l 333 811 l 199 811 l 313 1011 m 583 1011 l 805 1011 l 600 811 l 471 811 l 583 1011 z "},"Ŕ":{"ha":1080,"x_min":106,"x_max":1084,"o":"m 106 0 l 106 994 l 618 994 q 836 970 760 994 q 957 879 911 945 q 1003 718 1003 813 q 968 575 1003 635 q 871 478 932 515 q 763 439 831 454 q 843 402 818 420 q 892 350 860 390 q 935 288 924 310 l 1084 0 l 736 0 l 572 304 q 517 380 541 363 q 441 404 484 404 l 414 404 l 414 0 l 106 0 m 414 591 l 544 591 q 625 605 565 591 q 675 636 656 611 q 694 694 694 661 q 664 768 694 742 q 549 793 633 793 l 414 793 l 414 591 m 558 1260 l 795 1260 l 576 1057 l 444 1057 l 558 1260 z "},"ŕ":{"ha":616,"x_min":86,"x_max":653,"o":"m 86 720 l 345 720 l 345 602 q 421 708 382 679 q 519 736 461 736 q 653 699 581 736 l 568 502 q 490 522 519 522 q 406 477 436 522 q 363 241 363 414 l 363 0 l 86 0 l 86 720 m 347 1011 l 585 1011 l 366 808 l 233 808 l 347 1011 z "},"Ř":{"ha":1080,"x_min":106,"x_max":1084,"o":"m 106 0 l 106 994 l 618 994 q 836 970 760 994 q 957 879 911 945 q 1003 718 1003 813 q 968 575 1003 635 q 871 478 932 515 q 763 439 831 454 q 843 402 818 420 q 892 350 860 390 q 935 288 924 310 l 1084 0 l 736 0 l 572 304 q 517 380 541 363 q 441 404 484 404 l 414 404 l 414 0 l 106 0 m 414 591 l 544 591 q 625 605 565 591 q 675 636 656 611 q 694 694 694 661 q 664 768 694 742 q 549 793 633 793 l 414 793 l 414 591 m 660 1059 l 465 1059 l 314 1253 l 481 1253 l 564 1149 l 647 1253 l 816 1253 l 660 1059 z "},"ř":{"ha":616,"x_min":86,"x_max":653,"o":"m 86 720 l 345 720 l 345 602 q 421 708 382 679 q 519 736 461 736 q 653 699 581 736 l 568 502 q 490 522 519 522 q 406 477 436 522 q 363 241 363 414 l 363 0 l 86 0 l 86 720 m 452 808 l 257 808 l 106 1002 l 274 1002 l 357 899 l 439 1002 l 608 1002 l 452 808 z "},"Ś":{"ha":1003,"x_min":48,"x_max":950,"o":"m 48 329 l 340 347 q 379 239 350 276 q 515 178 427 178 q 616 209 581 178 q 652 281 652 240 q 618 350 652 319 q 460 408 584 380 q 172 528 258 453 q 85 720 85 604 q 130 865 85 797 q 263 972 174 933 q 508 1011 353 1011 q 799 940 699 1011 q 918 715 899 869 l 628 698 q 579 795 616 765 q 477 826 543 826 q 397 803 424 826 q 370 748 370 781 q 392 705 370 724 q 495 669 414 686 q 784 581 696 625 q 910 471 871 536 q 950 323 950 405 q 897 147 950 228 q 749 25 844 66 q 510 -17 654 -17 q 159 81 256 -17 q 48 329 61 178 m 496 1263 l 734 1263 l 515 1060 l 382 1060 l 496 1263 z "},"ś":{"ha":848,"x_min":35,"x_max":800,"o":"m 35 199 l 309 225 q 356 155 326 176 q 437 134 387 134 q 524 158 493 134 q 547 202 547 176 q 516 248 547 232 q 397 277 494 260 q 198 323 254 302 q 103 395 142 345 q 65 511 65 446 q 106 634 65 583 q 220 711 148 686 q 415 736 293 736 q 605 717 544 736 q 708 656 667 697 q 776 544 749 614 l 514 518 q 480 569 504 553 q 401 591 448 591 q 333 574 355 591 q 312 534 312 557 q 339 494 312 507 q 457 469 366 480 q 662 426 595 454 q 765 347 729 398 q 800 233 800 295 q 763 112 800 171 q 644 18 725 53 q 423 -17 563 -17 q 142 39 226 -17 q 35 199 58 96 m 407 1011 l 644 1011 l 425 808 l 293 808 l 407 1011 z "},"Ţ":{"ha":1003,"x_min":32,"x_max":966,"o":"m 32 994 l 966 994 l 966 749 l 652 749 l 652 0 l 345 0 l 345 749 l 32 749 l 32 994 m 349 -112 l 370 -32 q 489 -16 433 -16 q 649 -56 605 -16 q 693 -149 693 -95 q 673 -216 693 -181 q 602 -271 653 -250 q 465 -292 550 -292 q 283 -275 387 -292 l 283 -191 q 433 -205 353 -205 q 512 -189 491 -205 q 532 -149 532 -174 q 515 -115 532 -129 q 463 -100 498 -100 q 349 -112 414 -100 z "},"ţ":{"ha":616,"x_min":38,"x_max":578,"o":"m 416 994 l 416 720 l 568 720 l 568 519 l 416 519 l 416 263 q 425 202 416 217 q 473 179 439 179 q 558 197 503 179 l 578 6 q 387 -16 476 -16 q 235 10 284 -16 q 163 91 186 37 q 140 265 140 144 l 140 519 l 38 519 l 38 720 l 140 720 l 140 852 l 416 994 m 228 -112 l 248 -32 q 368 -16 312 -16 q 528 -56 484 -16 q 572 -149 572 -95 q 552 -216 572 -181 q 480 -271 532 -250 q 343 -292 429 -292 q 161 -275 266 -292 l 161 -191 q 311 -205 232 -205 q 390 -189 370 -205 q 411 -149 411 -174 q 394 -115 411 -129 q 341 -100 377 -100 q 228 -112 293 -100 z "},"Ť":{"ha":1003,"x_min":32,"x_max":966,"o":"m 32 994 l 966 994 l 966 749 l 652 749 l 652 0 l 345 0 l 345 749 l 32 749 l 32 994 m 600 1059 l 404 1059 l 254 1253 l 421 1253 l 504 1149 l 587 1253 l 755 1253 l 600 1059 z "},"ť":{"ha":868,"x_min":38,"x_max":838,"o":"m 416 994 l 416 720 l 568 720 l 568 519 l 416 519 l 416 263 q 425 202 416 217 q 473 179 439 179 q 558 197 503 179 l 578 6 q 387 -16 476 -16 q 235 10 284 -16 q 163 91 186 37 q 140 265 140 144 l 140 519 l 38 519 l 38 720 l 140 720 l 140 852 l 416 994 m 655 994 l 838 994 l 838 861 q 808 746 838 788 q 703 671 778 703 l 655 741 q 738 834 737 778 l 655 834 l 655 994 z "},"Ů":{"ha":1157,"x_min":102,"x_max":1055,"o":"m 749 994 l 1055 994 l 1055 401 q 1028 235 1055 313 q 942 98 1000 157 q 819 16 883 39 q 604 -18 729 -18 q 445 -7 531 -18 q 302 33 359 3 q 196 119 244 63 q 131 233 149 174 q 102 401 102 328 l 102 994 l 409 994 l 409 387 q 454 260 409 306 q 579 214 499 214 q 704 259 659 214 q 749 387 749 304 l 749 994 m 742 1202 q 694 1087 742 1135 q 579 1040 646 1040 q 464 1087 511 1040 q 416 1202 416 1135 q 464 1318 416 1270 q 579 1366 511 1366 q 694 1318 646 1366 q 742 1202 742 1270 m 648 1203 q 628 1253 648 1232 q 578 1273 608 1273 q 529 1253 549 1273 q 509 1203 509 1232 q 529 1154 509 1174 q 578 1133 549 1133 q 628 1154 608 1133 q 648 1203 648 1174 z "},"ů":{"ha":926,"x_min":81,"x_max":842,"o":"m 842 0 l 585 0 l 585 117 q 468 14 527 45 q 324 -16 410 -16 q 145 52 210 -16 q 81 262 81 120 l 81 720 l 358 720 l 358 324 q 383 228 358 256 q 454 199 408 199 q 535 237 503 199 q 566 374 566 275 l 566 720 l 842 720 l 842 0 m 626 951 q 578 836 626 884 q 463 789 530 789 q 348 836 395 789 q 300 951 300 884 q 348 1067 300 1019 q 463 1115 395 1115 q 578 1067 530 1115 q 626 951 626 1019 m 532 952 q 512 1002 532 981 q 463 1022 492 1022 q 413 1002 433 1022 q 393 952 393 981 q 413 903 393 923 q 463 882 433 882 q 512 903 492 882 q 532 952 532 923 z "},"Ű":{"ha":1157,"x_min":102,"x_max":1055,"o":"m 749 994 l 1055 994 l 1055 401 q 1028 235 1055 313 q 942 98 1000 157 q 819 16 883 39 q 604 -18 729 -18 q 445 -7 531 -18 q 302 33 359 3 q 196 119 244 63 q 131 233 149 174 q 102 401 102 328 l 102 994 l 409 994 l 409 387 q 454 260 409 306 q 579 214 499 214 q 704 259 659 214 q 749 387 749 304 l 749 994 m 489 1262 l 709 1262 l 509 1062 l 375 1062 l 489 1262 m 758 1262 l 981 1262 l 776 1062 l 646 1062 l 758 1262 z "},"ű":{"ha":926,"x_min":81,"x_max":842,"o":"m 842 0 l 585 0 l 585 117 q 468 14 527 45 q 324 -16 410 -16 q 145 52 210 -16 q 81 262 81 120 l 81 720 l 358 720 l 358 324 q 383 228 358 256 q 454 199 408 199 q 535 237 503 199 q 566 374 566 275 l 566 720 l 842 720 l 842 0 m 311 1011 l 531 1011 l 330 811 l 197 811 l 311 1011 m 580 1011 l 802 1011 l 597 811 l 468 811 l 580 1011 z "},"Ź":{"ha":1003,"x_min":23,"x_max":966,"o":"m 77 994 l 946 994 l 946 795 l 389 214 l 966 214 l 966 0 l 23 0 l 23 206 l 574 782 l 77 782 l 77 994 m 492 1263 l 730 1263 l 511 1060 l 378 1060 l 492 1263 z "},"ź":{"ha":772,"x_min":25,"x_max":743,"o":"m 52 720 l 720 720 l 720 559 l 357 189 l 743 189 l 743 0 l 25 0 l 25 179 l 370 532 l 52 532 l 52 720 m 382 1011 l 620 1011 l 401 808 l 269 808 l 382 1011 z "},"Ż":{"ha":1003,"x_min":23,"x_max":966,"o":"m 77 994 l 946 994 l 946 795 l 389 214 l 966 214 l 966 0 l 23 0 l 23 206 l 574 782 l 77 782 l 77 994 m 413 1258 l 626 1258 l 626 1055 l 413 1055 l 413 1258 z "},"ż":{"ha":772,"x_min":25,"x_max":743,"o":"m 52 720 l 720 720 l 720 559 l 357 189 l 743 189 l 743 0 l 25 0 l 25 179 l 370 532 l 52 532 l 52 720 m 282 1015 l 495 1015 l 495 811 l 282 811 l 282 1015 z "},"‗":{"ha":694,"x_min":-8,"x_max":703,"o":"m 703 -104 l -8 -104 l -8 -35 l 703 -35 l 703 -104 m 703 -243 l -8 -243 l -8 -174 l 703 -174 l 703 -243 z "},"′":{"ha":422,"x_min":85,"x_max":353,"o":"m 353 1011 l 216 739 l 85 739 l 115 1011 l 353 1011 z "},"″":{"ha":728,"x_min":81,"x_max":660,"o":"m 660 1011 l 524 739 l 392 739 l 422 1011 l 660 1011 m 349 1011 l 212 739 l 81 739 l 111 1011 l 349 1011 z "},"‼":{"ha":839,"x_min":85,"x_max":757,"o":"m 757 768 l 700 313 l 519 313 l 463 768 l 463 994 l 757 994 l 757 768 m 379 768 l 322 313 l 142 313 l 85 768 l 85 994 l 379 994 l 379 768 m 747 0 l 472 0 l 472 243 l 747 243 l 747 0 m 370 0 l 94 0 l 94 243 l 370 243 l 370 0 z "},"ⁿ":{"ha":606,"x_min":47,"x_max":564,"o":"m 564 505 l 378 505 l 378 774 q 313 860 378 860 q 235 739 235 860 l 235 505 l 47 505 l 47 994 l 221 994 l 221 914 l 227 914 q 400 1006 287 1006 q 522 957 481 1006 q 564 817 564 907 l 564 505 z "},"₧":{"ha":2392,"x_min":100,"x_max":2344,"o":"m 100 994 l 611 994 q 861 915 778 994 q 944 689 944 836 q 853 454 944 538 q 577 369 763 369 l 409 369 l 409 0 l 100 0 l 100 994 m 409 570 l 484 570 q 609 601 573 570 q 645 680 645 632 q 614 760 645 727 q 496 792 583 792 l 409 792 l 409 570 m 1366 994 l 1366 720 l 1518 720 l 1518 519 l 1366 519 l 1366 263 q 1375 202 1366 217 q 1422 179 1388 179 q 1508 197 1453 179 l 1528 6 q 1337 -16 1426 -16 q 1185 10 1234 -16 q 1113 91 1136 37 q 1089 265 1089 144 l 1089 519 l 987 519 l 987 720 l 1089 720 l 1089 852 l 1366 994 m 1578 199 l 1852 225 q 1900 155 1869 176 q 1981 134 1930 134 q 2067 158 2037 134 q 2091 202 2091 176 q 2060 248 2091 232 q 1941 277 2037 260 q 1741 323 1797 302 q 1647 395 1685 345 q 1609 511 1609 446 q 1650 634 1609 583 q 1764 711 1691 686 q 1959 736 1836 736 q 2149 717 2087 736 q 2251 656 2210 697 q 2319 544 2292 614 l 2058 518 q 2024 569 2047 553 q 1945 591 1991 591 q 1877 574 1898 591 q 1855 534 1855 557 q 1883 494 1855 507 q 2001 469 1910 480 q 2205 426 2138 454 q 2308 347 2273 398 q 2344 233 2344 295 q 2306 112 2344 171 q 2187 18 2268 53 q 1967 -17 2106 -17 q 1686 39 1769 -17 q 1578 199 1602 96 z "},"℅":{"ha":1389,"x_min":66,"x_max":1322,"o":"m 1054 1011 l 481 -50 l 339 -50 l 911 1011 l 1054 1011 m 595 653 q 508 532 572 576 q 353 489 445 489 q 66 750 66 489 q 350 1011 66 1011 q 595 851 554 1011 l 431 822 q 350 880 416 880 q 282 845 307 880 q 257 750 257 810 q 350 623 257 623 q 440 686 420 623 l 595 653 m 1053 473 q 1253 399 1183 473 q 1322 212 1322 325 q 1253 26 1322 100 q 1053 -49 1183 -49 q 853 25 922 -49 q 783 212 783 100 q 853 399 783 325 q 1053 473 922 473 m 1053 79 q 1113 110 1095 79 q 1132 212 1132 140 q 1053 346 1132 346 q 974 212 974 346 q 992 110 974 140 q 1053 79 1011 79 z "},"ℓ":{"ha":814,"x_min":178,"x_max":667,"o":"m 422 368 q 385 115 385 170 q 404 78 385 78 q 460 143 430 78 q 492 172 474 172 q 518 141 518 172 q 472 32 518 86 q 362 -22 425 -22 q 280 22 311 -22 q 250 182 250 66 q 252 243 250 205 q 205 206 216 206 q 188 217 197 206 q 178 245 178 227 q 197 283 178 262 q 262 359 243 335 q 375 768 304 599 q 555 938 447 938 q 638 900 609 938 q 667 807 667 863 q 422 368 667 612 m 443 494 q 543 646 504 562 q 582 795 582 730 q 558 845 582 845 q 503 756 531 845 q 443 494 474 667 z "},"←":{"ha":1389,"x_min":54,"x_max":1335,"o":"m 334 594 l 385 594 q 253 385 330 479 l 1335 385 l 1335 316 l 253 316 q 387 106 322 247 l 334 106 q 54 338 183 278 l 54 368 q 334 594 174 416 z "},"↑":{"ha":694,"x_min":104,"x_max":591,"o":"m 104 712 q 330 992 281 872 l 361 992 q 591 711 420 862 l 591 659 q 382 792 451 724 l 382 -291 l 313 -291 l 313 792 q 104 660 219 715 l 104 712 z "},"→":{"ha":1389,"x_min":54,"x_max":1335,"o":"m 1055 594 q 1335 368 1215 416 l 1335 338 q 1054 106 1205 278 l 1002 106 q 1135 316 1066 247 l 54 316 l 54 385 l 1135 385 q 1003 594 1058 479 l 1055 594 z "},"↓":{"ha":694,"x_min":104,"x_max":591,"o":"m 104 -11 l 104 41 q 313 -92 219 -14 l 313 992 l 382 992 l 382 -92 q 591 42 451 -22 l 591 -10 q 361 -291 420 -161 l 330 -291 q 104 -11 281 -172 z "},"↔":{"ha":1389,"x_min":54,"x_max":1335,"o":"m 1335 366 l 1335 336 q 1059 107 1212 282 l 1005 107 q 1137 318 1052 224 l 252 318 q 383 107 336 224 l 329 107 q 54 336 177 282 l 54 366 q 329 595 177 420 l 383 595 q 252 385 336 479 l 1137 385 q 1005 595 1052 479 l 1059 595 q 1335 366 1212 420 z "},"↕":{"ha":694,"x_min":103,"x_max":591,"o":"m 332 992 l 362 992 q 591 716 416 869 l 591 662 q 380 794 475 709 l 380 -92 q 591 40 475 -6 l 591 -14 q 362 -290 416 -166 l 332 -290 q 103 -14 278 -166 l 103 40 q 314 -92 219 -6 l 314 794 q 103 662 219 709 l 103 716 q 332 992 278 869 z "},"↨":{"ha":694,"x_min":103,"x_max":591,"o":"m 332 992 l 362 992 q 591 716 416 869 l 591 662 q 380 794 475 709 l 380 -92 q 591 40 475 -6 l 591 -14 q 362 -290 416 -166 l 332 -290 q 103 -14 278 -166 l 103 40 q 314 -92 219 -6 l 314 794 q 103 662 219 709 l 103 716 q 332 992 278 869 m 104 -354 l 591 -354 l 591 -420 l 104 -420 l 104 -354 z "},"∟":{"ha":1360,"x_min":245,"x_max":1114,"o":"m 245 867 l 313 867 l 313 68 l 1114 68 l 1114 0 l 245 0 l 245 867 z "},"∩":{"ha":998,"x_min":130,"x_max":869,"o":"m 205 0 l 130 0 l 130 380 q 132 534 131 460 q 145 664 133 608 q 185 767 157 720 q 263 854 214 813 q 374 917 313 895 q 499 939 435 939 q 681 891 597 939 q 807 777 766 843 q 859 637 849 711 q 869 380 869 564 l 869 0 l 795 0 l 795 384 q 787 610 795 541 q 746 734 779 679 q 645 828 713 789 q 499 867 576 867 q 353 827 422 867 q 253 734 284 788 q 213 611 221 681 q 205 384 205 542 l 205 0 z "},"≡":{"ha":833,"x_min":86,"x_max":747,"o":"m 747 678 l 747 595 l 86 595 l 86 678 l 747 678 m 747 515 l 747 431 l 86 431 l 86 515 l 747 515 m 747 351 l 747 267 l 86 267 l 86 351 l 747 351 z "},"□":{"ha":839,"x_min":99,"x_max":739,"o":"m 99 640 l 739 640 l 739 0 l 99 0 l 99 640 m 151 589 l 151 52 l 688 52 l 688 589 l 151 589 z "},"▪":{"ha":492,"x_min":89,"x_max":403,"o":"m 403 616 l 403 302 l 89 302 l 89 616 l 403 616 z "},"▫":{"ha":492,"x_min":89,"x_max":403,"o":"m 403 616 l 403 302 l 89 302 l 89 616 l 403 616 m 351 565 l 140 564 l 140 353 l 351 353 l 351 565 z "},"●":{"ha":839,"x_min":121,"x_max":718,"o":"m 420 690 q 630 603 543 690 q 718 392 718 515 q 631 181 718 269 q 420 93 543 93 q 209 181 296 93 q 121 392 121 269 q 210 605 121 520 q 420 690 299 690 z "},"◦":{"ha":492,"x_min":76,"x_max":416,"o":"m 246 629 q 366 581 315 629 q 416 459 416 532 q 367 339 416 389 q 246 289 317 289 q 126 339 176 289 q 76 459 76 389 q 126 579 76 530 q 246 629 176 629 m 246 578 q 163 544 198 578 q 127 459 127 510 q 162 375 127 410 q 246 340 197 340 q 330 375 295 340 q 365 459 365 410 q 330 544 365 509 q 246 578 294 578 z "},"Ā":{"ha":1080,"x_min":1,"x_max":1084,"o":"m 713 164 l 363 164 l 315 0 l 1 0 l 375 994 l 710 994 l 1084 0 l 762 0 l 713 164 m 649 379 l 539 736 l 430 379 l 649 379 m 319 1211 l 758 1211 l 758 1064 l 319 1064 l 319 1211 z "},"ā":{"ha":926,"x_min":50,"x_max":879,"o":"m 335 487 l 71 515 q 114 624 86 584 q 195 692 142 663 q 300 725 233 713 q 444 736 366 736 q 643 723 568 736 q 768 665 718 709 q 824 578 804 634 q 844 471 844 522 l 844 153 q 851 74 844 102 q 879 0 857 45 l 620 0 q 600 42 604 28 q 590 88 595 57 q 482 14 536 36 q 312 -16 409 -16 q 116 43 183 -16 q 50 191 50 103 q 98 326 50 273 q 275 404 146 378 q 477 448 431 435 q 574 481 523 460 q 553 552 574 532 q 479 572 532 572 q 378 551 412 572 q 335 487 351 534 m 574 342 q 456 306 517 321 q 349 262 372 283 q 326 211 326 239 q 349 158 326 178 q 416 137 372 137 q 502 159 462 137 q 558 214 541 182 q 574 298 574 246 l 574 342 m 245 981 l 684 981 l 684 833 l 245 833 l 245 981 z "},"Ĉ":{"ha":1080,"x_min":66,"x_max":1033,"o":"m 764 406 l 1033 325 q 947 136 1006 212 q 803 21 889 60 q 583 -18 716 -18 q 318 30 420 -18 q 140 195 215 77 q 66 499 66 314 q 197 879 66 746 q 568 1011 328 1011 q 864 935 756 1011 q 1023 702 971 859 l 752 642 q 722 708 738 687 q 659 762 696 743 q 576 781 622 781 q 416 697 471 781 q 374 501 374 635 q 424 274 374 336 q 565 213 474 213 q 698 262 653 213 q 764 406 743 312 m 462 1260 l 658 1260 l 808 1066 l 640 1066 l 557 1170 l 475 1066 l 307 1066 l 462 1260 z "},"ĉ":{"ha":926,"x_min":50,"x_max":883,"o":"m 621 281 l 883 252 q 812 110 861 170 q 685 16 762 50 q 490 -17 608 -17 q 299 4 375 -17 q 168 74 222 26 q 81 186 113 121 q 50 357 50 250 q 88 542 50 468 q 164 639 116 596 q 263 703 212 682 q 470 736 344 736 q 739 673 646 736 q 869 489 831 610 l 609 454 q 565 524 597 500 q 478 547 532 547 q 367 498 410 547 q 325 349 325 449 q 367 214 325 260 q 474 168 409 168 q 565 196 528 168 q 621 281 602 224 m 380 1002 l 576 1002 l 727 808 l 559 808 l 476 912 l 393 808 l 225 808 l 380 1002 z "},"Ċ":{"ha":1080,"x_min":66,"x_max":1033,"o":"m 764 406 l 1033 325 q 947 136 1006 212 q 803 21 889 60 q 583 -18 716 -18 q 318 30 420 -18 q 140 195 215 77 q 66 499 66 314 q 197 879 66 746 q 568 1011 328 1011 q 864 935 756 1011 q 1023 702 971 859 l 752 642 q 722 708 738 687 q 659 762 696 743 q 576 781 622 781 q 416 697 471 781 q 374 501 374 635 q 424 274 374 336 q 565 213 474 213 q 698 262 653 213 q 764 406 743 312 m 448 1267 l 661 1267 l 661 1063 l 448 1063 l 448 1267 z "},"ċ":{"ha":926,"x_min":50,"x_max":883,"o":"m 621 281 l 883 252 q 812 110 861 170 q 685 16 762 50 q 490 -17 608 -17 q 299 4 375 -17 q 168 74 222 26 q 81 186 113 121 q 50 357 50 250 q 88 542 50 468 q 164 639 116 596 q 263 703 212 682 q 470 736 344 736 q 739 673 646 736 q 869 489 831 610 l 609 454 q 565 524 597 500 q 478 547 532 547 q 367 498 410 547 q 325 349 325 449 q 367 214 325 260 q 474 168 409 168 q 565 196 528 168 q 621 281 602 224 m 363 1015 l 576 1015 l 576 811 l 363 811 l 363 1015 z "},"Ē":{"ha":1003,"x_min":101,"x_max":939,"o":"m 101 994 l 924 994 l 924 782 l 409 782 l 409 624 l 887 624 l 887 421 l 409 421 l 409 225 l 939 225 l 939 0 l 101 0 l 101 994 m 305 1211 l 744 1211 l 744 1064 l 305 1064 l 305 1211 z "},"ē":{"ha":926,"x_min":49,"x_max":883,"o":"m 883 292 l 330 292 q 366 193 337 225 q 470 146 406 146 q 547 166 511 146 q 595 212 570 179 l 867 186 q 717 31 805 78 q 464 -16 629 -16 q 239 24 321 -16 q 103 152 157 64 q 49 359 49 240 q 157 632 49 528 q 456 736 265 736 q 700 690 610 736 q 836 554 789 643 q 883 323 883 465 l 883 292 m 602 424 q 559 538 594 504 q 467 573 524 573 q 362 521 401 573 q 330 424 337 488 l 602 424 m 256 981 l 695 981 l 695 833 l 256 833 l 256 981 z "},"Ĕ":{"ha":1003,"x_min":101,"x_max":939,"o":"m 101 994 l 924 994 l 924 782 l 409 782 l 409 624 l 887 624 l 887 421 l 409 421 l 409 225 l 939 225 l 939 0 l 101 0 l 101 994 m 633 1269 l 745 1269 q 715 1161 741 1204 q 635 1090 688 1117 q 519 1064 581 1064 q 354 1118 416 1064 q 282 1269 292 1172 l 399 1269 q 437 1213 412 1230 q 513 1196 463 1196 q 597 1213 572 1196 q 633 1269 623 1230 z "},"ĕ":{"ha":926,"x_min":49,"x_max":883,"o":"m 883 292 l 330 292 q 366 193 337 225 q 470 146 406 146 q 547 166 511 146 q 595 212 570 179 l 867 186 q 717 31 805 78 q 464 -16 629 -16 q 239 24 321 -16 q 103 152 157 64 q 49 359 49 240 q 157 632 49 528 q 456 736 265 736 q 700 690 610 736 q 836 554 789 643 q 883 323 883 465 l 883 292 m 602 424 q 559 538 594 504 q 467 573 524 573 q 362 521 401 573 q 330 424 337 488 l 602 424 m 574 1011 l 686 1011 q 655 903 682 947 q 575 833 629 859 q 459 806 522 806 q 294 860 356 806 q 222 1011 233 914 l 339 1011 q 378 955 353 972 q 453 939 403 939 q 537 955 512 939 q 574 1011 563 972 z "},"Ė":{"ha":1003,"x_min":101,"x_max":939,"o":"m 101 994 l 924 994 l 924 782 l 409 782 l 409 624 l 887 624 l 887 421 l 409 421 l 409 225 l 939 225 l 939 0 l 101 0 l 101 994 m 418 1267 l 631 1267 l 631 1063 l 418 1063 l 418 1267 z "},"ė":{"ha":926,"x_min":49,"x_max":883,"o":"m 883 292 l 330 292 q 366 193 337 225 q 470 146 406 146 q 547 166 511 146 q 595 212 570 179 l 867 186 q 717 31 805 78 q 464 -16 629 -16 q 239 24 321 -16 q 103 152 157 64 q 49 359 49 240 q 157 632 49 528 q 456 736 265 736 q 700 690 610 736 q 836 554 789 643 q 883 323 883 465 l 883 292 m 602 424 q 559 538 594 504 q 467 573 524 573 q 362 521 401 573 q 330 424 337 488 l 602 424 m 363 1015 l 576 1015 l 576 811 l 363 811 l 363 1015 z "},"Ĝ":{"ha":1157,"x_min":64,"x_max":1076,"o":"m 602 360 l 602 567 l 1076 567 l 1076 143 q 835 17 940 50 q 587 -17 730 -17 q 298 43 410 -17 q 125 223 186 104 q 64 497 64 342 q 131 780 64 660 q 328 963 198 901 q 600 1011 429 1011 q 846 981 764 1011 q 982 889 928 951 q 1063 730 1036 826 l 766 677 q 704 763 748 733 q 593 793 661 793 q 432 723 492 793 q 372 500 372 652 q 432 270 372 339 q 602 201 493 201 q 700 216 653 201 q 807 267 747 231 l 807 360 l 602 360 m 500 1260 l 696 1260 l 846 1066 l 678 1066 l 595 1170 l 513 1066 l 345 1066 l 500 1260 z "},"ĝ":{"ha":926,"x_min":50,"x_max":844,"o":"m 585 720 l 843 720 l 843 40 l 844 8 q 815 -121 844 -60 q 738 -220 786 -182 q 617 -275 690 -258 q 448 -292 543 -292 q 150 -227 231 -292 q 69 -53 69 -162 q 71 -16 69 -39 l 338 -47 q 370 -98 349 -84 q 446 -119 400 -119 q 535 -87 506 -119 q 565 24 565 -56 l 565 133 q 484 63 524 85 q 346 29 420 29 q 113 155 201 29 q 50 392 50 245 q 131 648 50 560 q 344 736 212 736 q 483 708 428 736 q 585 614 537 680 l 585 720 m 325 371 q 358 255 325 293 q 446 218 391 218 q 532 257 497 218 q 567 374 567 296 q 530 495 567 453 q 441 536 494 536 q 356 498 388 536 q 325 371 325 460 m 367 1002 l 563 1002 l 713 808 l 545 808 l 463 912 l 380 808 l 212 808 l 367 1002 z "},"Ġ":{"ha":1157,"x_min":64,"x_max":1076,"o":"m 602 360 l 602 567 l 1076 567 l 1076 143 q 835 17 940 50 q 587 -17 730 -17 q 298 43 410 -17 q 125 223 186 104 q 64 497 64 342 q 131 780 64 660 q 328 963 198 901 q 600 1011 429 1011 q 846 981 764 1011 q 982 889 928 951 q 1063 730 1036 826 l 766 677 q 704 763 748 733 q 593 793 661 793 q 432 723 492 793 q 372 500 372 652 q 432 270 372 339 q 602 201 493 201 q 700 216 653 201 q 807 267 747 231 l 807 360 l 602 360 m 488 1267 l 701 1267 l 701 1063 l 488 1063 l 488 1267 z "},"ġ":{"ha":926,"x_min":50,"x_max":844,"o":"m 585 720 l 843 720 l 843 40 l 844 8 q 815 -121 844 -60 q 738 -220 786 -182 q 617 -275 690 -258 q 448 -292 543 -292 q 150 -227 231 -292 q 69 -53 69 -162 q 71 -16 69 -39 l 338 -47 q 370 -98 349 -84 q 446 -119 400 -119 q 535 -87 506 -119 q 565 24 565 -56 l 565 133 q 484 63 524 85 q 346 29 420 29 q 113 155 201 29 q 50 392 50 245 q 131 648 50 560 q 344 736 212 736 q 483 708 428 736 q 585 614 537 680 l 585 720 m 325 371 q 358 255 325 293 q 446 218 391 218 q 532 257 497 218 q 567 374 567 296 q 530 495 567 453 q 441 536 494 536 q 356 498 388 536 q 325 371 325 460 m 355 1015 l 568 1015 l 568 811 l 355 811 l 355 1015 z "},"Ģ":{"ha":1157,"x_min":64,"x_max":1076,"o":"m 602 360 l 602 567 l 1076 567 l 1076 143 q 835 17 940 50 q 587 -17 730 -17 q 298 43 410 -17 q 125 223 186 104 q 64 497 64 342 q 131 780 64 660 q 328 963 198 901 q 600 1011 429 1011 q 846 981 764 1011 q 982 889 928 951 q 1063 730 1036 826 l 766 677 q 704 763 748 733 q 593 793 661 793 q 432 723 492 793 q 372 500 372 652 q 432 270 372 339 q 602 201 493 201 q 700 216 653 201 q 807 267 747 231 l 807 360 l 602 360 m 480 -112 l 500 -32 q 620 -16 564 -16 q 780 -56 736 -16 q 824 -149 824 -95 q 804 -216 824 -181 q 732 -271 784 -250 q 595 -292 681 -292 q 414 -275 518 -292 l 414 -191 q 564 -205 484 -205 q 643 -189 622 -205 q 663 -149 663 -174 q 646 -115 663 -129 q 593 -100 629 -100 q 480 -112 545 -100 z "},"ģ":{"ha":926,"x_min":50,"x_max":844,"o":"m 585 720 l 843 720 l 843 40 l 844 8 q 815 -121 844 -60 q 738 -220 786 -182 q 617 -275 690 -258 q 448 -292 543 -292 q 150 -227 231 -292 q 69 -53 69 -162 q 71 -16 69 -39 l 338 -47 q 370 -98 349 -84 q 446 -119 400 -119 q 535 -87 506 -119 q 565 24 565 -56 l 565 133 q 484 63 524 85 q 346 29 420 29 q 113 155 201 29 q 50 392 50 245 q 131 648 50 560 q 344 736 212 736 q 483 708 428 736 q 585 614 537 680 l 585 720 m 325 371 q 358 255 325 293 q 446 218 391 218 q 532 257 497 218 q 567 374 567 296 q 530 495 567 453 q 441 536 494 536 q 356 498 388 536 q 325 371 325 460 m 564 809 l 380 809 l 380 942 q 411 1058 380 1015 q 515 1133 441 1100 l 564 1062 q 481 969 481 1025 l 564 969 l 564 809 z "},"Ĥ":{"ha":1157,"x_min":103,"x_max":1055,"o":"m 103 994 l 410 994 l 410 646 l 746 646 l 746 994 l 1055 994 l 1055 0 l 746 0 l 746 402 l 410 402 l 410 0 l 103 0 l 103 994 m 484 1260 l 680 1260 l 830 1066 l 662 1066 l 579 1170 l 496 1066 l 328 1066 l 484 1260 z "},"ĥ":{"ha":926,"x_min":83,"x_max":845,"o":"m 83 994 l 359 994 l 359 628 q 471 711 416 686 q 603 736 527 736 q 780 668 715 736 q 845 458 845 600 l 845 0 l 568 0 l 568 396 q 543 492 568 464 q 472 520 517 520 q 391 482 422 520 q 359 346 359 444 l 359 0 l 83 0 l 83 994 m 370 1257 l 566 1257 l 716 1063 l 548 1063 l 465 1167 l 382 1063 l 214 1063 l 370 1257 z "},"Ħ":{"ha":1157,"x_min":12,"x_max":1145,"o":"m 1145 747 l 1054 747 l 1054 0 l 747 0 l 747 401 l 410 401 l 410 0 l 103 0 l 103 747 l 12 747 l 12 897 l 103 897 l 103 994 l 410 994 l 410 897 l 747 897 l 747 994 l 1054 994 l 1054 897 l 1145 897 l 1145 747 m 747 646 l 747 747 l 410 747 l 410 646 l 747 646 z "},"ħ":{"ha":926,"x_min":14,"x_max":846,"o":"m 846 0 l 570 0 l 570 396 q 472 521 570 521 q 389 481 418 521 q 359 346 359 441 l 359 0 l 83 0 l 83 804 l 14 804 l 14 930 l 83 930 l 83 994 l 359 994 l 359 930 l 536 930 l 536 804 l 359 804 l 359 628 q 604 736 457 736 q 785 664 724 736 q 846 458 846 591 l 846 0 z "},"Ĩ":{"ha":541,"x_min":30,"x_max":519,"o":"m 114 994 l 422 994 l 422 0 l 114 0 l 114 994 m 412 1252 l 519 1252 q 519 1221 519 1234 q 481 1105 519 1146 q 384 1063 444 1063 q 252 1099 340 1063 q 178 1121 199 1121 q 148 1109 159 1121 q 136 1065 137 1097 l 31 1065 q 30 1094 30 1082 q 70 1209 30 1166 q 165 1252 110 1252 q 210 1246 189 1252 q 287 1217 231 1241 q 370 1194 344 1194 q 399 1206 388 1194 q 412 1252 410 1219 z "},"ĩ":{"ha":463,"x_min":-5,"x_max":484,"o":"m 94 720 l 370 720 l 370 0 l 94 0 l 94 720 m 376 994 l 484 994 q 484 964 484 977 q 446 847 484 888 q 349 806 408 806 q 217 842 305 806 q 143 863 163 863 q 113 851 123 863 q 101 808 102 839 l -5 808 q -5 836 -5 824 q 35 951 -5 909 q 130 994 75 994 q 174 989 153 994 q 252 960 195 983 q 334 936 309 936 q 364 948 353 936 q 376 994 375 961 z "},"Ī":{"ha":541,"x_min":53,"x_max":492,"o":"m 114 994 l 422 994 l 422 0 l 114 0 l 114 994 m 53 1211 l 492 1211 l 492 1064 l 53 1064 l 53 1211 z "},"ī":{"ha":463,"x_min":12,"x_max":451,"o":"m 94 720 l 370 720 l 370 0 l 94 0 l 94 720 m 12 981 l 451 981 l 451 833 l 12 833 l 12 981 z "},"Ĭ":{"ha":541,"x_min":41,"x_max":504,"o":"m 114 994 l 422 994 l 422 0 l 114 0 l 114 994 m 392 1272 l 504 1272 q 473 1163 500 1207 q 393 1093 447 1120 q 277 1067 340 1067 q 113 1121 174 1067 q 41 1272 51 1175 l 157 1272 q 196 1216 171 1232 q 271 1199 221 1199 q 356 1216 330 1199 q 392 1272 381 1232 z "},"ĭ":{"ha":463,"x_min":0,"x_max":463,"o":"m 94 720 l 370 720 l 370 0 l 94 0 l 94 720 m 351 1011 l 463 1011 q 433 903 459 947 q 353 833 406 859 q 237 806 299 806 q 72 860 134 806 q 0 1011 10 914 l 117 1011 q 155 955 130 972 q 231 939 180 939 q 315 955 290 939 q 351 1011 340 972 z "},"Į":{"ha":541,"x_min":117,"x_max":473,"o":"m 473 -272 q 330 -302 397 -302 q 204 -260 250 -302 q 158 -144 158 -217 q 186 0 158 -85 l 117 0 l 117 994 l 424 994 l 424 0 l 301 0 q 293 -81 293 -44 q 387 -184 293 -184 q 473 -167 418 -184 l 473 -272 z "},"į":{"ha":463,"x_min":93,"x_max":418,"o":"m 418 -272 q 275 -302 341 -302 q 149 -260 195 -302 q 103 -144 103 -217 q 131 0 103 -85 l 93 0 l 93 720 l 370 720 l 370 0 l 245 0 q 237 -81 237 -44 q 332 -184 237 -184 q 418 -167 363 -184 l 418 -272 m 94 994 l 370 994 l 370 806 l 94 806 l 94 994 z "},"Ĵ":{"ha":926,"x_min":24,"x_max":823,"o":"m 515 994 l 823 994 l 823 454 q 793 195 823 283 q 672 44 763 106 q 438 -18 581 -18 q 205 23 288 -18 q 77 142 122 64 q 24 336 32 220 l 317 376 q 329 278 318 310 q 366 227 340 246 q 416 214 383 214 q 491 252 467 214 q 515 381 515 290 l 515 994 m 378 1257 l 574 1257 l 724 1063 l 556 1063 l 473 1167 l 391 1063 l 222 1063 l 378 1257 z "},"ĵ":{"ha":463,"x_min":-68,"x_max":479,"o":"m 479 808 l 311 808 l 229 913 l 146 808 l -22 808 l 134 1003 l 329 1003 l 479 808 m 94 720 l 371 720 l 371 22 q 352 -168 371 -112 q 280 -258 332 -223 q 131 -292 228 -292 q -68 -269 51 -292 l -26 -68 q 22 -75 7 -75 q 76 -51 58 -75 q 94 45 94 -26 l 94 720 z "},"Ķ":{"ha":1157,"x_min":103,"x_max":1157,"o":"m 103 994 l 410 994 l 410 618 l 732 994 l 1141 994 l 779 619 l 1157 0 l 779 0 l 569 409 l 410 243 l 410 0 l 103 0 l 103 994 m 506 -82 l 689 -82 l 689 -215 q 659 -331 689 -288 q 554 -406 629 -373 l 506 -335 q 589 -242 588 -298 l 506 -242 l 506 -82 z "},"ķ":{"ha":926,"x_min":83,"x_max":926,"o":"m 83 994 l 366 994 l 366 481 l 572 720 l 911 720 l 653 468 l 926 0 l 615 0 l 469 289 l 366 187 l 366 0 l 83 0 l 83 994 m 389 -82 l 572 -82 l 572 -215 q 542 -331 572 -288 q 437 -406 512 -373 l 389 -335 q 472 -242 471 -298 l 389 -242 l 389 -82 z "},"ĸ":{"ha":926,"x_min":83,"x_max":921,"o":"m 921 0 l 610 0 l 464 289 l 359 187 l 359 0 l 83 0 l 83 720 l 359 720 l 359 481 l 567 720 l 905 720 l 648 468 l 921 0 z "},"Ļ":{"ha":926,"x_min":102,"x_max":888,"o":"m 102 994 l 409 994 l 409 245 l 888 245 l 888 0 l 102 0 l 102 994 m 361 -112 l 381 -32 q 500 -16 445 -16 q 661 -56 616 -16 q 705 -149 705 -95 q 685 -216 705 -181 q 613 -271 665 -250 q 476 -292 562 -292 q 294 -275 399 -292 l 294 -191 q 444 -205 365 -205 q 523 -189 503 -205 q 544 -149 544 -174 q 527 -115 544 -129 q 474 -100 510 -100 q 361 -112 426 -100 z "},"ļ":{"ha":463,"x_min":12,"x_max":422,"o":"m 93 994 l 370 994 l 370 0 l 93 0 l 93 994 m 79 -112 l 99 -32 q 218 -16 163 -16 q 378 -56 334 -16 q 422 -149 422 -95 q 402 -216 422 -181 q 331 -271 382 -250 q 194 -292 279 -292 q 12 -275 117 -292 l 12 -191 q 162 -205 83 -205 q 241 -189 220 -205 q 262 -149 262 -174 q 245 -115 262 -129 q 192 -100 228 -100 q 79 -112 144 -100 z "},"Ņ":{"ha":1157,"x_min":104,"x_max":1055,"o":"m 104 994 l 391 994 l 765 444 l 765 994 l 1055 994 l 1055 0 l 765 0 l 393 546 l 393 0 l 104 0 l 104 994 m 453 -112 l 473 -32 q 593 -16 537 -16 q 753 -56 709 -16 q 797 -149 797 -95 q 777 -216 797 -181 q 705 -271 757 -250 q 568 -292 654 -292 q 387 -275 491 -292 l 387 -191 q 536 -205 457 -205 q 615 -189 595 -205 q 636 -149 636 -174 q 619 -115 636 -129 q 566 -100 602 -100 q 453 -112 518 -100 z "},"ņ":{"ha":926,"x_min":83,"x_max":845,"o":"m 83 720 l 340 720 l 340 603 q 457 706 398 675 q 601 736 516 736 q 780 668 715 736 q 845 458 845 600 l 845 0 l 568 0 l 568 396 q 543 492 568 464 q 472 520 517 520 q 391 482 422 520 q 359 346 359 444 l 359 0 l 83 0 l 83 720 m 355 -112 l 376 -32 q 495 -16 439 -16 q 655 -56 611 -16 q 699 -149 699 -95 q 679 -216 699 -181 q 608 -271 659 -250 q 471 -292 556 -292 q 289 -275 393 -292 l 289 -191 q 439 -205 359 -205 q 518 -189 497 -205 q 538 -149 538 -174 q 522 -115 538 -129 q 469 -100 505 -100 q 355 -112 420 -100 z "},"Ŋ":{"ha":1131,"x_min":103,"x_max":1068,"o":"m 395 878 q 527 972 437 932 q 711 1011 616 1011 q 1068 468 1068 1011 q 974 -105 1068 82 q 681 -292 879 -292 q 517 -268 611 -292 l 558 -40 q 618 -47 595 -47 q 728 77 694 -47 q 761 457 761 202 q 582 754 761 754 q 460 715 511 754 q 410 625 410 675 l 410 0 l 103 0 l 103 994 l 392 994 l 392 878 l 395 878 z "},"ŋ":{"ha":946,"x_min":103,"x_max":873,"o":"m 376 603 q 621 736 466 736 q 817 627 760 736 q 873 275 873 517 q 809 -154 873 -16 q 604 -292 745 -292 q 427 -268 517 -292 l 468 -68 q 517 -75 494 -75 q 580 7 562 -75 q 597 262 597 89 q 571 480 597 425 q 492 534 545 534 q 417 489 443 534 q 392 366 392 444 l 392 0 l 103 0 l 103 720 l 374 720 l 374 603 l 376 603 z "},"Ō":{"ha":1157,"x_min":63,"x_max":1093,"o":"m 63 496 q 199 876 63 740 q 576 1011 334 1011 q 959 878 825 1011 q 1093 505 1093 745 q 1035 219 1093 330 q 865 45 976 107 q 589 -17 754 -17 q 310 37 420 -17 q 132 206 200 90 q 63 496 63 322 m 370 495 q 426 279 370 345 q 578 213 482 213 q 732 277 677 213 q 786 509 786 342 q 729 714 786 649 q 576 779 673 779 q 427 713 483 779 q 370 495 370 647 m 359 1211 l 798 1211 l 798 1064 l 359 1064 l 359 1211 z "},"ō":{"ha":926,"x_min":50,"x_max":877,"o":"m 50 358 q 161 630 50 523 q 461 736 272 736 q 788 611 677 736 q 877 362 877 510 q 767 90 877 196 q 462 -16 656 -16 q 181 72 288 -16 q 50 358 50 181 m 326 359 q 365 216 326 262 q 463 170 404 170 q 561 216 523 170 q 600 361 600 261 q 561 501 600 455 q 465 547 522 547 q 366 500 405 547 q 326 359 326 454 m 243 981 l 682 981 l 682 833 l 243 833 l 243 981 z "},"Ŏ":{"ha":1157,"x_min":63,"x_max":1093,"o":"m 63 496 q 199 876 63 740 q 576 1011 334 1011 q 959 878 825 1011 q 1093 505 1093 745 q 1035 219 1093 330 q 865 45 976 107 q 589 -17 754 -17 q 310 37 420 -17 q 132 206 200 90 q 63 496 63 322 m 370 495 q 426 279 370 345 q 578 213 482 213 q 732 277 677 213 q 786 509 786 342 q 729 714 786 649 q 576 779 673 779 q 427 713 483 779 q 370 495 370 647 m 690 1272 l 802 1272 q 772 1163 798 1207 q 692 1093 745 1120 q 576 1067 638 1067 q 411 1121 473 1067 q 339 1272 349 1175 l 456 1272 q 494 1216 469 1232 q 570 1199 519 1199 q 654 1216 629 1199 q 690 1272 680 1232 z "},"ŏ":{"ha":926,"x_min":50,"x_max":877,"o":"m 50 358 q 161 630 50 523 q 461 736 272 736 q 788 611 677 736 q 877 362 877 510 q 767 90 877 196 q 462 -16 656 -16 q 181 72 288 -16 q 50 358 50 181 m 326 359 q 365 216 326 262 q 463 170 404 170 q 561 216 523 170 q 600 361 600 261 q 561 501 600 455 q 465 547 522 547 q 366 500 405 547 q 326 359 326 454 m 576 1011 l 688 1011 q 658 903 684 947 q 578 833 631 859 q 462 806 524 806 q 297 860 359 806 q 225 1011 235 914 l 342 1011 q 380 955 355 972 q 456 939 406 939 q 540 955 515 939 q 576 1011 566 972 z "},"Ŗ":{"ha":1080,"x_min":106,"x_max":1084,"o":"m 106 0 l 106 994 l 618 994 q 836 970 760 994 q 957 879 911 945 q 1003 718 1003 813 q 968 575 1003 635 q 871 478 932 515 q 763 439 831 454 q 843 402 818 420 q 892 350 860 390 q 935 288 924 310 l 1084 0 l 736 0 l 572 304 q 517 380 541 363 q 441 404 484 404 l 414 404 l 414 0 l 106 0 m 414 591 l 544 591 q 625 605 565 591 q 675 636 656 611 q 694 694 694 661 q 664 768 694 742 q 549 793 633 793 l 414 793 l 414 591 m 429 -112 l 449 -32 q 568 -16 513 -16 q 728 -56 684 -16 q 772 -149 772 -95 q 752 -216 772 -181 q 681 -271 732 -250 q 544 -292 629 -292 q 362 -275 467 -292 l 362 -191 q 512 -205 433 -205 q 591 -189 570 -205 q 612 -149 612 -174 q 595 -115 612 -129 q 542 -100 578 -100 q 429 -112 494 -100 z "},"ŗ":{"ha":616,"x_min":86,"x_max":653,"o":"m 86 720 l 345 720 l 345 602 q 421 708 382 679 q 519 736 461 736 q 653 699 581 736 l 568 502 q 490 522 519 522 q 406 477 436 522 q 363 241 363 414 l 363 0 l 86 0 l 86 720 m 179 -112 l 199 -32 q 319 -16 263 -16 q 479 -56 435 -16 q 523 -149 523 -95 q 503 -216 523 -181 q 431 -271 483 -250 q 294 -292 380 -292 q 113 -275 217 -292 l 113 -191 q 262 -205 183 -205 q 341 -189 321 -205 q 362 -149 362 -174 q 345 -115 362 -129 q 292 -100 328 -100 q 179 -112 244 -100 z "},"Ŝ":{"ha":1003,"x_min":48,"x_max":950,"o":"m 48 329 l 340 347 q 379 239 350 276 q 515 178 427 178 q 616 209 581 178 q 652 281 652 240 q 618 350 652 319 q 460 408 584 380 q 172 528 258 453 q 85 720 85 604 q 130 865 85 797 q 263 972 174 933 q 508 1011 353 1011 q 799 940 699 1011 q 918 715 899 869 l 628 698 q 579 795 616 765 q 477 826 543 826 q 397 803 424 826 q 370 748 370 781 q 392 705 370 724 q 495 669 414 686 q 784 581 696 625 q 910 471 871 536 q 950 323 950 405 q 897 147 950 228 q 749 25 844 66 q 510 -17 654 -17 q 159 81 256 -17 q 48 329 61 178 m 405 1263 l 601 1263 l 751 1069 l 583 1069 l 500 1173 l 418 1069 l 250 1069 l 405 1263 z "},"ŝ":{"ha":848,"x_min":35,"x_max":800,"o":"m 35 199 l 309 225 q 356 155 326 176 q 437 134 387 134 q 524 158 493 134 q 547 202 547 176 q 516 248 547 232 q 397 277 494 260 q 198 323 254 302 q 103 395 142 345 q 65 511 65 446 q 106 634 65 583 q 220 711 148 686 q 415 736 293 736 q 605 717 544 736 q 708 656 667 697 q 776 544 749 614 l 514 518 q 480 569 504 553 q 401 591 448 591 q 333 574 355 591 q 312 534 312 557 q 339 494 312 507 q 457 469 366 480 q 662 426 595 454 q 765 347 729 398 q 800 233 800 295 q 763 112 800 171 q 644 18 725 53 q 423 -17 563 -17 q 142 39 226 -17 q 35 199 58 96 m 315 1002 l 511 1002 l 662 808 l 494 808 l 411 912 l 328 808 l 160 808 l 315 1002 z "},"Ŧ":{"ha":1003,"x_min":36,"x_max":968,"o":"m 968 750 l 656 750 l 656 558 l 786 558 l 786 380 l 656 380 l 656 0 l 349 0 l 349 380 l 225 380 l 225 558 l 349 558 l 349 750 l 36 750 l 36 994 l 968 994 l 968 750 z "},"ŧ":{"ha":616,"x_min":36,"x_max":576,"o":"m 576 5 q 385 -17 477 -17 q 228 13 281 -17 q 156 100 175 43 q 138 265 138 157 l 138 286 l 36 286 l 36 436 l 138 436 l 138 518 l 36 518 l 36 720 l 138 720 l 138 852 l 414 994 l 414 720 l 566 720 l 566 518 l 414 518 l 414 436 l 533 436 l 533 286 l 414 286 l 414 264 q 429 194 414 208 q 471 179 445 179 q 555 197 505 179 l 576 5 z "},"Ũ":{"ha":1157,"x_min":102,"x_max":1055,"o":"m 749 994 l 1055 994 l 1055 401 q 1028 235 1055 313 q 942 98 1000 157 q 819 16 883 39 q 604 -18 729 -18 q 445 -7 531 -18 q 302 33 359 3 q 196 119 244 63 q 131 233 149 174 q 102 401 102 328 l 102 994 l 409 994 l 409 387 q 454 260 409 306 q 579 214 499 214 q 704 259 659 214 q 749 387 749 304 l 749 994 m 715 1255 l 823 1255 q 823 1224 823 1237 q 785 1107 823 1149 q 688 1066 747 1066 q 556 1102 644 1066 q 482 1124 503 1124 q 452 1112 463 1124 q 440 1068 441 1099 l 334 1068 q 334 1097 334 1084 q 374 1212 334 1169 q 469 1255 414 1255 q 513 1249 492 1255 q 591 1220 534 1244 q 673 1196 648 1196 q 703 1209 692 1196 q 715 1255 714 1221 z "},"ũ":{"ha":926,"x_min":81,"x_max":842,"o":"m 842 0 l 585 0 l 585 117 q 468 14 527 45 q 324 -16 410 -16 q 145 52 210 -16 q 81 262 81 120 l 81 720 l 358 720 l 358 324 q 383 228 358 256 q 454 199 408 199 q 535 237 503 199 q 566 374 566 275 l 566 720 l 842 720 l 842 0 m 602 994 l 709 994 q 709 964 709 977 q 671 847 709 888 q 574 806 633 806 q 442 842 530 806 q 368 863 389 863 q 338 851 349 863 q 326 808 327 839 l 220 808 q 220 836 220 824 q 260 951 220 909 q 355 994 300 994 q 399 989 378 994 q 477 960 420 983 q 559 936 534 936 q 589 948 578 936 q 602 994 600 961 z "},"Ū":{"ha":1157,"x_min":102,"x_max":1055,"o":"m 749 994 l 1055 994 l 1055 401 q 1028 235 1055 313 q 942 98 1000 157 q 819 16 883 39 q 604 -18 729 -18 q 445 -7 531 -18 q 302 33 359 3 q 196 119 244 63 q 131 233 149 174 q 102 401 102 328 l 102 994 l 409 994 l 409 387 q 454 260 409 306 q 579 214 499 214 q 704 259 659 214 q 749 387 749 304 l 749 994 m 362 1211 l 801 1211 l 801 1064 l 362 1064 l 362 1211 z "},"ū":{"ha":926,"x_min":81,"x_max":842,"o":"m 842 0 l 585 0 l 585 117 q 468 14 527 45 q 324 -16 410 -16 q 145 52 210 -16 q 81 262 81 120 l 81 720 l 358 720 l 358 324 q 383 228 358 256 q 454 199 408 199 q 535 237 503 199 q 566 374 566 275 l 566 720 l 842 720 l 842 0 m 240 981 l 679 981 l 679 833 l 240 833 l 240 981 z "},"Ŭ":{"ha":1157,"x_min":102,"x_max":1055,"o":"m 749 994 l 1055 994 l 1055 401 q 1028 235 1055 313 q 942 98 1000 157 q 819 16 883 39 q 604 -18 729 -18 q 445 -7 531 -18 q 302 33 359 3 q 196 119 244 63 q 131 233 149 174 q 102 401 102 328 l 102 994 l 409 994 l 409 387 q 454 260 409 306 q 579 214 499 214 q 704 259 659 214 q 749 387 749 304 l 749 994 m 696 1272 l 808 1272 q 777 1163 804 1207 q 697 1093 751 1120 q 581 1067 644 1067 q 416 1121 478 1067 q 345 1272 355 1175 l 461 1272 q 500 1216 475 1232 q 575 1199 525 1199 q 660 1216 634 1199 q 696 1272 685 1232 z "},"ŭ":{"ha":926,"x_min":81,"x_max":842,"o":"m 842 0 l 585 0 l 585 117 q 468 14 527 45 q 324 -16 410 -16 q 145 52 210 -16 q 81 262 81 120 l 81 720 l 358 720 l 358 324 q 383 228 358 256 q 454 199 408 199 q 535 237 503 199 q 566 374 566 275 l 566 720 l 842 720 l 842 0 m 582 1011 l 694 1011 q 663 903 690 947 q 583 833 637 859 q 467 806 530 806 q 302 860 364 806 q 231 1011 241 914 l 347 1011 q 386 955 361 972 q 461 939 411 939 q 546 955 520 939 q 582 1011 571 972 z "},"Ų":{"ha":1157,"x_min":103,"x_max":1054,"o":"m 787 -272 q 644 -302 711 -302 q 518 -260 564 -302 q 472 -144 472 -217 q 496 -12 472 -92 q 201 113 299 -2 q 103 401 103 228 l 103 994 l 410 994 l 410 387 q 453 260 410 307 q 579 214 496 214 q 705 260 663 214 q 747 387 747 307 l 747 994 l 1054 994 l 1054 401 q 945 100 1054 216 q 612 -17 836 -16 q 607 -81 607 -54 q 701 -184 607 -184 q 787 -167 732 -184 l 787 -272 z "},"ų":{"ha":926,"x_min":81,"x_max":872,"o":"m 872 -272 q 729 -302 795 -302 q 603 -260 649 -302 q 557 -144 557 -217 q 571 -50 557 -102 l 585 0 l 585 117 l 582 117 q 325 -17 489 -17 q 142 55 204 -17 q 81 261 81 127 l 81 720 l 357 720 l 357 323 q 454 199 357 199 q 537 238 508 199 q 567 374 567 278 l 567 720 l 843 720 l 843 0 l 700 0 q 692 -81 692 -44 q 786 -184 692 -184 q 872 -167 817 -184 l 872 -272 z "},"Ŵ":{"ha":1389,"x_min":-1,"x_max":1390,"o":"m -1 994 l 291 994 l 396 439 l 549 994 l 840 994 l 994 439 l 1099 994 l 1390 994 l 1171 0 l 869 0 l 695 626 l 522 0 l 220 0 l -1 994 m 600 1257 l 796 1257 l 947 1063 l 779 1063 l 696 1167 l 613 1063 l 445 1063 l 600 1257 z "},"ŵ":{"ha":1311,"x_min":2,"x_max":1314,"o":"m 2 720 l 269 720 l 385 267 l 532 720 l 781 720 l 932 267 l 1048 720 l 1314 720 l 1048 0 l 803 0 l 657 433 l 516 0 l 269 0 l 2 720 m 554 1002 l 750 1002 l 901 808 l 732 808 l 650 912 l 567 808 l 399 808 l 554 1002 z "},"Ŷ":{"ha":1080,"x_min":1,"x_max":1083,"o":"m 1 994 l 342 994 l 543 659 l 744 994 l 1083 994 l 696 416 l 696 0 l 389 0 l 389 416 l 1 994 m 446 1257 l 642 1257 l 792 1063 l 624 1063 l 541 1167 l 458 1063 l 290 1063 l 446 1257 z "},"ŷ":{"ha":848,"x_min":3,"x_max":853,"o":"m 3 720 l 295 720 l 444 241 l 581 720 l 853 720 l 568 -50 q 468 -227 519 -181 q 249 -292 396 -292 q 64 -276 189 -292 l 43 -83 q 176 -102 102 -102 q 255 -80 224 -102 q 306 0 285 -58 l 3 720 m 342 1002 l 538 1002 l 689 808 l 521 808 l 438 912 l 355 808 l 187 808 l 342 1002 z "},"ſ":{"ha":542,"x_min":81,"x_max":532,"o":"m 532 999 l 492 829 q 435 838 460 838 q 346 696 346 838 l 346 0 l 81 0 l 81 689 q 161 919 81 827 q 449 1011 242 1011 q 532 999 490 1011 z "},"Ǻ":{"ha":1080,"x_min":1,"x_max":1084,"o":"m 398 994 q 376 1076 376 1032 q 424 1192 376 1143 q 539 1240 472 1240 q 655 1192 607 1240 q 703 1076 703 1144 q 680 994 703 1032 l 710 994 l 1084 0 l 762 0 l 710 164 l 367 164 l 315 0 l 1 0 l 375 994 l 398 994 m 469 1077 q 490 1027 469 1047 q 539 1006 510 1006 q 588 1027 568 1006 q 608 1076 608 1047 q 588 1126 608 1105 q 539 1146 568 1146 q 490 1126 510 1146 q 469 1077 469 1105 m 641 391 l 539 720 l 438 391 l 641 391 m 507 1505 l 744 1505 l 525 1302 l 393 1302 l 507 1505 z "},"ǻ":{"ha":926,"x_min":50,"x_max":879,"o":"m 335 487 l 71 515 q 114 624 86 584 q 195 692 142 663 q 300 725 233 713 q 444 736 366 736 q 643 723 568 736 q 768 665 718 709 q 824 578 804 634 q 844 471 844 522 l 844 153 q 851 74 844 102 q 879 0 857 45 l 620 0 q 600 42 604 28 q 590 88 595 57 q 482 14 536 36 q 312 -16 409 -16 q 116 43 183 -16 q 50 191 50 103 q 98 326 50 273 q 275 404 146 378 q 477 448 431 435 q 574 481 523 460 q 553 552 574 532 q 479 572 532 572 q 378 551 412 572 q 335 487 351 534 m 574 342 q 456 306 517 321 q 349 262 372 283 q 326 211 326 239 q 349 158 326 178 q 416 137 372 137 q 502 159 462 137 q 558 214 541 182 q 574 298 574 246 l 574 342 m 626 951 q 578 836 626 884 q 463 789 530 789 q 348 836 395 789 q 300 951 300 884 q 348 1067 300 1019 q 463 1115 395 1115 q 578 1067 530 1115 q 626 951 626 1019 m 532 952 q 512 1002 532 981 q 463 1022 492 1022 q 413 1002 433 1022 q 393 952 393 981 q 413 903 393 923 q 463 882 433 882 q 512 903 492 882 q 532 952 532 923 m 420 1377 l 657 1377 l 438 1175 l 306 1175 l 420 1377 z "},"Ǽ":{"ha":1389,"x_min":-52,"x_max":1339,"o":"m 377 994 l 1326 994 l 1326 782 l 907 782 l 907 624 l 1289 624 l 1289 421 l 907 421 l 907 225 l 1339 225 l 1339 0 l 618 0 l 618 178 l 323 178 l 258 0 l -52 0 l 377 994 m 550 793 l 407 405 l 618 405 l 618 793 l 550 793 m 791 1269 l 1029 1269 l 810 1066 l 677 1066 l 791 1269 z "},"ǽ":{"ha":1389,"x_min":47,"x_max":1350,"o":"m 1350 292 l 827 292 q 859 195 834 227 q 956 147 896 147 q 1015 162 990 147 q 1063 215 1040 178 l 1333 191 q 1191 36 1278 89 q 958 -16 1103 -16 q 765 16 846 -16 q 648 98 704 41 q 489 10 564 37 q 323 -16 414 -16 q 116 42 185 -16 q 47 193 47 100 q 68 281 47 240 q 123 347 90 323 q 219 397 168 379 q 335 422 243 405 q 454 447 427 440 q 559 479 499 458 q 537 553 558 533 q 462 572 517 572 q 376 552 404 572 q 336 486 347 531 l 71 517 q 117 625 90 589 q 226 706 153 675 q 433 737 300 737 q 610 718 541 737 q 719 666 659 705 q 832 721 781 705 q 954 736 884 736 q 1133 707 1058 736 q 1255 626 1208 677 q 1323 524 1303 574 q 1350 338 1350 456 l 1350 292 m 1074 425 q 1039 533 1069 494 q 954 572 1008 572 q 870 536 905 572 q 825 425 835 501 l 1074 425 m 559 344 l 475 316 q 446 309 458 311 q 352 270 379 296 q 326 216 326 244 q 348 163 326 185 q 407 142 370 142 q 484 161 444 142 q 544 218 523 180 q 559 292 559 246 l 559 344 m 675 1011 l 912 1011 l 693 808 l 561 808 l 675 1011 z "},"Ǿ":{"ha":1157,"x_min":24,"x_max":1133,"o":"m 913 917 l 1031 1028 l 1133 919 l 1016 808 q 1072 671 1052 753 q 1093 498 1093 589 q 1030 212 1093 324 q 857 41 967 100 q 579 -17 747 -17 q 366 14 460 -17 q 245 78 304 33 l 126 -35 l 24 73 l 143 186 q 62 494 62 312 q 198 875 62 739 q 574 1011 333 1011 q 913 917 787 1011 m 715 729 q 575 779 664 779 q 426 713 482 779 q 370 500 370 648 q 376 408 370 454 l 715 729 m 780 584 l 440 262 q 578 213 490 213 q 731 277 676 213 q 785 498 785 340 q 780 584 785 541 m 564 1269 l 801 1269 l 582 1066 l 450 1066 l 564 1269 z "},"ǿ":{"ha":926,"x_min":50,"x_max":876,"o":"m 782 784 l 852 720 l 768 628 q 846 517 815 589 q 876 361 876 445 q 767 90 876 195 q 470 -16 658 -16 q 335 -3 393 -16 q 234 35 295 5 l 144 -66 l 73 0 l 159 92 q 75 216 101 153 q 50 357 50 278 q 160 630 50 523 q 457 736 271 736 q 593 722 533 736 q 692 683 633 713 l 782 784 m 557 532 q 524 556 538 551 q 465 567 498 567 q 352 514 396 567 q 307 354 307 462 q 319 269 307 318 l 557 532 m 370 183 q 406 160 392 165 q 466 151 433 151 q 575 203 532 151 q 618 368 618 256 q 607 448 618 403 l 370 183 m 455 1011 l 692 1011 l 473 808 l 341 808 l 455 1011 z "},"΄":{"ha":264,"x_min":4,"x_max":258,"o":"m 258 994 l 136 791 l 4 791 l 49 994 l 258 994 z "},"΅":{"ha":463,"x_min":-1,"x_max":464,"o":"m 378 1234 l 256 1031 l 123 1031 l 168 1234 l 378 1234 m 464 811 l 286 811 l 286 981 l 464 981 l 464 811 m 176 811 l -1 811 l -1 981 l 176 981 l 176 811 z "},"Ά":{"ha":1080,"x_min":1,"x_max":1084,"o":"m 713 164 l 363 164 l 315 0 l 1 0 l 375 994 l 710 994 l 1084 0 l 762 0 l 713 164 m 649 379 l 539 736 l 430 379 l 649 379 m 258 994 l 136 791 l 4 791 l 49 994 l 258 994 z "},"·":{"ha":694,"x_min":125,"x_max":338,"o":"m 125 632 l 338 632 l 338 429 l 125 429 l 125 632 z "},"Έ":{"ha":1175,"x_min":4,"x_max":1113,"o":"m 275 994 l 1098 994 l 1098 782 l 583 782 l 583 624 l 1061 624 l 1061 421 l 583 421 l 583 225 l 1113 225 l 1113 0 l 275 0 l 275 994 m 258 994 l 136 791 l 4 791 l 49 994 l 258 994 z "},"Ή":{"ha":1329,"x_min":4,"x_max":1225,"o":"m 274 994 l 581 994 l 581 646 l 917 646 l 917 994 l 1225 994 l 1225 0 l 917 0 l 917 402 l 581 402 l 581 0 l 274 0 l 274 994 m 258 994 l 136 791 l 4 791 l 49 994 l 258 994 z "},"Ί":{"ha":696,"x_min":4,"x_max":579,"o":"m 271 994 l 579 994 l 579 0 l 271 0 l 271 994 m 258 994 l 136 791 l 4 791 l 49 994 l 258 994 z "},"Ό":{"ha":1231,"x_min":4,"x_max":1166,"o":"m 136 496 q 272 876 136 740 q 650 1011 408 1011 q 1032 878 898 1011 q 1166 505 1166 745 q 1108 219 1166 330 q 938 45 1049 107 q 662 -17 827 -17 q 384 37 494 -17 q 205 206 273 90 q 136 496 136 322 m 444 495 q 499 279 444 345 q 652 213 555 213 q 805 277 751 213 q 859 509 859 342 q 803 714 859 649 q 649 779 746 779 q 500 713 556 779 q 444 495 444 647 m 258 994 l 136 791 l 4 791 l 49 994 l 258 994 z "},"Ύ":{"ha":1346,"x_min":4,"x_max":1346,"o":"m 264 994 l 606 994 l 806 659 l 1007 994 l 1346 994 l 960 416 l 960 0 l 652 0 l 652 416 l 264 994 m 258 994 l 136 791 l 4 791 l 49 994 l 258 994 z "},"Ώ":{"ha":1240,"x_min":4,"x_max":1177,"o":"m 304 216 q 197 358 246 259 q 148 557 148 458 q 281 889 148 766 q 661 1011 414 1011 q 1046 894 915 1011 q 1177 557 1177 777 q 1128 358 1177 458 q 1021 216 1079 259 l 1168 216 l 1168 0 l 720 0 l 720 216 q 870 536 870 321 q 661 781 870 781 q 507 715 559 781 q 455 536 455 650 q 605 216 455 335 l 605 0 l 156 0 l 156 216 l 304 216 m 258 994 l 136 791 l 4 791 l 49 994 l 258 994 z "},"ΐ":{"ha":541,"x_min":-1,"x_max":464,"o":"m 94 720 l 370 720 l 370 0 l 94 0 l 94 720 m 378 1234 l 256 1031 l 123 1031 l 168 1234 l 378 1234 m 464 811 l 286 811 l 286 981 l 464 981 l 464 811 m 176 811 l -1 811 l -1 981 l 176 981 l 176 811 z "},"Α":{"ha":1080,"x_min":1,"x_max":1084,"o":"m 713 164 l 363 164 l 315 0 l 1 0 l 375 994 l 710 994 l 1084 0 l 762 0 l 713 164 m 649 379 l 539 736 l 430 379 l 649 379 z "},"Β":{"ha":1080,"x_min":102,"x_max":1021,"o":"m 102 994 l 677 994 q 898 923 821 994 q 975 747 975 852 q 920 595 975 659 q 813 529 884 553 q 971 440 920 503 q 1021 283 1021 378 q 985 144 1021 205 q 887 46 949 82 q 770 14 848 24 q 633 0 667 0 l 102 0 l 102 994 m 412 604 l 546 604 q 646 629 618 604 q 674 701 674 654 q 646 768 674 744 q 548 793 618 793 l 412 793 l 412 604 m 412 214 l 569 214 q 681 242 648 214 q 713 317 713 270 q 681 388 713 361 q 568 415 649 415 l 412 415 l 412 214 z "},"Γ":{"ha":926,"x_min":102,"x_max":889,"o":"m 889 750 l 408 750 l 408 0 l 102 0 l 102 994 l 889 994 l 889 750 z "},"Δ":{"ha":1080,"x_min":-1,"x_max":1082,"o":"m 1082 0 l -1 0 l 372 994 l 708 994 l 1082 0 m 699 214 l 539 736 l 375 214 l 699 214 z "},"Ε":{"ha":1003,"x_min":101,"x_max":939,"o":"m 101 994 l 924 994 l 924 782 l 409 782 l 409 624 l 887 624 l 887 421 l 409 421 l 409 225 l 939 225 l 939 0 l 101 0 l 101 994 z "},"Ζ":{"ha":1003,"x_min":23,"x_max":966,"o":"m 77 994 l 946 994 l 946 795 l 389 214 l 966 214 l 966 0 l 23 0 l 23 206 l 574 782 l 77 782 l 77 994 z "},"Η":{"ha":1157,"x_min":103,"x_max":1055,"o":"m 103 994 l 410 994 l 410 646 l 746 646 l 746 994 l 1055 994 l 1055 0 l 746 0 l 746 402 l 410 402 l 410 0 l 103 0 l 103 994 z "},"Θ":{"ha":1157,"x_min":64,"x_max":1093,"o":"m 576 1011 q 959 878 825 1011 q 1093 504 1093 745 q 961 118 1093 252 q 589 -17 828 -17 q 192 125 320 -17 q 64 496 64 267 q 197 874 64 736 q 576 1011 330 1011 m 578 214 q 733 280 681 214 q 786 509 786 346 q 576 781 786 781 q 371 494 371 781 q 578 214 371 214 m 717 410 l 446 410 l 446 597 l 717 597 l 717 410 z "},"Ι":{"ha":541,"x_min":114,"x_max":422,"o":"m 114 994 l 422 994 l 422 0 l 114 0 l 114 994 z "},"Κ":{"ha":1157,"x_min":103,"x_max":1157,"o":"m 103 994 l 410 994 l 410 618 l 732 994 l 1141 994 l 779 619 l 1157 0 l 779 0 l 569 409 l 410 243 l 410 0 l 103 0 l 103 994 z "},"Λ":{"ha":1080,"x_min":1,"x_max":1079,"o":"m 1079 0 l 758 0 l 533 717 l 314 0 l 1 0 l 371 994 l 704 994 l 1079 0 z "},"Μ":{"ha":1311,"x_min":98,"x_max":1217,"o":"m 98 994 l 503 994 l 659 389 l 814 994 l 1217 994 l 1217 0 l 966 0 l 966 758 l 771 0 l 544 0 l 350 758 l 350 0 l 98 0 l 98 994 z "},"Ν":{"ha":1157,"x_min":104,"x_max":1055,"o":"m 104 994 l 391 994 l 765 444 l 765 994 l 1055 994 l 1055 0 l 765 0 l 393 546 l 393 0 l 104 0 l 104 994 z "},"Ξ":{"ha":1003,"x_min":82,"x_max":921,"o":"m 905 781 l 96 781 l 96 994 l 905 994 l 905 781 m 796 421 l 210 421 l 210 623 l 796 623 l 796 421 m 921 0 l 82 0 l 82 225 l 921 225 l 921 0 z "},"Ο":{"ha":1157,"x_min":63,"x_max":1093,"o":"m 63 496 q 199 876 63 740 q 576 1011 334 1011 q 959 878 825 1011 q 1093 505 1093 745 q 1035 219 1093 330 q 865 45 976 107 q 589 -17 754 -17 q 310 37 420 -17 q 132 206 200 90 q 63 496 63 322 m 370 495 q 426 279 370 345 q 578 213 482 213 q 732 277 677 213 q 786 509 786 342 q 729 714 786 649 q 576 779 673 779 q 427 713 483 779 q 370 495 370 647 z "},"Π":{"ha":1157,"x_min":103,"x_max":1054,"o":"m 1054 0 l 747 0 l 747 750 l 410 750 l 410 0 l 103 0 l 103 994 l 1054 994 l 1054 0 z "},"Ρ":{"ha":1003,"x_min":100,"x_max":944,"o":"m 100 994 l 611 994 q 861 915 778 994 q 944 689 944 836 q 853 454 944 538 q 577 369 763 369 l 409 369 l 409 0 l 100 0 l 100 994 m 409 570 l 484 570 q 609 601 573 570 q 645 680 645 632 q 614 760 645 727 q 496 792 583 792 l 409 792 l 409 570 z "},"Σ":{"ha":1003,"x_min":103,"x_max":942,"o":"m 942 0 l 103 0 l 103 215 l 397 514 l 103 789 l 103 994 l 926 994 l 926 781 l 435 781 l 726 514 l 435 225 l 942 225 l 942 0 z "},"Τ":{"ha":1003,"x_min":32,"x_max":966,"o":"m 32 994 l 966 994 l 966 749 l 652 749 l 652 0 l 345 0 l 345 749 l 32 749 l 32 994 z "},"Υ":{"ha":1080,"x_min":1,"x_max":1083,"o":"m 1 994 l 342 994 l 543 659 l 744 994 l 1083 994 l 696 416 l 696 0 l 389 0 l 389 416 l 1 994 z "},"Φ":{"ha":1283,"x_min":50,"x_max":1235,"o":"m 782 918 q 1235 511 1235 871 q 782 103 1235 144 l 782 -14 l 503 -14 l 503 106 q 50 511 50 144 q 503 918 50 871 l 503 1008 l 782 1008 l 782 918 m 782 311 q 895 386 854 332 q 935 515 935 440 q 893 645 935 587 q 782 725 852 702 l 782 311 m 503 309 l 503 720 q 392 642 434 700 q 350 510 350 584 q 392 386 350 441 q 503 309 433 331 z "},"Χ":{"ha":1080,"x_min":2,"x_max":1083,"o":"m 33 994 l 372 994 l 548 688 l 719 994 l 1054 994 l 745 513 l 1083 0 l 738 0 l 542 319 l 345 0 l 2 0 l 345 518 l 33 994 z "},"Ψ":{"ha":1314,"x_min":56,"x_max":1257,"o":"m 1257 679 q 1146 377 1257 493 q 810 261 1036 261 l 810 0 l 503 0 l 503 258 q 166 374 276 258 q 56 676 56 490 l 56 991 l 363 991 l 363 663 q 370 575 363 609 q 408 515 377 541 q 503 489 438 489 l 503 994 l 810 994 l 810 492 q 905 517 874 492 q 943 577 936 543 q 950 665 950 612 l 950 994 l 1257 994 l 1257 679 z "},"Ω":{"ha":1157,"x_min":64,"x_max":1093,"o":"m 220 216 q 113 358 162 259 q 64 557 64 458 q 197 889 64 766 q 576 1011 330 1011 q 962 894 831 1011 q 1093 557 1093 777 q 1044 358 1093 458 q 937 216 995 259 l 1084 216 l 1084 0 l 636 0 l 636 216 q 786 536 786 321 q 576 781 786 781 q 423 715 475 781 q 371 536 371 650 q 521 216 371 335 l 521 0 l 72 0 l 72 216 l 220 216 z "},"Ϊ":{"ha":541,"x_min":38,"x_max":504,"o":"m 114 994 l 422 994 l 422 0 l 114 0 l 114 994 m 38 1227 l 214 1227 l 214 1057 l 38 1057 l 38 1227 m 326 1227 l 504 1227 l 504 1057 l 326 1057 l 326 1227 z "},"Ϋ":{"ha":1080,"x_min":1,"x_max":1083,"o":"m 1 994 l 342 994 l 543 659 l 744 994 l 1083 994 l 696 416 l 696 0 l 389 0 l 389 416 l 1 994 m 308 1227 l 484 1227 l 484 1057 l 308 1057 l 308 1227 m 595 1227 l 774 1227 l 774 1057 l 595 1057 l 595 1227 z "},"ά":{"ha":942,"x_min":53,"x_max":917,"o":"m 917 721 q 846 534 868 635 q 823 351 823 433 q 844 191 823 292 q 907 0 865 89 l 654 0 q 623 81 637 35 q 407 -17 555 -17 q 149 102 244 -17 q 53 372 53 221 q 152 634 53 532 q 410 736 250 736 q 629 643 541 736 q 659 721 637 679 l 917 721 m 443 163 q 523 209 497 163 q 549 358 549 256 q 440 557 549 557 q 358 508 385 557 q 332 358 332 460 q 443 163 332 163 m 616 994 l 494 791 l 362 791 l 407 994 l 616 994 z "},"έ":{"ha":761,"x_min":50,"x_max":755,"o":"m 755 71 q 449 -17 644 -17 q 156 45 261 -17 q 50 211 50 107 q 178 374 50 318 q 78 532 78 422 q 176 682 78 627 q 452 736 275 736 q 726 684 623 736 l 623 533 q 458 572 547 572 q 351 518 351 572 q 387 466 351 483 q 518 449 423 449 l 518 294 q 374 275 418 294 q 329 211 329 255 q 460 147 329 147 q 628 203 558 147 l 755 71 m 568 994 l 446 791 l 313 791 l 358 994 l 568 994 z "},"ή":{"ha":926,"x_min":83,"x_max":846,"o":"m 846 -275 l 570 -275 l 570 396 q 472 521 570 521 q 389 481 418 521 q 359 346 359 441 l 359 0 l 83 0 l 83 720 l 342 720 l 342 603 l 345 603 q 602 736 437 736 q 784 664 722 736 q 846 458 846 593 l 846 -275 m 622 994 l 500 791 l 368 791 l 412 994 l 622 994 z "},"ί":{"ha":463,"x_min":94,"x_max":380,"o":"m 94 720 l 370 720 l 370 0 l 94 0 l 94 720 m 380 994 l 258 791 l 126 791 l 171 994 l 380 994 z "},"ΰ":{"ha":926,"x_min":81,"x_max":843,"o":"m 843 292 q 742 66 843 150 q 458 -17 641 -17 q 180 66 279 -17 q 81 292 81 149 l 81 720 l 357 720 l 357 332 q 461 199 357 199 q 539 229 512 199 q 567 332 567 258 l 567 720 l 843 720 l 843 292 m 611 1234 l 489 1031 l 357 1031 l 401 1234 l 611 1234 m 697 811 l 519 811 l 519 981 l 697 981 l 697 811 m 410 811 l 232 811 l 232 981 l 410 981 l 410 811 z "},"α":{"ha":942,"x_min":53,"x_max":917,"o":"m 917 721 q 846 534 868 635 q 823 351 823 433 q 844 191 823 292 q 907 0 865 89 l 654 0 q 623 81 637 35 q 407 -17 555 -17 q 149 102 244 -17 q 53 372 53 221 q 152 634 53 532 q 410 736 250 736 q 629 643 541 736 q 659 721 637 679 l 917 721 m 443 163 q 523 209 497 163 q 549 358 549 256 q 440 557 549 557 q 358 508 385 557 q 332 358 332 460 q 443 163 332 163 z "},"β":{"ha":895,"x_min":81,"x_max":842,"o":"m 639 568 q 784 468 727 548 q 842 285 842 387 q 765 61 842 140 q 555 -17 689 -17 q 346 66 418 -17 l 346 -275 l 81 -275 l 81 689 q 174 929 81 846 q 432 1011 267 1011 q 680 945 590 1011 q 770 757 770 879 q 734 644 770 694 q 639 568 698 595 m 401 604 q 487 649 453 613 q 521 736 521 684 q 435 838 521 838 q 369 802 391 838 q 346 703 346 766 l 346 269 q 482 164 392 164 q 562 195 533 164 q 591 282 591 226 q 547 400 591 351 q 401 458 502 450 l 401 604 z "},"γ":{"ha":848,"x_min":-1,"x_max":850,"o":"m 850 720 l 559 36 l 559 -275 l 283 -275 l 283 36 l -1 720 l 286 720 l 424 264 l 571 720 l 850 720 z "},"δ":{"ha":926,"x_min":50,"x_max":876,"o":"m 444 802 l 650 689 q 818 543 760 629 q 876 351 876 456 q 771 90 876 196 q 461 -17 665 -17 q 157 88 264 -17 q 50 347 50 193 q 114 558 50 467 q 300 690 178 650 l 114 800 l 114 993 l 779 993 l 779 802 l 444 802 m 463 172 q 565 218 529 172 q 600 350 600 263 q 465 525 600 525 q 361 476 397 525 q 326 347 326 428 q 361 218 326 263 q 463 172 396 172 m 461 736 z "},"ε":{"ha":761,"x_min":50,"x_max":755,"o":"m 755 71 q 449 -17 644 -17 q 156 45 261 -17 q 50 211 50 107 q 178 374 50 318 q 78 532 78 422 q 176 682 78 627 q 452 736 275 736 q 726 684 623 736 l 623 533 q 458 572 547 572 q 351 518 351 572 q 387 466 351 483 q 518 449 423 449 l 518 294 q 374 275 418 294 q 329 211 329 255 q 460 147 329 147 q 628 203 558 147 l 755 71 z "},"ζ":{"ha":639,"x_min":53,"x_max":627,"o":"m 627 833 q 393 548 465 658 q 321 339 321 439 q 341 264 321 298 q 431 198 362 230 q 531 144 499 166 q 586 79 564 121 q 608 -32 608 37 q 528 -218 608 -144 q 319 -292 448 -292 l 243 -292 l 290 -113 q 406 -61 406 -113 q 389 -22 406 -39 q 298 17 372 -5 q 175 66 224 39 q 90 156 126 94 q 53 326 53 218 q 127 549 53 435 q 363 803 201 663 l 83 803 l 83 994 l 627 994 l 627 833 z "},"η":{"ha":926,"x_min":83,"x_max":846,"o":"m 846 -275 l 570 -275 l 570 396 q 472 521 570 521 q 389 481 418 521 q 359 346 359 441 l 359 0 l 83 0 l 83 720 l 342 720 l 342 603 l 345 603 q 602 736 437 736 q 784 664 722 736 q 846 458 846 593 l 846 -275 z "},"θ":{"ha":926,"x_min":57,"x_max":869,"o":"m 469 1011 q 762 880 654 1011 q 869 504 869 749 q 766 117 869 250 q 463 -17 663 -17 q 162 118 267 -17 q 57 501 57 252 q 469 1011 57 1011 m 590 604 q 554 769 583 717 q 461 822 524 822 q 370 770 399 822 q 336 604 341 719 l 590 604 m 591 403 l 336 403 q 372 228 342 283 q 463 172 402 172 q 591 403 583 172 z "},"ι":{"ha":463,"x_min":94,"x_max":370,"o":"m 94 720 l 370 720 l 370 0 l 94 0 l 94 720 z "},"κ":{"ha":926,"x_min":83,"x_max":921,"o":"m 921 0 l 610 0 l 464 289 l 359 187 l 359 0 l 83 0 l 83 720 l 359 720 l 359 481 l 567 720 l 905 720 l 648 468 l 921 0 z "},"λ":{"ha":848,"x_min":-3,"x_max":847,"o":"m 847 0 l 576 0 l 427 449 l 289 0 l -3 0 l 318 734 l 207 994 l 473 994 l 847 0 z "},"μ":{"ha":926,"x_min":81,"x_max":843,"o":"m 843 0 l 583 0 l 583 57 q 472 -17 539 -17 q 357 52 390 -17 l 357 -272 l 81 -272 l 81 720 l 357 720 l 357 358 q 362 279 357 309 q 392 224 368 248 q 464 200 415 200 q 541 232 515 200 q 567 366 567 264 l 567 720 l 843 720 l 843 0 z "},"ν":{"ha":848,"x_min":1,"x_max":852,"o":"m 1 720 l 289 720 l 429 264 l 573 720 l 852 720 l 546 0 l 301 0 l 1 720 z "},"ξ":{"ha":639,"x_min":53,"x_max":608,"o":"m 562 505 q 386 446 451 498 q 321 306 321 394 q 340 243 321 271 q 427 185 360 214 q 527 135 494 157 q 585 71 561 113 q 608 -40 608 28 q 529 -221 608 -151 q 319 -292 449 -292 l 243 -292 l 290 -113 q 372 -98 342 -113 q 401 -61 401 -84 q 385 -25 401 -41 q 295 11 368 -9 q 174 55 222 31 q 89 136 125 79 q 53 290 53 192 q 117 471 53 398 q 292 568 181 545 q 146 644 197 589 q 96 779 96 699 q 187 945 96 885 q 452 1006 279 1006 l 561 1006 l 561 822 q 471 825 507 825 q 334 750 334 825 q 376 693 334 715 q 489 672 418 672 l 562 672 l 562 505 z "},"ο":{"ha":926,"x_min":50,"x_max":877,"o":"m 50 358 q 161 630 50 523 q 461 736 272 736 q 788 611 677 736 q 877 362 877 510 q 767 90 877 196 q 462 -16 656 -16 q 181 72 288 -16 q 50 358 50 181 m 326 359 q 365 216 326 262 q 463 170 404 170 q 561 216 523 170 q 600 361 600 261 q 561 501 600 455 q 465 547 522 547 q 366 500 405 547 q 326 359 326 454 z "},"π":{"ha":982,"x_min":14,"x_max":970,"o":"m 970 518 l 879 518 l 879 0 l 603 0 l 603 518 l 393 518 l 393 0 l 117 0 l 117 518 l 14 518 l 14 720 l 970 720 l 970 518 z "},"ρ":{"ha":926,"x_min":85,"x_max":875,"o":"m 85 -275 l 85 347 q 191 630 85 525 q 479 736 297 736 q 769 629 664 736 q 875 349 875 523 q 793 82 875 182 q 571 -17 711 -17 q 361 62 433 -17 l 361 -275 l 85 -275 m 486 187 q 570 233 541 187 q 599 354 599 278 q 482 532 599 532 q 391 487 424 532 q 358 357 358 443 q 391 236 358 284 q 486 187 423 187 z "},"ς":{"ha":733,"x_min":53,"x_max":725,"o":"m 725 708 l 667 509 q 515 532 570 532 q 378 478 435 532 q 321 345 321 424 q 350 279 321 311 q 509 182 379 246 q 679 69 639 119 q 718 -35 718 20 q 626 -224 718 -157 q 372 -292 534 -292 q 227 -286 317 -292 l 261 -106 q 363 -113 326 -113 q 473 -66 473 -113 q 450 -22 473 -43 q 335 36 427 0 q 189 103 243 73 q 93 187 134 134 q 53 321 53 241 q 183 619 53 503 q 521 736 313 736 q 725 708 636 736 z "},"σ":{"ha":1039,"x_min":50,"x_max":1008,"o":"m 1008 518 l 846 518 q 876 363 876 445 q 771 94 876 205 q 461 -17 665 -17 q 158 93 265 -17 q 50 358 50 202 q 158 628 50 519 q 461 736 267 736 q 560 728 507 736 l 604 720 l 1008 720 l 1008 518 m 463 172 q 565 221 529 172 q 600 361 600 270 q 564 499 600 451 q 465 547 527 547 q 361 495 397 547 q 326 358 326 442 q 361 221 326 271 q 463 172 396 172 z "},"τ":{"ha":705,"x_min":14,"x_max":690,"o":"m 690 518 l 490 518 l 490 0 l 214 0 l 214 518 l 14 518 l 14 720 l 690 720 l 690 518 z "},"υ":{"ha":926,"x_min":81,"x_max":843,"o":"m 843 292 q 742 66 843 150 q 458 -17 641 -17 q 180 66 279 -17 q 81 292 81 149 l 81 720 l 357 720 l 357 332 q 461 199 357 199 q 539 229 512 199 q 567 332 567 258 l 567 720 l 843 720 l 843 292 z "},"φ":{"ha":1234,"x_min":49,"x_max":1177,"o":"m 475 191 l 475 425 q 548 668 475 600 q 783 736 622 736 q 1074 638 972 736 q 1177 357 1177 541 q 1058 96 1177 199 q 741 -16 939 -7 l 741 -275 l 475 -275 l 475 -14 q 168 98 286 -5 q 49 357 49 200 q 145 628 49 533 q 457 736 241 722 l 414 532 q 342 479 371 522 q 314 375 314 437 q 360 247 314 296 q 475 191 407 198 m 741 187 q 862 241 814 197 q 911 357 911 286 q 881 485 911 438 q 811 532 851 532 q 757 501 773 532 q 741 407 741 471 l 741 187 z "},"χ":{"ha":900,"x_min":9,"x_max":890,"o":"m 890 -275 l 589 -275 l 453 79 l 288 -275 l 9 -275 l 267 244 l 24 720 l 328 720 l 450 389 l 587 720 l 872 720 l 632 244 l 890 -275 z "},"ψ":{"ha":1272,"x_min":81,"x_max":1192,"o":"m 1192 404 q 1086 95 1192 203 q 775 -14 981 -14 l 775 -275 l 498 -275 l 498 -16 q 186 93 292 -16 q 81 404 81 201 l 81 720 l 357 720 l 357 390 q 498 199 357 199 l 498 720 l 775 720 l 775 199 q 916 390 916 199 l 916 720 l 1192 720 l 1192 404 z "},"ω":{"ha":1314,"x_min":49,"x_max":1265,"o":"m 1182 720 q 1265 376 1265 568 q 1172 90 1265 197 q 916 -17 1078 -17 q 759 26 833 -17 q 656 142 684 69 q 557 26 629 68 q 399 -17 486 -17 q 142 90 236 -17 q 49 376 49 197 q 132 720 49 568 l 410 720 q 363 552 385 657 q 342 371 342 448 q 440 200 342 200 q 494 238 469 200 q 519 338 519 277 l 519 566 l 796 566 l 796 338 q 821 238 796 277 q 873 200 846 200 q 972 371 972 200 q 951 552 972 448 q 904 720 929 657 l 1182 720 z "},"ϊ":{"ha":463,"x_min":-1,"x_max":465,"o":"m 94 720 l 370 720 l 370 0 l 94 0 l 94 720 m -1 981 l 175 981 l 175 811 l -1 811 l -1 981 m 286 981 l 465 981 l 465 811 l 286 811 l 286 981 z "},"ϋ":{"ha":926,"x_min":81,"x_max":843,"o":"m 843 292 q 742 66 843 150 q 458 -17 641 -17 q 180 66 279 -17 q 81 292 81 149 l 81 720 l 357 720 l 357 332 q 461 199 357 199 q 539 229 512 199 q 567 332 567 258 l 567 720 l 843 720 l 843 292 m 232 981 l 408 981 l 408 811 l 232 811 l 232 981 m 519 981 l 698 981 l 698 811 l 519 811 l 519 981 z "},"ό":{"ha":926,"x_min":50,"x_max":877,"o":"m 50 358 q 161 630 50 523 q 461 736 272 736 q 788 611 677 736 q 877 362 877 510 q 767 90 877 196 q 462 -16 656 -16 q 181 72 288 -16 q 50 358 50 181 m 326 359 q 365 216 326 262 q 463 170 404 170 q 561 216 523 170 q 600 361 600 261 q 561 501 600 455 q 465 547 522 547 q 366 500 405 547 q 326 359 326 454 m 625 994 l 503 791 l 370 791 l 415 994 l 625 994 z "},"ύ":{"ha":926,"x_min":81,"x_max":843,"o":"m 843 292 q 742 66 843 150 q 458 -17 641 -17 q 180 66 279 -17 q 81 292 81 149 l 81 720 l 357 720 l 357 332 q 461 199 357 199 q 539 229 512 199 q 567 332 567 258 l 567 720 l 843 720 l 843 292 m 627 994 l 505 791 l 373 791 l 418 994 l 627 994 z "},"ώ":{"ha":1314,"x_min":49,"x_max":1265,"o":"m 1182 720 q 1265 376 1265 568 q 1172 90 1265 197 q 916 -17 1078 -17 q 759 26 833 -17 q 656 142 684 69 q 557 26 629 68 q 399 -17 486 -17 q 142 90 236 -17 q 49 376 49 197 q 132 720 49 568 l 410 720 q 363 552 385 657 q 342 371 342 448 q 440 200 342 200 q 494 238 469 200 q 519 338 519 277 l 519 566 l 796 566 l 796 338 q 821 238 796 277 q 873 200 846 200 q 972 371 972 200 q 951 552 972 448 q 904 720 929 657 l 1182 720 m 809 994 l 687 791 l 555 791 l 600 994 l 809 994 z "},"Ё":{"ha":1003,"x_min":101,"x_max":939,"o":"m 101 994 l 924 994 l 924 782 l 409 782 l 409 624 l 887 624 l 887 421 l 409 421 l 409 225 l 939 225 l 939 0 l 101 0 l 101 994 m 269 1227 l 446 1227 l 446 1057 l 269 1057 l 269 1227 m 557 1227 l 735 1227 l 735 1057 l 557 1057 l 557 1227 z "},"Ђ":{"ha":1394,"x_min":36,"x_max":1340,"o":"m 656 611 q 903 660 791 660 q 1228 571 1116 660 q 1340 317 1340 482 q 1231 75 1340 159 q 911 -8 1121 -8 q 794 3 872 -8 l 836 212 q 911 203 885 203 q 999 230 962 203 q 1035 306 1035 258 q 993 384 1035 357 q 880 411 951 411 q 656 361 777 411 l 656 0 l 349 0 l 349 750 l 36 750 l 36 994 l 968 994 l 968 750 l 656 750 l 656 611 z "},"Ѓ":{"ha":926,"x_min":102,"x_max":889,"o":"m 889 750 l 408 750 l 408 0 l 102 0 l 102 994 l 889 994 l 889 750 m 450 1272 l 687 1272 l 468 1069 l 336 1069 l 450 1272 z "},"Є":{"ha":1105,"x_min":64,"x_max":1061,"o":"m 1061 289 q 900 68 1015 153 q 568 -17 784 -17 q 196 118 329 -17 q 64 504 64 252 q 198 878 64 745 q 581 1011 332 1011 q 1039 761 916 1011 l 762 656 q 581 781 717 781 q 376 589 406 781 l 677 589 l 677 404 l 378 404 q 579 214 403 214 q 772 367 730 214 l 1061 289 z "},"Ѕ":{"ha":1003,"x_min":48,"x_max":950,"o":"m 48 329 l 340 347 q 379 239 350 276 q 515 178 427 178 q 616 209 581 178 q 652 281 652 240 q 618 350 652 319 q 460 408 584 380 q 172 528 258 453 q 85 720 85 604 q 130 865 85 797 q 263 972 174 933 q 508 1011 353 1011 q 799 940 699 1011 q 918 715 899 869 l 628 698 q 579 795 616 765 q 477 826 543 826 q 397 803 424 826 q 370 748 370 781 q 392 705 370 724 q 495 669 414 686 q 784 581 696 625 q 910 471 871 536 q 950 323 950 405 q 897 147 950 228 q 749 25 844 66 q 510 -17 654 -17 q 159 81 256 -17 q 48 329 61 178 z "},"І":{"ha":541,"x_min":114,"x_max":422,"o":"m 114 994 l 422 994 l 422 0 l 114 0 l 114 994 z "},"Ї":{"ha":541,"x_min":38,"x_max":504,"o":"m 114 994 l 422 994 l 422 0 l 114 0 l 114 994 m 38 1227 l 214 1227 l 214 1057 l 38 1057 l 38 1227 m 326 1227 l 504 1227 l 504 1057 l 326 1057 l 326 1227 z "},"Ј":{"ha":926,"x_min":24,"x_max":823,"o":"m 515 994 l 823 994 l 823 454 q 793 195 823 283 q 672 44 763 106 q 438 -18 581 -18 q 205 23 288 -18 q 77 142 122 64 q 24 336 32 220 l 317 376 q 329 278 318 310 q 366 227 340 246 q 416 214 383 214 q 491 252 467 214 q 515 381 515 290 l 515 994 z "},"Љ":{"ha":1681,"x_min":1,"x_max":1624,"o":"m 1015 611 l 1179 611 q 1511 528 1399 611 q 1624 283 1624 444 q 1560 105 1624 182 q 1379 14 1497 28 q 1236 0 1260 0 l 708 0 l 708 750 l 468 750 l 468 444 q 448 167 468 256 q 354 37 428 79 q 117 -4 281 -4 q 1 7 66 -4 l 1 208 l 47 208 q 136 236 110 208 q 161 336 161 263 l 161 994 l 1015 994 l 1015 611 m 1015 214 l 1173 214 q 1317 318 1317 214 q 1173 410 1317 410 l 1015 410 l 1015 214 z "},"Њ":{"ha":1681,"x_min":103,"x_max":1624,"o":"m 1015 611 l 1179 611 q 1511 528 1399 611 q 1624 283 1624 444 q 1560 105 1624 182 q 1379 14 1497 28 q 1236 0 1260 0 l 708 0 l 708 401 l 410 401 l 410 0 l 103 0 l 103 994 l 410 994 l 410 646 l 708 646 l 708 994 l 1015 994 l 1015 611 m 1015 214 l 1173 214 q 1317 318 1317 214 q 1173 410 1317 410 l 1015 410 l 1015 214 z "},"Ћ":{"ha":1356,"x_min":36,"x_max":1274,"o":"m 1274 0 l 966 0 l 966 264 q 832 415 966 415 q 656 343 732 415 l 656 0 l 349 0 l 349 750 l 36 750 l 36 994 l 968 994 l 968 750 l 656 750 l 656 583 q 925 661 791 661 q 1175 571 1077 661 q 1274 325 1274 481 l 1274 0 z "},"Ќ":{"ha":1014,"x_min":102,"x_max":1006,"o":"m 1006 0 l 660 0 l 541 257 q 474 371 498 348 q 408 393 450 393 l 408 0 l 102 0 l 102 994 l 408 994 l 408 612 q 471 641 448 614 q 541 793 493 667 q 610 926 575 886 q 725 984 646 966 q 974 1002 804 1002 l 974 791 l 958 791 q 842 762 880 791 q 779 665 804 732 q 727 565 755 598 q 650 513 699 532 q 766 438 716 491 q 871 272 815 385 l 1006 0 m 498 1269 l 736 1269 l 517 1066 l 385 1066 l 498 1269 z "},"Ў":{"ha":933,"x_min":8,"x_max":928,"o":"m 8 994 l 342 994 l 479 585 l 615 994 l 928 994 l 602 227 q 532 88 562 134 q 443 13 502 42 q 282 -17 385 -17 q 96 -1 228 -17 l 96 204 q 210 196 174 196 q 339 275 316 196 l 8 994 m 699 1270 q 630 1118 697 1171 q 472 1065 564 1065 q 305 1119 366 1065 q 236 1270 244 1173 l 353 1270 q 467 1197 373 1197 q 548 1212 518 1197 q 587 1270 577 1226 l 699 1270 z "},"Џ":{"ha":1157,"x_min":103,"x_max":1054,"o":"m 1054 0 l 701 0 l 701 -216 l 454 -216 l 454 0 l 103 0 l 103 994 l 410 994 l 410 244 l 747 244 l 747 994 l 1054 994 l 1054 0 z "},"А":{"ha":1080,"x_min":1,"x_max":1084,"o":"m 713 164 l 363 164 l 315 0 l 1 0 l 375 994 l 710 994 l 1084 0 l 762 0 l 713 164 m 649 379 l 539 736 l 430 379 l 649 379 z "},"Б":{"ha":1080,"x_min":103,"x_max":1018,"o":"m 410 611 l 574 611 q 909 531 800 611 q 1018 283 1018 452 q 918 73 1018 146 q 631 0 818 0 l 103 0 l 103 994 l 940 994 l 940 793 l 410 793 l 410 611 m 410 214 l 567 214 q 711 318 711 214 q 567 410 711 410 l 410 410 l 410 214 z "},"В":{"ha":1080,"x_min":102,"x_max":1021,"o":"m 102 994 l 677 994 q 898 923 821 994 q 975 747 975 852 q 920 595 975 659 q 813 529 884 553 q 971 440 920 503 q 1021 283 1021 378 q 985 144 1021 205 q 887 46 949 82 q 770 14 848 24 q 633 0 667 0 l 102 0 l 102 994 m 412 604 l 546 604 q 646 629 618 604 q 674 701 674 654 q 646 768 674 744 q 548 793 618 793 l 412 793 l 412 604 m 412 214 l 569 214 q 681 242 648 214 q 713 317 713 270 q 681 388 713 361 q 568 415 649 415 l 412 415 l 412 214 z "},"Г":{"ha":926,"x_min":102,"x_max":889,"o":"m 889 750 l 408 750 l 408 0 l 102 0 l 102 994 l 889 994 l 889 750 z "},"Д":{"ha":1164,"x_min":16,"x_max":1145,"o":"m 1145 -216 l 897 -216 l 897 0 l 262 0 l 262 -216 l 16 -216 l 16 229 l 118 229 q 204 772 204 470 l 204 994 l 1038 994 l 1038 229 l 1145 229 l 1145 -216 m 730 229 l 730 750 l 484 750 l 484 737 q 414 229 484 531 l 730 229 z "},"Е":{"ha":1003,"x_min":101,"x_max":939,"o":"m 101 994 l 924 994 l 924 782 l 409 782 l 409 624 l 887 624 l 887 421 l 409 421 l 409 225 l 939 225 l 939 0 l 101 0 l 101 994 z "},"Ж":{"ha":1508,"x_min":-3,"x_max":1499,"o":"m 1499 0 l 1153 0 l 1034 257 q 967 371 991 348 q 901 393 943 393 l 901 0 l 595 0 l 595 393 q 528 371 552 393 q 463 257 505 348 l 343 0 l -3 0 l 132 272 q 238 438 188 385 q 353 513 288 492 q 276 565 304 532 q 223 665 248 598 q 161 762 199 732 q 45 791 123 791 l 29 791 l 29 1002 q 278 984 199 1002 q 392 926 357 966 q 463 793 427 886 q 532 641 509 667 q 595 612 554 614 l 595 994 l 901 994 l 901 612 q 964 641 941 614 q 1034 793 986 667 q 1103 926 1068 886 q 1218 984 1139 966 q 1467 1002 1297 1002 l 1467 791 l 1451 791 q 1335 762 1373 791 q 1272 665 1297 732 q 1220 565 1248 598 q 1143 513 1192 532 q 1259 438 1209 491 q 1364 272 1308 385 l 1499 0 z "},"З":{"ha":956,"x_min":40,"x_max":904,"o":"m 725 541 q 904 315 904 492 q 792 76 904 170 q 475 -17 680 -17 q 40 277 125 -17 l 330 298 q 469 195 355 195 q 566 227 533 195 q 599 315 599 258 q 557 405 599 370 q 444 439 516 439 l 361 439 l 361 616 l 427 616 q 519 647 486 616 q 553 733 553 678 q 452 814 553 814 q 330 721 347 814 l 56 753 q 457 1011 123 1011 q 747 939 642 1011 q 852 746 852 867 q 725 541 852 600 z "},"И":{"ha":1157,"x_min":102,"x_max":1053,"o":"m 1053 994 l 1053 0 l 764 0 l 764 546 l 392 0 l 102 0 l 102 994 l 392 994 l 392 444 l 766 994 l 1053 994 z "},"Й":{"ha":1157,"x_min":102,"x_max":1053,"o":"m 1053 994 l 1053 0 l 764 0 l 764 546 l 392 0 l 102 0 l 102 994 l 392 994 l 392 444 l 766 994 l 1053 994 m 828 1239 q 746 1101 814 1154 q 583 1048 677 1048 q 421 1101 490 1048 q 339 1239 353 1154 l 457 1239 q 581 1154 486 1154 q 710 1239 682 1154 l 828 1239 z "},"К":{"ha":1014,"x_min":102,"x_max":1006,"o":"m 1006 0 l 660 0 l 541 257 q 474 371 498 348 q 408 393 450 393 l 408 0 l 102 0 l 102 994 l 408 994 l 408 612 q 471 641 448 614 q 541 793 493 667 q 610 926 575 886 q 725 984 646 966 q 974 1002 804 1002 l 974 791 l 958 791 q 842 762 880 791 q 779 665 804 732 q 727 565 755 598 q 650 513 699 532 q 766 438 716 491 q 871 272 815 385 l 1006 0 z "},"Л":{"ha":1117,"x_min":1,"x_max":1015,"o":"m 1015 0 l 708 0 l 708 750 l 468 750 l 468 444 q 448 167 468 256 q 354 37 428 79 q 117 -4 281 -4 q 1 7 66 -4 l 1 208 l 47 208 q 136 236 110 208 q 161 336 161 263 l 161 994 l 1015 994 l 1015 0 z "},"М":{"ha":1311,"x_min":98,"x_max":1217,"o":"m 98 994 l 503 994 l 659 389 l 814 994 l 1217 994 l 1217 0 l 966 0 l 966 758 l 771 0 l 544 0 l 350 758 l 350 0 l 98 0 l 98 994 z "},"Н":{"ha":1157,"x_min":103,"x_max":1055,"o":"m 103 994 l 410 994 l 410 646 l 746 646 l 746 994 l 1055 994 l 1055 0 l 746 0 l 746 402 l 410 402 l 410 0 l 103 0 l 103 994 z "},"О":{"ha":1157,"x_min":63,"x_max":1093,"o":"m 63 496 q 199 876 63 740 q 576 1011 334 1011 q 959 878 825 1011 q 1093 505 1093 745 q 1035 219 1093 330 q 865 45 976 107 q 589 -17 754 -17 q 310 37 420 -17 q 132 206 200 90 q 63 496 63 322 m 370 495 q 426 279 370 345 q 578 213 482 213 q 732 277 677 213 q 786 509 786 342 q 729 714 786 649 q 576 779 673 779 q 427 713 483 779 q 370 495 370 647 z "},"П":{"ha":1157,"x_min":103,"x_max":1054,"o":"m 1054 0 l 747 0 l 747 750 l 410 750 l 410 0 l 103 0 l 103 994 l 1054 994 l 1054 0 z "},"Р":{"ha":1003,"x_min":100,"x_max":944,"o":"m 100 994 l 611 994 q 861 915 778 994 q 944 689 944 836 q 853 454 944 538 q 577 369 763 369 l 409 369 l 409 0 l 100 0 l 100 994 m 409 570 l 484 570 q 609 601 573 570 q 645 680 645 632 q 614 760 645 727 q 496 792 583 792 l 409 792 l 409 570 z "},"С":{"ha":1080,"x_min":66,"x_max":1033,"o":"m 764 406 l 1033 325 q 947 136 1006 212 q 803 21 889 60 q 583 -18 716 -18 q 318 30 420 -18 q 140 195 215 77 q 66 499 66 314 q 197 879 66 746 q 568 1011 328 1011 q 864 935 756 1011 q 1023 702 971 859 l 752 642 q 722 708 738 687 q 659 762 696 743 q 576 781 622 781 q 416 697 471 781 q 374 501 374 635 q 424 274 374 336 q 565 213 474 213 q 698 262 653 213 q 764 406 743 312 z "},"Т":{"ha":1003,"x_min":32,"x_max":966,"o":"m 32 994 l 966 994 l 966 749 l 652 749 l 652 0 l 345 0 l 345 749 l 32 749 l 32 994 z "},"У":{"ha":933,"x_min":8,"x_max":928,"o":"m 8 994 l 342 994 l 479 585 l 615 994 l 928 994 l 602 227 q 532 88 562 134 q 443 13 502 42 q 282 -17 385 -17 q 96 -1 228 -17 l 96 204 q 210 196 174 196 q 339 275 316 196 l 8 994 z "},"Ф":{"ha":1283,"x_min":50,"x_max":1235,"o":"m 782 918 q 1235 511 1235 871 q 782 103 1235 144 l 782 0 l 503 0 l 503 106 q 50 511 50 144 q 503 918 50 871 l 503 994 l 782 994 l 782 918 m 782 311 q 895 386 854 332 q 935 515 935 440 q 893 645 935 587 q 782 725 852 702 l 782 311 m 503 309 l 503 720 q 392 642 434 700 q 350 510 350 584 q 392 386 350 441 q 503 309 433 331 z "},"Х":{"ha":1080,"x_min":2,"x_max":1083,"o":"m 33 994 l 372 994 l 548 688 l 719 994 l 1054 994 l 745 513 l 1083 0 l 738 0 l 542 319 l 345 0 l 2 0 l 345 518 l 33 994 z "},"Ц":{"ha":1194,"x_min":103,"x_max":1161,"o":"m 1161 -216 l 914 -216 l 914 0 l 103 0 l 103 994 l 410 994 l 410 244 l 747 244 l 747 994 l 1054 994 l 1054 229 l 1161 229 l 1161 -216 z "},"Ч":{"ha":1117,"x_min":92,"x_max":1015,"o":"m 1015 0 l 708 0 l 708 370 q 440 292 567 292 q 190 381 288 292 q 92 628 92 471 l 92 994 l 399 994 l 399 689 q 433 577 399 616 q 533 538 468 538 q 708 610 654 538 l 708 994 l 1015 994 l 1015 0 z "},"Ш":{"ha":1541,"x_min":103,"x_max":1440,"o":"m 1440 0 l 103 0 l 103 994 l 410 994 l 410 244 l 616 244 l 616 994 l 924 994 l 924 244 l 1133 244 l 1133 994 l 1440 994 l 1440 0 z "},"Щ":{"ha":1581,"x_min":103,"x_max":1547,"o":"m 1547 -216 l 1300 -216 l 1300 0 l 103 0 l 103 994 l 410 994 l 410 244 l 616 244 l 616 994 l 924 994 l 924 244 l 1133 244 l 1133 994 l 1440 994 l 1440 229 l 1547 229 l 1547 -216 z "},"Ъ":{"ha":1392,"x_min":35,"x_max":1335,"o":"m 726 604 l 890 604 q 1335 283 1335 604 q 1272 105 1335 182 q 1090 14 1208 28 q 947 0 971 0 l 419 0 l 419 793 l 35 793 l 35 994 l 726 994 l 726 604 m 726 214 l 884 214 q 1028 318 1028 214 q 884 416 1028 416 l 726 416 l 726 214 z "},"Ы":{"ha":1503,"x_min":103,"x_max":1401,"o":"m 410 611 l 574 611 q 909 531 800 611 q 1018 283 1018 452 q 918 73 1018 146 q 631 0 818 0 l 103 0 l 103 994 l 410 994 l 410 611 m 410 214 l 567 214 q 711 318 711 214 q 567 410 711 410 l 410 410 l 410 214 m 1093 994 l 1401 994 l 1401 0 l 1093 0 l 1093 994 z "},"Ь":{"ha":1075,"x_min":103,"x_max":1018,"o":"m 410 611 l 574 611 q 909 531 800 611 q 1018 283 1018 452 q 918 73 1018 146 q 631 0 818 0 l 103 0 l 103 994 l 410 994 l 410 611 m 410 214 l 567 214 q 711 318 711 214 q 567 410 711 410 l 410 410 l 410 214 z "},"Э":{"ha":1105,"x_min":43,"x_max":1040,"o":"m 65 761 q 524 1011 189 1011 q 906 878 772 1011 q 1040 504 1040 745 q 908 118 1040 252 q 536 -17 776 -17 q 205 68 321 -17 q 43 289 89 153 l 332 367 q 525 214 374 214 q 726 404 701 214 l 427 404 l 427 589 l 728 589 q 524 781 699 781 q 342 656 387 781 l 65 761 z "},"Ю":{"ha":1609,"x_min":103,"x_max":1543,"o":"m 529 646 q 696 918 569 824 q 1026 1011 824 1011 q 1409 878 1275 1011 q 1543 504 1543 745 q 1411 118 1543 252 q 1039 -17 1278 -17 q 664 103 787 -17 q 519 401 541 222 l 410 401 l 410 0 l 103 0 l 103 994 l 410 994 l 410 646 l 529 646 m 1028 214 q 1183 280 1131 214 q 1236 509 1236 346 q 1026 781 1236 781 q 821 494 821 781 q 1028 214 821 214 z "},"Я":{"ha":1083,"x_min":3,"x_max":981,"o":"m 981 0 l 981 994 l 469 994 q 251 970 326 994 q 130 879 176 945 q 83 718 83 813 q 119 575 83 635 q 216 478 154 515 q 323 439 255 454 q 243 402 269 420 q 194 350 227 390 q 151 288 162 310 l 3 0 l 350 0 l 514 304 q 570 380 545 363 q 645 404 603 404 l 672 404 l 672 0 l 981 0 m 672 591 l 543 591 q 461 605 522 591 q 411 636 431 611 q 392 694 392 661 q 422 768 392 742 q 537 793 453 793 l 672 793 l 672 591 z "},"а":{"ha":926,"x_min":50,"x_max":879,"o":"m 335 487 l 71 515 q 114 624 86 584 q 195 692 142 663 q 300 725 233 713 q 444 736 366 736 q 643 723 568 736 q 768 665 718 709 q 824 578 804 634 q 844 471 844 522 l 844 153 q 851 74 844 102 q 879 0 857 45 l 620 0 q 600 42 604 28 q 590 88 595 57 q 482 14 536 36 q 312 -16 409 -16 q 116 43 183 -16 q 50 191 50 103 q 98 326 50 273 q 275 404 146 378 q 477 448 431 435 q 574 481 523 460 q 553 552 574 532 q 479 572 532 572 q 378 551 412 572 q 335 487 351 534 m 574 342 q 456 306 517 321 q 349 262 372 283 q 326 211 326 239 q 349 158 326 178 q 416 137 372 137 q 502 159 462 137 q 558 214 541 182 q 574 298 574 246 l 574 342 z "},"б":{"ha":926,"x_min":50,"x_max":876,"o":"m 325 699 q 461 736 374 736 q 770 629 664 736 q 876 363 876 522 q 771 94 876 205 q 461 -17 665 -17 q 154 95 258 -17 q 50 458 50 206 q 140 836 50 692 q 397 985 229 979 l 481 987 q 604 1017 593 992 l 823 1017 q 602 811 823 819 q 398 782 452 806 q 325 699 345 758 m 463 172 q 565 221 529 172 q 600 361 600 270 q 564 499 600 451 q 465 547 527 547 q 361 495 397 547 q 326 358 326 442 q 361 221 326 271 q 463 172 396 172 z "},"в":{"ha":854,"x_min":83,"x_max":806,"o":"m 627 383 q 757 329 709 375 q 806 205 806 283 q 738 51 806 102 q 494 0 670 0 l 83 0 l 83 720 l 528 720 q 712 673 648 720 q 775 545 775 627 q 734 443 775 486 q 627 386 692 400 l 627 383 m 359 446 l 429 446 q 498 509 498 446 q 425 559 498 559 l 359 559 l 359 446 m 359 170 l 450 170 q 505 185 484 170 q 526 231 526 201 q 450 296 526 296 l 359 296 l 359 170 z "},"г":{"ha":705,"x_min":93,"x_max":676,"o":"m 676 518 l 370 518 l 370 0 l 93 0 l 93 720 l 676 720 l 676 518 z "},"д":{"ha":920,"x_min":9,"x_max":903,"o":"m 903 -205 l 711 -205 l 711 0 l 201 0 l 201 -205 l 9 -205 l 9 201 l 79 201 q 155 557 155 337 l 155 720 l 827 720 l 827 201 l 903 201 l 903 -205 m 550 201 l 550 518 l 418 518 l 418 510 q 353 201 418 360 l 550 201 z "},"е":{"ha":926,"x_min":49,"x_max":883,"o":"m 883 292 l 330 292 q 366 193 337 225 q 470 146 406 146 q 547 166 511 146 q 595 212 570 179 l 867 186 q 717 31 805 78 q 464 -16 629 -16 q 239 24 321 -16 q 103 152 157 64 q 49 359 49 240 q 157 632 49 528 q 456 736 265 736 q 700 690 610 736 q 836 554 789 643 q 883 323 883 465 l 883 292 m 602 424 q 559 538 594 504 q 467 573 524 573 q 362 521 401 573 q 330 424 337 488 l 602 424 z "},"ж":{"ha":1283,"x_min":5,"x_max":1276,"o":"m 1276 0 l 965 0 l 868 199 q 828 259 844 248 q 779 271 811 271 l 779 0 l 503 0 l 503 271 q 455 260 471 271 q 414 199 438 249 l 317 0 l 5 0 l 127 216 q 212 331 176 303 q 319 366 247 359 q 259 393 283 372 q 208 462 235 413 q 153 522 182 511 q 64 533 123 533 l 52 533 l 52 729 q 255 717 193 729 q 350 668 316 705 q 414 561 383 631 q 458 476 446 490 q 503 460 471 463 l 503 720 l 779 720 l 779 460 q 823 476 810 463 q 867 561 836 490 q 932 668 899 631 q 1027 717 966 705 q 1231 729 1089 729 l 1231 533 l 1218 533 q 1129 522 1159 533 q 1074 462 1100 511 q 1023 393 1047 413 q 962 366 998 372 q 1067 334 1031 359 q 1154 216 1103 308 l 1276 0 z "},"з":{"ha":942,"x_min":52,"x_max":890,"o":"m 750 372 q 852 309 814 352 q 890 214 890 266 q 783 42 890 101 q 468 -17 675 -17 q 195 47 294 -17 q 52 240 96 111 l 314 269 q 370 202 328 231 q 467 172 412 172 q 606 241 606 172 q 579 280 606 265 q 510 294 553 294 l 390 294 l 390 436 l 513 436 q 578 451 549 436 q 608 489 608 466 q 573 531 608 515 q 476 547 538 547 q 373 522 415 547 q 319 461 331 496 l 65 496 q 201 677 102 618 q 475 736 300 736 q 759 677 656 736 q 861 528 861 618 q 750 372 861 419 z "},"и":{"ha":981,"x_min":93,"x_max":888,"o":"m 888 0 l 627 0 l 627 354 l 355 0 l 93 0 l 93 720 l 354 720 l 354 361 l 628 720 l 888 720 l 888 0 z "},"й":{"ha":981,"x_min":93,"x_max":888,"o":"m 888 0 l 627 0 l 627 354 l 355 0 l 93 0 l 93 720 l 354 720 l 354 361 l 628 720 l 888 720 l 888 0 m 713 1011 q 644 860 711 913 q 486 807 578 807 q 319 861 379 807 q 250 1011 258 915 l 367 1011 q 481 939 387 939 q 562 953 532 939 q 602 1011 591 968 l 713 1011 z "},"к":{"ha":892,"x_min":83,"x_max":885,"o":"m 885 0 l 574 0 l 468 199 q 419 258 443 246 q 359 271 395 271 l 359 0 l 83 0 l 83 720 l 359 720 l 359 460 q 410 482 393 463 q 457 566 426 501 q 512 660 488 630 q 574 705 536 690 q 669 724 612 720 q 839 728 726 728 l 839 532 l 827 532 q 742 527 771 532 q 695 509 713 523 q 654 450 677 494 q 616 389 631 406 q 571 366 601 372 q 660 341 629 360 q 754 216 691 321 l 885 0 z "},"л":{"ha":994,"x_min":18,"x_max":911,"o":"m 911 0 l 635 0 l 635 518 l 425 518 l 425 216 q 376 37 425 96 q 225 -21 327 -21 q 18 0 110 -21 l 18 204 q 93 189 67 189 q 149 272 149 189 l 149 720 l 911 720 l 911 0 z "},"м":{"ha":1175,"x_min":93,"x_max":1082,"o":"m 1082 0 l 848 0 l 848 452 l 677 0 l 511 0 l 326 452 l 326 0 l 93 0 l 93 720 l 422 720 l 595 306 l 753 720 l 1082 720 l 1082 0 z "},"н":{"ha":990,"x_min":93,"x_max":897,"o":"m 897 0 l 621 0 l 621 272 l 370 272 l 370 0 l 93 0 l 93 720 l 370 720 l 370 473 l 621 473 l 621 720 l 897 720 l 897 0 z "},"о":{"ha":926,"x_min":50,"x_max":877,"o":"m 50 358 q 161 630 50 523 q 461 736 272 736 q 788 611 677 736 q 877 362 877 510 q 767 90 877 196 q 462 -16 656 -16 q 181 72 288 -16 q 50 358 50 181 m 326 359 q 365 216 326 262 q 463 170 404 170 q 561 216 523 170 q 600 361 600 261 q 561 501 600 455 q 465 547 522 547 q 366 500 405 547 q 326 359 326 454 z "},"п":{"ha":926,"x_min":81,"x_max":843,"o":"m 843 0 l 567 0 l 567 518 l 357 518 l 357 0 l 81 0 l 81 720 l 843 720 l 843 0 z "},"р":{"ha":926,"x_min":85,"x_max":878,"o":"m 85 -274 l 85 720 l 343 720 l 343 614 q 441 705 397 681 q 575 736 502 736 q 799 626 720 736 q 878 353 878 515 q 791 78 878 173 q 574 -16 705 -16 q 457 5 510 -16 q 363 70 405 27 l 363 -274 l 85 -274 m 361 358 q 397 231 361 273 q 488 190 433 190 q 569 230 536 190 q 602 364 602 269 q 568 493 602 452 q 485 534 534 534 q 397 492 432 534 q 361 358 361 451 z "},"с":{"ha":926,"x_min":50,"x_max":883,"o":"m 621 281 l 883 252 q 812 110 861 170 q 685 16 762 50 q 490 -17 608 -17 q 299 4 375 -17 q 168 74 222 26 q 81 186 113 121 q 50 357 50 250 q 88 542 50 468 q 164 639 116 596 q 263 703 212 682 q 470 736 344 736 q 739 673 646 736 q 869 489 831 610 l 609 454 q 565 524 597 500 q 478 547 532 547 q 367 498 410 547 q 325 349 325 449 q 367 214 325 260 q 474 168 409 168 q 565 196 528 168 q 621 281 602 224 z "},"т":{"ha":705,"x_min":14,"x_max":690,"o":"m 690 518 l 490 518 l 490 0 l 214 0 l 214 518 l 14 518 l 14 720 l 690 720 l 690 518 z "},"у":{"ha":848,"x_min":3,"x_max":853,"o":"m 3 720 l 295 720 l 444 241 l 581 720 l 853 720 l 568 -50 q 468 -227 519 -181 q 249 -292 396 -292 q 64 -276 189 -292 l 43 -83 q 176 -102 102 -102 q 255 -80 224 -102 q 306 0 285 -58 l 3 720 z "},"ф":{"ha":1407,"x_min":52,"x_max":1356,"o":"m 842 647 q 1053 736 924 736 q 1274 628 1192 736 q 1356 349 1356 521 q 1274 82 1356 182 q 1051 -17 1192 -17 q 842 69 918 -17 l 842 -275 l 566 -275 l 566 68 q 354 -17 479 -17 q 134 91 216 -17 q 52 371 52 198 q 134 637 52 538 q 355 736 216 736 q 566 644 488 736 l 566 994 l 842 994 l 842 647 m 966 187 q 1050 233 1021 187 q 1079 354 1079 278 q 962 532 1079 532 q 875 493 911 532 q 839 357 839 454 q 871 236 839 284 q 966 187 904 187 m 444 187 q 532 226 496 187 q 568 363 568 265 q 536 484 568 435 q 440 532 503 532 q 357 487 387 532 q 328 366 328 441 q 444 187 328 187 z "},"х":{"ha":926,"x_min":7,"x_max":918,"o":"m 21 720 l 349 720 l 463 519 l 596 720 l 901 720 l 655 377 l 918 0 l 596 0 l 463 232 l 307 0 l 7 0 l 269 377 l 21 720 z "},"ц":{"ha":958,"x_min":79,"x_max":947,"o":"m 947 -205 l 755 -205 l 755 0 l 79 0 l 79 720 l 355 720 l 355 201 l 566 201 l 566 720 l 842 720 l 842 201 l 947 201 l 947 -205 z "},"ч":{"ha":920,"x_min":78,"x_max":840,"o":"m 840 0 l 564 0 l 564 265 q 338 203 459 203 q 78 479 78 203 l 78 720 l 354 720 l 354 522 q 376 446 354 473 q 439 418 399 418 q 564 481 516 418 l 564 720 l 840 720 l 840 0 z "},"ш":{"ha":1318,"x_min":79,"x_max":1217,"o":"m 1217 0 l 79 0 l 79 720 l 355 720 l 355 201 l 510 201 l 510 720 l 786 720 l 786 201 l 940 201 l 940 720 l 1217 720 l 1217 0 z "},"щ":{"ha":1336,"x_min":79,"x_max":1322,"o":"m 1322 -205 l 1131 -205 l 1131 0 l 79 0 l 79 720 l 355 720 l 355 201 l 510 201 l 510 720 l 786 720 l 786 201 l 940 201 l 940 720 l 1217 720 l 1217 201 l 1322 201 l 1322 -205 z "},"ъ":{"ha":1071,"x_min":5,"x_max":1021,"o":"m 575 464 l 701 464 q 1021 231 1021 464 q 710 0 1021 0 l 298 0 l 298 518 l 5 518 l 5 720 l 575 720 l 575 464 m 575 170 l 665 170 q 721 185 699 170 q 742 231 742 201 q 665 296 742 296 l 575 296 l 575 170 z "},"ы":{"ha":1263,"x_min":93,"x_max":1170,"o":"m 370 464 l 496 464 q 815 231 815 464 q 504 0 815 0 l 93 0 l 93 720 l 370 720 l 370 464 m 370 170 l 460 170 q 515 185 494 170 q 536 231 536 201 q 460 296 536 296 l 370 296 l 370 170 m 894 720 l 1170 720 l 1170 0 l 894 0 l 894 720 z "},"ь":{"ha":863,"x_min":93,"x_max":815,"o":"m 370 464 l 496 464 q 815 231 815 464 q 504 0 815 0 l 93 0 l 93 720 l 370 720 l 370 464 m 370 170 l 460 170 q 515 185 494 170 q 536 231 536 201 q 460 296 536 296 l 370 296 l 370 170 z "},"э":{"ha":926,"x_min":43,"x_max":876,"o":"m 57 489 q 191 676 96 616 q 456 736 287 736 q 663 703 581 736 q 811 585 745 670 q 876 357 876 500 q 773 85 876 188 q 436 -17 670 -17 q 43 254 117 -17 l 306 283 q 453 172 339 172 q 595 288 569 172 l 382 288 l 382 429 l 590 429 q 447 547 560 547 q 317 454 338 547 l 57 489 z "},"ю":{"ha":1354,"x_min":93,"x_max":1304,"o":"m 494 473 q 634 667 532 599 q 889 736 736 736 q 1198 629 1091 736 q 1304 363 1304 522 q 1198 94 1304 205 q 889 -17 1093 -17 q 624 60 728 -17 q 488 272 519 136 l 370 272 l 370 0 l 93 0 l 93 720 l 370 720 l 370 473 l 494 473 m 890 172 q 992 221 957 172 q 1028 361 1028 270 q 991 499 1028 451 q 893 547 955 547 q 789 495 825 547 q 754 358 754 442 q 789 221 754 271 q 890 172 823 172 z "},"я":{"ha":867,"x_min":1,"x_max":783,"o":"m 783 0 l 507 0 l 507 279 l 497 279 q 451 263 468 279 q 418 215 435 248 l 307 0 l 1 0 l 109 208 q 233 310 156 301 q 100 383 146 323 q 54 513 54 442 q 89 636 54 583 q 191 705 124 690 q 359 720 258 720 l 783 720 l 783 0 m 507 443 l 507 555 l 421 555 q 345 541 360 555 q 330 500 330 526 q 431 443 330 443 l 507 443 z "},"ё":{"ha":926,"x_min":49,"x_max":883,"o":"m 883 292 l 330 292 q 366 193 337 225 q 470 146 406 146 q 547 166 511 146 q 595 212 570 179 l 867 186 q 717 31 805 78 q 464 -16 629 -16 q 239 24 321 -16 q 103 152 157 64 q 49 359 49 240 q 157 632 49 528 q 456 736 265 736 q 700 690 610 736 q 836 554 789 643 q 883 323 883 465 l 883 292 m 602 424 q 559 538 594 504 q 467 573 524 573 q 362 521 401 573 q 330 424 337 488 l 602 424 m 231 981 l 407 981 l 407 811 l 231 811 l 231 981 m 518 981 l 696 981 l 696 811 l 518 811 l 518 981 z "},"ђ":{"ha":939,"x_min":14,"x_max":857,"o":"m 857 36 q 843 -137 857 -77 q 775 -238 829 -197 q 616 -278 722 -278 q 418 -254 532 -278 l 460 -54 q 509 -61 496 -61 q 562 -37 543 -61 q 581 60 581 -13 l 581 396 q 484 521 581 521 q 400 481 430 521 q 371 346 371 441 l 371 0 l 94 0 l 94 804 l 14 804 l 14 930 l 94 930 l 94 994 l 371 994 l 371 930 l 536 930 l 536 804 l 371 804 l 371 628 q 615 736 468 736 q 796 664 735 736 q 857 458 857 591 l 857 36 z "},"ѓ":{"ha":616,"x_min":86,"x_max":653,"o":"m 86 720 l 345 720 l 345 602 q 421 708 382 679 q 519 736 461 736 q 653 699 581 736 l 568 502 q 490 522 519 522 q 406 477 436 522 q 363 241 363 414 l 363 0 l 86 0 l 86 720 m 347 1011 l 585 1011 l 366 808 l 233 808 l 347 1011 z "},"є":{"ha":926,"x_min":50,"x_max":884,"o":"m 884 254 q 490 -17 810 -17 q 153 85 256 -17 q 50 357 50 188 q 108 574 50 492 q 249 696 165 656 q 471 736 332 736 q 735 676 640 736 q 869 489 831 616 l 610 454 q 479 547 588 547 q 336 429 366 547 l 545 429 l 545 288 l 332 288 q 473 172 357 172 q 621 283 587 172 l 884 254 z "},"ѕ":{"ha":848,"x_min":35,"x_max":800,"o":"m 35 199 l 309 225 q 356 155 326 176 q 437 134 387 134 q 524 158 493 134 q 547 202 547 176 q 516 248 547 232 q 397 277 494 260 q 198 323 254 302 q 103 395 142 345 q 65 511 65 446 q 106 634 65 583 q 220 711 148 686 q 415 736 293 736 q 605 717 544 736 q 708 656 667 697 q 776 544 749 614 l 514 518 q 480 569 504 553 q 401 591 448 591 q 333 574 355 591 q 312 534 312 557 q 339 494 312 507 q 457 469 366 480 q 662 426 595 454 q 765 347 729 398 q 800 233 800 295 q 763 112 800 171 q 644 18 725 53 q 423 -17 563 -17 q 142 39 226 -17 q 35 199 58 96 z "},"і":{"ha":463,"x_min":94,"x_max":370,"o":"m 94 994 l 370 994 l 370 806 l 94 806 l 94 994 m 94 720 l 370 720 l 370 0 l 94 0 l 94 720 z "},"ї":{"ha":463,"x_min":-1,"x_max":465,"o":"m 94 720 l 370 720 l 370 0 l 94 0 l 94 720 m -1 981 l 175 981 l 175 811 l -1 811 l -1 981 m 286 981 l 465 981 l 465 811 l 286 811 l 286 981 z "},"ј":{"ha":463,"x_min":-68,"x_max":371,"o":"m 94 994 l 371 994 l 371 804 l 94 804 l 94 994 m 94 720 l 371 720 l 371 22 q 352 -168 371 -112 q 280 -258 332 -223 q 131 -292 228 -292 q -68 -269 51 -292 l -26 -68 q 22 -75 7 -75 q 76 -51 58 -75 q 94 45 94 -26 l 94 720 z "},"љ":{"ha":1404,"x_min":18,"x_max":1357,"o":"m 911 464 l 1038 464 q 1357 231 1357 464 q 1046 0 1357 0 l 635 0 l 635 518 l 425 518 l 425 216 q 376 37 425 96 q 225 -21 327 -21 q 18 0 110 -21 l 18 204 q 93 189 67 189 q 149 272 149 189 l 149 720 l 911 720 l 911 464 m 911 170 l 1002 170 q 1057 185 1036 170 q 1078 231 1078 201 q 1002 296 1078 296 l 911 296 l 911 170 z "},"њ":{"ha":1421,"x_min":93,"x_max":1371,"o":"m 925 464 l 1051 464 q 1371 231 1371 464 q 1060 0 1371 0 l 648 0 l 648 272 l 370 272 l 370 0 l 93 0 l 93 720 l 370 720 l 370 473 l 648 473 l 648 720 l 925 720 l 925 464 m 925 170 l 1015 170 q 1070 185 1049 170 q 1092 231 1092 201 q 1015 296 1092 296 l 925 296 l 925 170 z "},"ћ":{"ha":939,"x_min":14,"x_max":857,"o":"m 857 0 l 581 0 l 581 396 q 484 521 581 521 q 400 481 430 521 q 371 346 371 441 l 371 0 l 94 0 l 94 804 l 14 804 l 14 930 l 94 930 l 94 994 l 371 994 l 371 930 l 536 930 l 536 804 l 371 804 l 371 628 q 615 736 468 736 q 796 664 735 736 q 857 458 857 591 l 857 0 z "},"ќ":{"ha":892,"x_min":83,"x_max":885,"o":"m 885 0 l 574 0 l 468 199 q 419 258 443 246 q 359 271 395 271 l 359 0 l 83 0 l 83 720 l 359 720 l 359 460 q 410 482 393 463 q 457 566 426 501 q 512 660 488 630 q 574 705 536 690 q 669 724 612 720 q 839 728 726 728 l 839 532 l 827 532 q 742 527 771 532 q 695 509 713 523 q 654 450 677 494 q 616 389 631 406 q 571 366 601 372 q 660 341 629 360 q 754 216 691 321 l 885 0 m 458 1011 l 695 1011 l 476 808 l 344 808 l 458 1011 z "},"ў":{"ha":848,"x_min":3,"x_max":853,"o":"m 3 720 l 295 720 l 444 241 l 581 720 l 853 720 l 568 -50 q 468 -227 519 -181 q 249 -292 396 -292 q 64 -276 189 -292 l 43 -83 q 176 -102 102 -102 q 255 -80 224 -102 q 306 0 285 -58 l 3 720 m 646 1011 q 578 860 644 913 q 419 807 511 807 q 252 861 313 807 q 183 1011 191 915 l 300 1011 q 414 939 320 939 q 495 953 466 939 q 534 1011 524 968 l 646 1011 z "},"џ":{"ha":926,"x_min":81,"x_max":843,"o":"m 843 0 l 557 0 l 557 -205 l 366 -205 l 366 0 l 81 0 l 81 720 l 357 720 l 357 201 l 567 201 l 567 720 l 843 720 l 843 0 z "},"Ґ":{"ha":771,"x_min":102,"x_max":747,"o":"m 747 750 l 408 750 l 408 0 l 102 0 l 102 994 l 500 994 l 500 1196 l 747 1196 l 747 750 z "},"ґ":{"ha":650,"x_min":93,"x_max":627,"o":"m 627 518 l 370 518 l 370 0 l 93 0 l 93 720 l 449 720 l 449 925 l 627 925 l 627 518 z "},"Ẁ":{"ha":1389,"x_min":-1,"x_max":1390,"o":"m -1 994 l 291 994 l 396 439 l 549 994 l 840 994 l 994 439 l 1099 994 l 1390 994 l 1171 0 l 869 0 l 695 626 l 522 0 l 220 0 l -1 994 m 511 1269 l 746 1269 l 857 1067 l 727 1067 l 511 1269 z "},"ẁ":{"ha":1311,"x_min":2,"x_max":1314,"o":"m 2 720 l 269 720 l 385 267 l 532 720 l 781 720 l 932 267 l 1048 720 l 1314 720 l 1048 0 l 803 0 l 657 433 l 516 0 l 269 0 l 2 720 m 459 1011 l 694 1011 l 806 809 l 675 809 l 459 1011 z "},"Ẃ":{"ha":1389,"x_min":-1,"x_max":1390,"o":"m -1 994 l 291 994 l 396 439 l 549 994 l 840 994 l 994 439 l 1099 994 l 1390 994 l 1171 0 l 869 0 l 695 626 l 522 0 l 220 0 l -1 994 m 664 1266 l 901 1266 l 682 1063 l 550 1063 l 664 1266 z "},"ẃ":{"ha":1311,"x_min":2,"x_max":1314,"o":"m 2 720 l 269 720 l 385 267 l 532 720 l 781 720 l 932 267 l 1048 720 l 1314 720 l 1048 0 l 803 0 l 657 433 l 516 0 l 269 0 l 2 720 m 642 1011 l 880 1011 l 661 808 l 528 808 l 642 1011 z "},"Ẅ":{"ha":1389,"x_min":-1,"x_max":1390,"o":"m -1 994 l 291 994 l 396 439 l 549 994 l 840 994 l 994 439 l 1099 994 l 1390 994 l 1171 0 l 869 0 l 695 626 l 522 0 l 220 0 l -1 994 m 465 1233 l 642 1233 l 642 1063 l 465 1063 l 465 1233 m 753 1233 l 931 1233 l 931 1063 l 753 1063 l 753 1233 z "},"ẅ":{"ha":1311,"x_min":2,"x_max":1314,"o":"m 2 720 l 269 720 l 385 267 l 532 720 l 781 720 l 932 267 l 1048 720 l 1314 720 l 1048 0 l 803 0 l 657 433 l 516 0 l 269 0 l 2 720 m 422 981 l 598 981 l 598 811 l 422 811 l 422 981 m 709 981 l 888 981 l 888 811 l 709 811 l 709 981 z "},"Ỳ":{"ha":1080,"x_min":1,"x_max":1083,"o":"m 1 994 l 342 994 l 543 659 l 744 994 l 1083 994 l 696 416 l 696 0 l 389 0 l 389 416 l 1 994 m 318 1266 l 553 1266 l 665 1064 l 534 1064 l 318 1266 z "},"ỳ":{"ha":848,"x_min":3,"x_max":853,"o":"m 3 720 l 295 720 l 444 241 l 581 720 l 853 720 l 568 -50 q 468 -227 519 -181 q 249 -292 396 -292 q 64 -276 189 -292 l 43 -83 q 176 -102 102 -102 q 255 -80 224 -102 q 306 0 285 -58 l 3 720 m 231 1011 l 467 1011 l 578 809 l 448 809 l 231 1011 z "},"―":{"ha":1042,"x_min":-8,"x_max":1049,"o":"m -8 438 l 1049 438 l 1049 288 l -8 288 l -8 438 z "},"‛":{"ha":386,"x_min":47,"x_max":342,"o":"m 342 1011 l 342 737 l 201 737 q 234 651 205 688 q 342 578 264 615 l 278 458 q 100 586 152 513 q 47 784 47 659 l 47 1011 l 342 1011 z "},"‾":{"ha":694,"x_min":-8,"x_max":703,"o":"m 703 1199 l -8 1199 l -8 1268 l 703 1268 l 703 1199 z "},"₤":{"ha":926,"x_min":71,"x_max":920,"o":"m 920 43 q 692 -17 808 -17 q 540 7 629 -17 q 420 38 451 31 q 358 45 389 45 q 164 -17 267 45 l 78 175 q 212 340 183 252 l 71 340 l 71 435 l 211 435 q 200 504 207 486 l 71 504 l 71 599 l 172 599 q 144 730 144 666 q 200 897 144 830 q 325 988 256 964 q 507 1011 393 1011 q 650 998 583 1011 q 782 927 717 984 q 872 751 848 869 l 612 711 q 510 831 582 831 q 447 805 471 831 q 422 732 422 779 q 452 599 422 675 l 659 599 l 659 504 l 482 504 q 478 435 482 475 l 659 435 l 659 340 l 460 340 q 414 236 443 269 l 416 233 q 479 243 452 243 q 532 238 514 243 q 600 222 549 233 q 692 211 651 211 q 828 244 760 211 l 920 43 z "},"№":{"ha":1868,"x_min":103,"x_max":1793,"o":"m 1054 0 l 764 0 l 392 546 l 392 0 l 103 0 l 103 994 l 390 994 l 765 444 l 765 994 l 1054 994 l 1054 0 m 1461 856 q 1708 770 1623 856 q 1793 557 1793 684 q 1709 341 1793 429 q 1461 253 1624 253 q 1218 340 1304 253 q 1132 553 1132 428 q 1219 769 1132 682 q 1461 856 1305 856 m 1463 414 q 1535 447 1512 414 q 1558 555 1558 480 q 1536 662 1558 629 q 1466 694 1514 694 q 1391 662 1415 694 q 1368 553 1368 629 q 1463 414 1368 414 m 1768 31 l 1179 31 l 1179 195 l 1768 195 l 1768 31 z "},"℮":{"ha":833,"x_min":61,"x_max":779,"o":"m 218 360 l 218 109 q 420 26 299 26 q 688 193 592 26 l 736 164 q 579 13 656 49 q 420 -23 503 -23 q 162 84 262 -23 q 61 360 61 192 q 162 637 61 531 q 420 743 264 743 q 668 647 565 743 q 779 360 771 551 l 218 360 m 622 410 l 622 612 q 418 694 538 694 q 218 612 300 694 l 218 410 l 622 410 z "},"⅛":{"ha":1389,"x_min":106,"x_max":1281,"o":"m 436 1011 l 436 503 l 260 503 l 260 806 q 191 773 222 784 q 106 751 160 762 l 106 891 q 302 1011 231 922 l 436 1011 m 901 1011 l 1047 1011 l 422 -36 l 277 -36 l 901 1011 m 1194 246 q 1281 132 1281 219 q 1214 9 1281 52 q 1021 -33 1146 -33 q 830 9 897 -33 q 763 132 763 51 q 849 246 763 218 q 778 347 778 275 q 843 453 778 416 q 1021 489 907 489 q 1199 453 1134 489 q 1264 347 1264 416 q 1194 246 1264 276 m 1021 289 q 1080 303 1058 289 q 1101 339 1101 317 q 1083 377 1101 366 q 1023 389 1064 389 q 941 339 941 389 q 963 303 941 317 q 1021 289 985 289 m 1021 69 q 1110 138 1110 69 q 1086 186 1110 168 q 1021 204 1063 204 q 932 138 932 204 q 1021 69 932 69 z "},"⅜":{"ha":1389,"x_min":54,"x_max":1286,"o":"m 237 853 l 62 880 q 144 973 95 944 q 317 1011 209 1011 q 502 966 439 1011 q 546 882 546 933 q 522 815 546 846 q 460 773 505 794 q 541 721 515 755 q 566 641 566 686 q 517 540 566 577 q 311 489 450 489 q 113 542 182 489 q 54 633 73 572 l 226 652 q 256 606 237 620 q 309 591 276 591 q 368 610 347 591 q 389 654 389 629 q 351 708 389 689 q 250 720 330 719 l 269 816 q 348 831 328 816 q 368 868 368 846 q 354 898 368 886 q 313 909 340 909 q 263 894 286 909 q 237 853 247 882 m 901 1011 l 1047 1011 l 422 -36 l 277 -36 l 901 1011 m 1199 246 q 1286 132 1286 219 q 1219 9 1286 52 q 1027 -33 1152 -33 q 836 9 903 -33 q 768 132 768 51 q 854 246 768 218 q 783 347 783 275 q 848 453 783 416 q 1027 489 913 489 q 1204 453 1139 489 q 1270 347 1270 416 q 1199 246 1270 276 m 1027 289 q 1085 303 1063 289 q 1107 339 1107 317 q 1088 377 1107 366 q 1028 389 1069 389 q 946 339 946 389 q 968 303 946 317 q 1027 289 990 289 m 1027 69 q 1116 138 1116 69 q 1092 186 1116 168 q 1027 204 1068 204 q 938 138 938 204 q 1027 69 938 69 z "},"⅝":{"ha":1389,"x_min":64,"x_max":1284,"o":"m 235 817 q 356 839 286 839 q 508 795 446 839 q 570 677 570 751 q 505 540 570 590 q 319 490 440 490 q 64 631 109 490 l 231 654 q 261 608 237 625 q 317 591 286 591 q 380 612 355 591 q 405 665 405 633 q 381 718 405 699 q 314 737 357 737 q 264 726 292 737 q 221 699 237 715 l 88 718 l 132 1008 l 542 1008 l 542 892 l 248 892 l 235 817 m 905 1011 l 1051 1011 l 426 -36 l 281 -36 l 905 1011 m 1196 246 q 1284 132 1284 219 q 1216 9 1284 52 q 1024 -33 1149 -33 q 833 9 900 -33 q 766 132 766 51 q 852 246 766 218 q 781 347 781 275 q 845 453 781 416 q 1024 489 910 489 q 1202 453 1137 489 q 1267 347 1267 416 q 1196 246 1267 276 m 1024 289 q 1082 303 1061 289 q 1104 339 1104 317 q 1085 377 1104 366 q 1025 389 1067 389 q 943 339 943 389 q 965 303 943 317 q 1024 289 987 289 m 1024 69 q 1113 138 1113 69 q 1089 186 1113 168 q 1024 204 1065 204 q 935 138 935 204 q 1024 69 935 69 z "},"⅞":{"ha":1389,"x_min":90,"x_max":1281,"o":"m 539 914 q 363 489 387 773 l 185 489 q 369 892 211 701 l 90 892 l 90 1011 l 539 1011 l 539 914 m 862 1011 l 1008 1011 l 382 -36 l 238 -36 l 862 1011 m 1194 246 q 1281 132 1281 219 q 1214 9 1281 52 q 1021 -33 1146 -33 q 830 9 897 -33 q 763 132 763 51 q 849 246 763 218 q 778 347 778 275 q 843 453 778 416 q 1021 489 907 489 q 1199 453 1134 489 q 1264 347 1264 416 q 1194 246 1264 276 m 1021 289 q 1080 303 1058 289 q 1101 339 1101 317 q 1083 377 1101 366 q 1023 389 1064 389 q 941 339 941 389 q 963 303 941 317 q 1021 289 985 289 m 1021 69 q 1110 138 1110 69 q 1086 186 1110 168 q 1021 204 1063 204 q 932 138 932 204 q 1021 69 932 69 z "},"⌂":{"ha":833,"x_min":104,"x_max":730,"o":"m 104 0 l 104 430 l 416 782 l 730 430 l 730 0 l 104 0 m 159 55 l 675 55 l 675 407 l 416 696 l 159 407 l 159 55 z "},"⌐":{"ha":917,"x_min":85,"x_max":826,"o":"m 826 768 l 826 548 l 307 548 l 307 214 l 85 214 l 85 768 l 826 768 z "}}}
